<svg xmlns="http://www.w3.org/2000/svg"><metadata/><defs><font id="pt_sans_narrowbold" horiz-adv-x="478"><font-face ascent="750" descent="-250" units-per-em="1000"/><glyph d="M413 500v-500h-119v394h-112v-394h-119v394h-54v106h54v28q0 95 41.5 138.5t121.5 43.5q58 0 104 -9.5t75 -24.5l-31 -98q-24 12 -54.5 19t-65.5 7q-23 0 -37 -7t-22 -20.5t-10.5 -33t-2.5 -43.5h231z" horiz-adv-x="460" unicode="fi"/><glyph d="M292 600q-9 2 -25 4.5t-31 2.5q-35 0 -44.5 -26t-9.5 -81h57v-106h-57v-394h-119v394h-54v106h54v28q0 47 9 82t29.5 58t53.5 34t80 11q20 0 45.5 -2t50.5 -4.5t46.5 -5.5t33.5 -6v-534q0 -66 30 -66q9 0 18 2t22 8l13 -95q-14 -8 -42 -16t-61 -8q-49 0 -74 25.5 t-25 85.5v503z" horiz-adv-x="492" unicode="fl"/><glyph horiz-adv-x="205"/><glyph horiz-adv-x="205"/><glyph horiz-adv-x="205"/><glyph horiz-adv-x="205"/><glyph d="M83 700h123v-329l-24 -163h-75l-24 163v329zM72 65q0 37 19.5 56t51.5 19q35 0 54 -19t19 -56q0 -36 -19.5 -56t-53.5 -20q-33 0 -52 20t-19 56z" horiz-adv-x="251" unicode="!"/><glyph d="M73 700h103l-31 -216h-72v216zM207 700h103l-31 -216h-72v216z" horiz-adv-x="351" unicode="&quot;"/><glyph d="M242 205h-69l-30 -154h-97l30 154h-61l21 95h58l22 110h-60l21 95h57l29 144h98l-29 -144h69l29 144h97l-29 -144h59l-22 -95h-55l-22 -110h58l-22 -95h-54l-30 -154h-98zM192 300h69l21 110h-69z" unicode="#"/><glyph d="M194 -13q-48 2 -82 11.5t-54 22.5l33 107q15 -11 41.5 -20t61.5 -13v220q-26 15 -51 33t-44.5 42.5t-32 57t-12.5 77.5q0 78 38 123.5t102 59.5v92h95v-88q35 -2 62 -9.5t51 -19.5l-33 -104q-15 8 -35 14.5t-45 9.5v-197q26 -16 51.5 -34.5t46 -43.5t33.5 -57t13 -75 q0 -86 -39 -136t-105 -66v-94h-95v87zM248 96q32 6 48 29.5t16 57.5t-18 56.5t-46 41.5v-185zM236 605q-36 -4 -49.5 -25.5t-13.5 -46.5q0 -31 18 -52.5t45 -40.5v165z" unicode="$"/><glyph d="M41 0zM41 542q0 46 11 78t31 52.5t47.5 30t60.5 9.5t60.5 -8.5t47.5 -28.5t31.5 -52.5t11.5 -80.5t-11.5 -80.5t-31.5 -52.5t-47.5 -28.5t-60.5 -8.5t-60.5 8.5t-47.5 28.5t-31 52.5t-11 80.5zM147 542q0 -48 10.5 -67.5t33.5 -19.5q12 0 20.5 3.5t14 13.5t8 27t2.5 43 q0 51 -11 69t-34 18t-33.5 -18t-10.5 -69zM389 171q0 46 11 78t31 52.5t47.5 30t60.5 9.5t60.5 -8.5t47.5 -28.5t31.5 -52.5t11.5 -80.5t-11.5 -80.5t-31.5 -52.5t-47.5 -28.5t-60.5 -8.5t-60.5 8.5t-47.5 28.5t-31 52.5t-11 80.5zM495 171q0 -48 10.5 -67.5t33.5 -19.5 q12 0 20.5 3.5t14 13.5t8 27t2.5 43q0 51 -11 69t-34 18t-33.5 -18t-10.5 -69zM575 714l70 -58l-494 -670l-71 59z" horiz-adv-x="720" unicode="%"/><glyph d="M70 194q0 38 10.5 72t29.5 64t44.5 55.5t54.5 45.5q-21 33 -34.5 68t-13.5 73q0 25 8 50.5t26 46t46.5 33t69.5 12.5q39 0 67 -10.5t45.5 -28t25.5 -40.5t8 -48q0 -42 -25 -86.5t-82 -86.5q25 -47 53.5 -94.5t63.5 -91.5q19 25 32 59.5t24 71.5l89 -41q-5 -18 -14 -41 t-20 -45.5t-22 -43t-21 -34.5q25 -29 46.5 -46.5t42.5 -30.5l-61 -91q-27 13 -52.5 34t-49.5 49q-30 -34 -73.5 -58.5t-108.5 -24.5q-45 0 -83.5 13.5t-66.5 40t-43.5 65.5t-15.5 89zM392 148q-40 53 -72.5 103.5t-55.5 98.5q-35 -35 -55 -68.5t-20 -78.5q0 -51 28.5 -79.5 t74.5 -28.5q32 0 59 16.5t41 36.5zM280 566q0 -44 29 -90q29 25 42 47.5t13 42.5q0 23 -10.5 37.5t-32.5 14.5q-20 0 -30.5 -14.5t-10.5 -37.5z" horiz-adv-x="671" unicode="&amp;"/><glyph d="M73 700h103l-31 -216h-72v216z" horiz-adv-x="217" unicode="'"/><glyph d="M186 -220q-38 48 -64 105.5t-42.5 118t-24 122t-7.5 117.5q0 55 7.5 116t24 122.5t43 120.5t65.5 110l80 -45q-27 -47 -46 -99.5t-31.5 -107.5t-18 -110.5t-5.5 -106.5q0 -48 6 -103t18 -110.5t31.5 -107.5t46.5 -94z" horiz-adv-x="278" unicode="("/><glyph d="M92 712q38 -48 64 -105.5t42.5 -118t24 -122t7.5 -117.5q0 -55 -7.5 -116t-24 -122.5t-43 -120.5t-65.5 -110l-81 46q30 50 49.5 103t31 107t16.5 108t5 105q0 48 -6 103.5t-19 111t-32 107.5t-45 95z" horiz-adv-x="278" unicode=")"/><glyph d="M123 724l24 -43l13 -56l11 52l26 47l59 -34l-27 -49l-42 -40l55 15h52v-70h-50l-52 16l45 -45l22 -40l-60 -35l-24 43l-16 61l-10 -55l-26 -47l-60 35l27 48l39 34l-47 -15h-53v71h54l50 -16l-45 41l-25 47z" horiz-adv-x="323" unicode="*"/><glyph d="M34 392h133v146h110v-146h133v-106h-133v-147h-110v147h-133v106z" horiz-adv-x="444" unicode="+"/><glyph d="M33 65q0 34 20 53.5t50 19.5q38 0 58.5 -27t20.5 -75q0 -44 -12.5 -76t-30.5 -53.5t-38.5 -34.5t-35.5 -19l-37 48q23 12 41 38.5t20 53.5q-21 -1 -38.5 16.5t-17.5 55.5z" horiz-adv-x="196" unicode=","/><glyph d="M45 344h208v-114h-208v114z" horiz-adv-x="298" unicode="-"/><glyph d="M34 65q0 37 19.5 56t51.5 19q35 0 54 -19t19 -56q0 -36 -19.5 -56t-53.5 -20q-33 0 -52 20t-19 56z" horiz-adv-x="192" unicode="."/><glyph d="M276 712l91 -35l-293 -817l-92 35z" horiz-adv-x="349" unicode="/"/><glyph d="M35 351q0 98 13.5 167t39.5 112.5t64 63.5t87 20q52 0 90.5 -20t64 -63.5t38 -112.5t12.5 -167q0 -99 -14 -168.5t-40 -113t-64 -63.5t-87 -20q-52 0 -90.5 20.5t-63.5 65t-37.5 113.5t-12.5 166zM154 351q0 -134 20 -196.5t66 -62.5q22 0 38.5 14t26.5 45t15 80t5 120 q0 133 -19.5 195t-66.5 62q-23 0 -39 -14t-26 -45t-15 -80t-5 -118z" unicode="0"/><glyph d="M87 106h114v393l13 68l-41 -59l-66 -51l-55 67l193 188h70v-606h112v-106h-340v106z" unicode="1"/><glyph d="M402 532q0 -52 -15 -106.5t-38.5 -106.5t-51.5 -99t-55 -83l-44 -41v-5l60 15h155v-106h-351v69q21 26 45.5 59.5t49 71t47.5 78t40.5 81t28 79.5t10.5 73q0 42 -20 68t-62 26q-26 0 -52 -11.5t-44 -27.5l-45 87q32 28 74 44.5t99 16.5q36 0 67 -11.5t53.5 -34.5 t35.5 -57t13 -79z" unicode="2"/><glyph d="M200 92q49 0 74.5 33t25.5 84q0 113 -112 113h-59v68l99 168l48 45l-66 -9h-137v106h320v-71l-116 -189l-37 -27v-5l37 6q28 -2 54 -15t45.5 -37t31 -60t11.5 -85q0 -59 -16.5 -102t-45 -72t-67 -43t-82.5 -14q-37 0 -78 8t-65 23l32 100q21 -11 46 -18t57 -7z" unicode="3"/><glyph d="M465 195h-88v-195h-113v195h-247v74l256 436h104v-408h88v-102zM264 452l11 90h-4l-30 -81l-79 -134l-40 -38l51 8h91v155z" unicode="4"/><glyph d="M183 95q54 0 82 35t28 90q0 63 -33 91t-95 28l-65 -4v365h291v-116h-189v-143l33 4q81 -3 129 -60t48 -160q0 -59 -17 -104t-46.5 -75t-70.5 -45t-89 -15q-36 0 -72.5 7.5t-59.5 19.5l31 101q37 -19 95 -19z" unicode="5"/><glyph d="M438 217q0 -53 -14.5 -96t-40 -73t-61 -46t-77.5 -16q-44 0 -81 15.5t-64 47.5t-42 82.5t-15 119.5q0 102 24.5 182.5t66 138.5t95 93.5t112.5 48.5l30 -97q-39 -10 -73 -32t-61 -53t-45.5 -70.5t-27.5 -83.5q17 24 43 39t64 15q36 0 66.5 -13t53 -40t35 -67.5 t12.5 -94.5zM323 210q0 61 -20.5 88.5t-62.5 27.5q-30 0 -51 -17t-30 -40q-1 -11 -1 -22.5v-22.5q0 -26 5 -49.5t15.5 -42t26 -29.5t37.5 -11q36 0 58.5 30.5t22.5 87.5z" unicode="6"/><glyph d="M88 0l189 547l36 49l-50 -10h-211v114h379v-38l-227 -662h-116z" unicode="7"/><glyph d="M50 168q0 36 8 64.5t22 51t31.5 40.5t37.5 33q-39 31 -61.5 71.5t-22.5 100.5q0 85 47.5 135t130.5 50q76 0 123 -44t47 -125q0 -59 -22 -100t-63 -76q50 -35 75 -79t25 -111q0 -45 -14.5 -81t-40 -61t-60.5 -38t-76 -13q-42 0 -76 12.5t-59 35.5t-38.5 57t-13.5 77z M313 179q0 25 -8 45t-21.5 35.5t-30 28.5t-32.5 25q-35 -27 -48.5 -58.5t-13.5 -63.5q0 -42 21 -70.5t59 -28.5q34 0 54 21.5t20 65.5zM179 527q0 -23 6.5 -40.5t17.5 -31.5t25.5 -25.5t30.5 -21.5q23 27 34.5 53.5t11.5 60.5q0 41 -18.5 63.5t-44.5 22.5q-33 0 -48 -24.5 t-15 -56.5z" unicode="8"/><glyph d="M37 481q0 106 50.5 169.5t145.5 63.5q93 0 148.5 -66t55.5 -198q0 -116 -25 -200.5t-67 -140.5t-97 -86t-114 -37l-28 100q90 18 140 78.5t64 146.5q-19 -25 -41 -35t-57 -10q-31 0 -62.5 12.5t-56.5 39t-40.5 67t-15.5 96.5zM152 488q0 -57 24.5 -86.5t62.5 -29.5 q29 0 49 10.5t31 29.5q2 11 2.5 23t0.5 23q0 31 -5 58.5t-16 47.5t-28 32t-41 12q-38 0 -59 -32t-21 -88z" unicode="9"/><glyph d="M77 0zM77 427q0 37 19.5 56t51.5 19q35 0 54 -19t19 -56q0 -36 -19.5 -56t-53.5 -20q-33 0 -52 20t-19 56zM77 65q0 37 19.5 56t51.5 19q35 0 54 -19t19 -56q0 -36 -19.5 -56t-53.5 -20q-33 0 -52 20t-19 56z" horiz-adv-x="251" unicode=":"/><glyph d="M67 0zM72 65q0 34 20 53.5t50 19.5q38 0 58.5 -27t20.5 -75q0 -44 -12.5 -76t-30.5 -53.5t-38.5 -34.5t-35.5 -19l-37 48q23 12 41 38.5t20 53.5q-21 -1 -38.5 16.5t-17.5 55.5zM73 427q0 37 19.5 56t51.5 19q35 0 54 -19t19 -56q0 -36 -19.5 -56t-53.5 -20q-33 0 -52 20 t-19 56z" horiz-adv-x="251" unicode=";"/><glyph d="M35 285v70l311 222l60 -81l-186 -139l-75 -35l74 -31l191 -137l-60 -81z" horiz-adv-x="444" unicode="&lt;"/><glyph d="M38 192zM38 489h368v-106h-368v106zM38 298h368v-106h-368v106z" horiz-adv-x="444" unicode="="/><glyph d="M409 365v-70l-309 -220l-62 80l187 138l74 36l-74 30l-191 138l62 79z" horiz-adv-x="444" unicode="&gt;"/><glyph d="M113 208q-4 46 4 80.5t22 61t32 47.5t34 41.5t26.5 43t10.5 50.5q0 35 -16.5 55.5t-54.5 20.5q-26 0 -55 -10.5t-50 -28.5l-47 90q31 23 73 39t102 16q80 0 125.5 -43.5t45.5 -122.5q0 -47 -11 -79.5t-28 -57t-36.5 -44.5t-36 -42t-28 -50t-11.5 -67h-101zM97 65 q0 37 19.5 56t51.5 19q35 0 54 -19t19 -56q0 -36 -19.5 -56t-53.5 -20q-33 0 -52 20t-19 56z" horiz-adv-x="382" unicode="?"/><glyph d="M558 484h66l-39 -273q-12 -91 29 -91q20 0 39.5 12t35 37t25 64t9.5 93q0 69 -19.5 118.5t-54.5 81t-83 46.5t-105 15q-64 0 -119.5 -25.5t-96 -71.5t-64 -110t-23.5 -142q0 -153 76 -233t213 -80q26 0 57.5 7t56.5 20l29 -87q-32 -17 -70 -25.5t-86 -8.5 q-79 0 -147.5 24t-119.5 73.5t-80.5 126t-29.5 181.5t33.5 188t89.5 140t129 87t153 30q76 0 142.5 -22.5t115 -67t76.5 -111t28 -154.5q0 -66 -19.5 -122.5t-52.5 -97t-77.5 -63.5t-94.5 -23q-41 0 -69.5 21t-26.5 73h-3q-23 -38 -55.5 -66t-79.5 -28q-43 0 -73 38t-30 106 q0 67 16.5 126t44.5 103.5t65 70.5t79 26q28 0 48 -10t37 -27zM505 369q-18 21 -47 21q-23 0 -42 -16.5t-33 -44t-22 -63t-8 -73.5q0 -35 11.5 -54t35.5 -19q22 0 44.5 24.5t37.5 54.5z" horiz-adv-x="881" unicode="@"/><glyph d="M328 158h-165l-41 -158h-125l203 705h99l204 -705h-132zM190 262h116l-40 163l-16 110h-4l-17 -111z" horiz-adv-x="501" unicode="A"/><glyph d="M445 538q0 -26 -5.5 -51.5t-17.5 -48t-31.5 -39.5t-46.5 -26v-6q24 -6 45.5 -18t37.5 -32.5t25.5 -50t9.5 -69.5q0 -54 -18.5 -93.5t-50 -64.5t-73.5 -37t-89 -12h-36t-47.5 1.5t-52.5 4.5t-50 9v690q33 6 81.5 10.5t96.5 4.5q44 0 84.5 -7t71 -26t48.5 -52.5t18 -86.5z M234 99q42 0 69 27t27 79q0 33 -9 52.5t-24 30t-34.5 13.5t-40.5 3h-51v-199q8 -3 27.5 -4.5t35.5 -1.5zM200 403q11 0 25.5 1.5t23.5 3.5q29 11 49.5 36t20.5 65q0 26 -7 44t-19 28.5t-28.5 15t-35.5 4.5q-41 0 -58 -4v-194h29z" horiz-adv-x="490" unicode="B"/><glyph d="M442 28q-26 -22 -69.5 -32t-86.5 -10q-54 0 -100.5 18.5t-81.5 61.5t-55 113t-20 172q0 106 22.5 176t59 111.5t83.5 58.5t95 17q49 0 85.5 -8t59.5 -18l-25 -111q-19 10 -44.5 15.5t-60.5 5.5q-69 0 -106 -60t-37 -188q0 -55 8.5 -100.5t27 -78.5t47 -51t68.5 -18 q35 0 60 9.5t45 22.5z" horiz-adv-x="457" unicode="C"/><glyph d="M45 700q18 3 40.5 4.5t46 3t45.5 2t39 0.5q83 0 138.5 -25.5t89 -72t47.5 -111.5t14 -145q0 -73 -13.5 -139.5t-47.5 -117t-92 -80.5t-146 -30q-13 0 -35 1t-46 2.5t-46 3t-34 3.5v701zM229 594q-16 0 -32.5 -0.5t-25.5 -2.5v-482q3 -1 10.5 -1.5t16 -1t16 -1t10.5 -0.5 q45 0 74 21t45.5 56t23 80.5t6.5 95.5q0 46 -5.5 89t-21 75.5t-44 52t-73.5 19.5z" horiz-adv-x="535" unicode="D"/><glyph d="M45 700h350v-116h-224v-172h203v-116h-203v-180h228v-116h-354v700z" horiz-adv-x="430" unicode="E"/><glyph d="M45 700h350v-116h-224v-182h206v-116h-206v-286h-126v700z" horiz-adv-x="419" unicode="F"/><glyph d="M257 362h216v-310q-37 -35 -86.5 -50.5t-98.5 -15.5q-59 0 -107 21t-81.5 65.5t-52 113t-18.5 164.5q0 100 22 169t58.5 112.5t85 63t102.5 19.5q48 0 87.5 -8.5t65.5 -19.5l-26 -109q-20 9 -46.5 15t-64.5 6q-35 0 -63.5 -14t-48 -44t-30 -77.5t-10.5 -113.5 q0 -127 38.5 -187t101.5 -60q20 0 38.5 6t32.5 19v143l-115 16v76z" horiz-adv-x="502" unicode="G"/><glyph d="M362 296h-191v-296h-126v700h126v-288h191v288h126v-700h-126v296z" horiz-adv-x="533" unicode="H"/><glyph d="M56 700h126v-700h-126v700z" horiz-adv-x="238" unicode="I"/><glyph d="M113 700h126v-509q0 -46 -7.5 -83.5t-24.5 -64t-45 -41t-70 -14.5q-29 0 -57.5 6t-51.5 17l29 106q21 -13 49 -13q35 0 43.5 29.5t8.5 84.5v482z" horiz-adv-x="289" unicode="J"/><glyph d="M198 300h-27v-300h-126v700h126v-311l25 12l147 299h142l-160 -295l-47 -37l48 -38l185 -330h-154z" horiz-adv-x="519" unicode="K"/><glyph d="M417 0h-372v700h126v-584h246v-116z" horiz-adv-x="424" unicode="L"/><glyph d="M493 361l14 134h-5l-37 -120l-114 -246h-42l-121 247l-37 121h-6l19 -135v-362h-119v700h121l146 -303l24 -87h4l23 89l137 301h119v-700h-126v361z" horiz-adv-x="664" unicode="M"/><glyph d="M199 344l-46 123h-5l16 -121v-346h-119v705h97l201 -352l43 -121h6l-16 119v349h119v-705h-97z" horiz-adv-x="540" unicode="N"/><glyph d="M29 350q0 178 61 271t186 93q65 0 112 -25.5t77 -73t44.5 -115t14.5 -150.5q0 -178 -62.5 -271t-185.5 -93q-66 0 -112.5 25.5t-76.5 73t-44 115t-14 150.5zM161 350q0 -53 6 -98.5t20 -78.5t35.5 -52t53.5 -19q58 0 87 59t29 189q0 51 -6 96.5t-19.5 79t-35.5 53 t-55 19.5q-115 0 -115 -248z" horiz-adv-x="553" unicode="O"/><glyph d="M45 693q36 8 79 12.5t86 4.5q46 0 90.5 -8.5t79.5 -33.5t57 -70.5t22 -118.5q0 -66 -18.5 -112t-49.5 -75t-71.5 -42t-83.5 -13h-13t-19 0.5t-19.5 1.5t-13.5 2v-241h-126v693zM171 354q6 -2 22.5 -3.5t22.5 -1.5q22 0 42 6t35.5 20.5t24.5 40t9 64.5q0 33 -8.5 56 t-23 36.5t-33.5 19.5t-40 6q-31 0 -51 -5v-239z" horiz-adv-x="477" unicode="P"/><glyph d="M579 -196q-20 -7 -40.5 -10t-40.5 -3q-42 0 -81.5 10t-76.5 22.5t-71.5 22.5t-65.5 10q-10 0 -19.5 -1t-18.5 -4v112q24 6 48 6q34 0 68.5 -10t70 -21.5t73 -21.5t78.5 -10q18 0 37 2.5t39 8.5v-113zM29 350q0 178 61 271t186 93q65 0 112 -25.5t77 -73t44.5 -115 t14.5 -150.5q0 -178 -62.5 -271t-185.5 -93q-66 0 -112.5 25.5t-76.5 73t-44 115t-14 150.5zM161 350q0 -53 6 -98.5t20 -78.5t35.5 -52t53.5 -19q58 0 87 59t29 189q0 51 -6 96.5t-19.5 79t-35.5 53t-55 19.5q-115 0 -115 -248z" horiz-adv-x="553" unicode="Q"/><glyph d="M45 693q41 9 88 13t81 4q43 0 84 -8.5t72.5 -31t51 -61t19.5 -97.5q0 -85 -31.5 -138.5t-86.5 -73.5l40 -32l129 -268h-145l-122 276l-54 13v-289h-126v693zM171 375h43q47 0 71 28.5t24 88.5q0 45 -20 73.5t-63 28.5q-16 0 -31 -1t-24 -4v-214z" horiz-adv-x="503" unicode="R"/><glyph d="M290 180q0 32 -19 54.5t-47.5 42.5t-62 41t-62 49t-47.5 66t-19 93q0 51 15.5 86.5t42.5 58t64 33t79 10.5q51 0 95 -10t73 -27l-39 -111q-17 12 -50.5 22t-72.5 10t-60 -16t-21 -47q0 -28 19 -49.5t47.5 -41.5t62 -41.5t62 -50t47.5 -67t19 -91.5t-15.5 -92t-44 -64.5 t-68.5 -38.5t-89 -13q-62 0 -108.5 12t-71.5 27l41 113q20 -12 55 -24t75 -12q100 0 100 78z" horiz-adv-x="439" unicode="S"/><glyph d="M465 584h-165v-584h-126v584h-166v116h457v-116z" horiz-adv-x="473" unicode="T"/><glyph d="M354 700h119v-454q0 -136 -55.5 -197t-153.5 -61q-115 0 -168.5 59.5t-53.5 181.5v471h126v-449q0 -82 22 -114.5t73 -32.5q49 0 70 34.5t21 112.5v449z" horiz-adv-x="515" unicode="U"/><glyph d="M243 289l14 -120h4l16 121l102 410h133l-212 -705h-96l-214 705h149z" horiz-adv-x="503" unicode="V"/><glyph d="M205 315l10 -126h4l11 128l94 383h88l91 -385l11 -126h4l11 128l62 383h128l-157 -705h-89l-98 386l-13 109h-5l-12 -110l-98 -385h-93l-156 705h139z" horiz-adv-x="717" unicode="W"/><glyph d="M177 356l-155 344h152l81 -200l19 -76l18 76l85 200h136l-160 -337l168 -363h-147l-94 215l-21 78l-20 -78l-94 -215h-139z" horiz-adv-x="528" unicode="X"/><glyph d="M184 260l-188 440h150l97 -265l10 -76h5l11 78l95 263h135l-189 -439v-261h-126v260z" horiz-adv-x="495" unicode="Y"/><glyph d="M21 116l234 427l42 41h-276v116h403v-116l-235 -430l-41 -38h276v-116h-403v116z" horiz-adv-x="445" unicode="Z"/><glyph d="M45 700h208v-103h-93v-724h93v-103h-208v930z" horiz-adv-x="276" unicode="["/><glyph d="M373 -103l-93 -37l-298 816l94 35z" horiz-adv-x="362" unicode="\"/><glyph d="M230 -230h-207v103h92v724h-92v103h207v-930z" horiz-adv-x="275" unicode="]"/><glyph d="M181 705h68l155 -292h-119l-56 122l-17 73l-21 -74l-59 -121h-114z" horiz-adv-x="428" unicode="^"/><glyph d="M0 -122h374v-102h-374v102z" horiz-adv-x="374" unicode="_"/><glyph d="M230 566h-66l-104 124v30h121z" horiz-adv-x="290" unicode="`"/><glyph d="M44 470q30 18 75 29t102 11q85 0 118.5 -44t33.5 -125q0 -47 -2.5 -92.5t-3.5 -89t1.5 -84t13.5 -76.5h-97l-19 61h-4q-16 -29 -45 -48t-73 -19q-59 0 -93 39.5t-34 105.5q0 90 64 128t173 32q5 58 -7.5 84t-53.5 26q-30 0 -62 -7t-57 -20zM187 95q27 0 44 13.5t25 29.5 v83q-23 3 -44 1t-37 -9t-25.5 -20.5t-9.5 -34.5q0 -31 12.5 -47t34.5 -16z" horiz-adv-x="413" unicode="a"/><glyph d="M43 700h119v-232h3q36 44 103 44q71 0 110.5 -59t39.5 -190q0 -142 -56 -208.5t-153 -66.5q-53 0 -97.5 10t-68.5 22v680zM162 108q21 -11 55 -11q38 0 58 36.5t20 122.5q0 76 -16 111.5t-50 35.5q-50 0 -67 -52v-243z" horiz-adv-x="443" unicode="b"/><glyph d="M338 27q-25 -20 -60 -30t-70 -10q-51 0 -85.5 18.5t-56.5 53t-31.5 83t-9.5 108.5q0 131 47 197t138 66q45 0 73.5 -8t50.5 -20l-28 -99q-18 9 -34.5 13.5t-39.5 4.5q-42 0 -63 -36.5t-21 -117.5q0 -68 21.5 -111t68.5 -43q25 0 42.5 6.5t32.5 16.5z" horiz-adv-x="350" unicode="c"/><glyph d="M402 176q0 -42 1 -84t8 -93h-84l-16 58h-4q-34 -70 -119 -70q-76 0 -119.5 60t-43.5 195q0 132 47 200.5t140 68.5q24 0 40 -3t31 -10v202h119v-524zM216 96q27 0 43 13.5t24 39.5v236q-10 9 -22.5 13t-32.5 4q-40 0 -60 -36t-20 -128q0 -69 16.5 -105.5t51.5 -36.5z" horiz-adv-x="445" unicode="d"/><glyph d="M381 37q-25 -22 -68 -36t-90 -14q-52 0 -89.5 18t-61.5 52t-35.5 82.5t-11.5 110.5q0 135 53.5 199.5t148.5 64.5q32 0 62 -9.5t53.5 -32t38 -60t14.5 -94.5q0 -22 -2.5 -47t-7.5 -54h-243q2 -62 26 -95t77 -33q32 0 58.5 10t40.5 21zM225 412q-38 0 -57 -30.5t-22 -85.5 h138q3 57 -12 86.5t-47 29.5z" horiz-adv-x="428" unicode="e"/><glyph d="M8 500h54v28q0 95 35.5 137.5t101.5 42.5t110 -18l-22 -101q-18 7 -32 8.5t-29 1.5q-29 0 -37 -22.5t-8 -76.5h85v-106h-85v-394h-119v394h-54v106z" horiz-adv-x="267" unicode="f"/><glyph d="M401 0q0 -109 -50 -160.5t-139 -51.5q-62 0 -97 9.5t-54 20.5l25 101q22 -9 47.5 -17t60.5 -8q51 0 70.5 27.5t19.5 83.5v27h-3q-14 -20 -37.5 -30t-60.5 -10q-79 0 -118.5 59.5t-39.5 188.5q0 139 54.5 205t155.5 66q54 0 97 -8.5t69 -20.5v-482zM216 94q27 0 42.5 13 t23.5 37v250q-11 5 -24.5 8t-31.5 3q-37 0 -57.5 -36t-20.5 -124q0 -151 68 -151z" horiz-adv-x="443" unicode="g"/><glyph d="M291 0v302q0 54 -12.5 78t-45.5 24q-24 0 -44 -17t-27 -43v-344h-119v700h119v-245h3q20 26 48.5 42t71.5 16q31 0 54 -9t39 -30t24 -56.5t8 -89.5v-328h-119z" horiz-adv-x="449" unicode="h"/><glyph d="M39 0zM53 500h119v-500h-119v500zM39 641q0 30 19 49.5t54 19.5t56 -19t21 -50t-21 -49t-56 -18t-54 18.5t-19 48.5z" horiz-adv-x="225" unicode="i"/><glyph d="M0 0zM54 500h119v-521q0 -91 -31.5 -139t-100.5 -48q-28 0 -57 7v106q43 -4 56.5 24.5t13.5 84.5v486zM39 641q0 30 19 49.5t54 19.5t56 -19t21 -50t-21 -49t-56 -18t-54 18.5t-19 48.5z" horiz-adv-x="225" unicode="j"/><glyph d="M190 207h-28v-207h-119v700h119v-413l24 14l83 199h129l-92 -198l-43 -34l47 -34l102 -234h-134z" horiz-adv-x="412" unicode="k"/><glyph d="M164 162q0 -35 7 -50t23 -15q9 0 18.5 2t21.5 7l11 -96q-12 -8 -41 -15t-59 -7q-50 0 -75 25t-25 85v602h119v-538z" horiz-adv-x="243" unicode="l"/><glyph d="M274 0v291q0 63 -10 87.5t-39 24.5q-24 0 -39.5 -15.5t-23.5 -37.5v-350h-119v500h92l15 -60h3q19 31 47.5 51.5t75.5 20.5q39 0 63.5 -17t38.5 -60q19 36 50 56.5t73 20.5q33 0 56.5 -8.5t38 -29.5t21.5 -57.5t7 -92.5v-324h-119v304q0 51 -9 75t-40 24 q-25 0 -40.5 -14.5t-22.5 -39.5v-349h-119z" horiz-adv-x="663" unicode="m"/><glyph d="M291 0v304q0 55 -13 77t-44 22q-26 0 -45 -16t-27 -40v-347h-119v500h95l14 -58h3q18 29 49 49.5t81 20.5q30 0 53.5 -9t39.5 -29.5t24 -55t8 -85.5v-333h-119z" horiz-adv-x="449" unicode="n"/><glyph d="M25 250q0 133 52 198t145 65q100 0 149 -66t49 -197q0 -134 -52 -198.5t-146 -64.5q-197 0 -197 263zM148 250q0 -75 17 -116t57 -41q38 0 56.5 35.5t18.5 121.5q0 77 -17 117t-58 40q-35 0 -54.5 -35.5t-19.5 -121.5z" horiz-adv-x="445" unicode="o"/><glyph d="M43 500h89l12 -57h3q23 36 51.5 52.5t70.5 16.5q76 0 114.5 -57.5t38.5 -191.5t-48 -205.5t-139 -71.5q-24 0 -41 4t-32 13v-203h-119v700zM162 112q10 -10 22.5 -15t32.5 -5q40 0 61 39.5t21 134.5q0 71 -16 105.5t-53 34.5q-50 0 -68 -59v-235z" horiz-adv-x="447" unicode="p"/><glyph d="M401 -200h-119v235h-4q-14 -22 -36.5 -35.5t-60.5 -13.5q-74 0 -115 63t-41 191q0 134 57 202.5t162 68.5q45 0 88.5 -9t68.5 -20v-682zM282 393q-21 12 -56 12q-39 0 -58.5 -37.5t-19.5 -122.5q0 -153 68 -153q27 0 42.5 13.5t23.5 38.5v249z" horiz-adv-x="443" unicode="q"/><glyph d="M279 382q-24 9 -44 9q-27 0 -46.5 -15t-26.5 -42v-334h-119v500h91l14 -60h4q13 33 37.5 51.5t56.5 18.5q24 0 47 -10z" horiz-adv-x="293" unicode="r"/><glyph d="M211 133q0 21 -13.5 35.5t-34.5 27t-44.5 25.5t-44.5 32t-34.5 46t-13.5 68q0 70 38 108t112 38q44 0 83 -9.5t62 -23.5l-28 -92q-19 8 -46 15.5t-53 7.5q-49 0 -49 -41q0 -19 13.5 -31.5t34.5 -24.5t44.5 -25t44.5 -32.5t34.5 -47.5t13.5 -69q0 -69 -42 -111t-125 -42 q-41 0 -80.5 10t-63.5 26l33 96q21 -12 48.5 -21t57.5 -9q23 0 38 10.5t15 33.5z" horiz-adv-x="350" unicode="s"/><glyph d="M4 500h55v94l119 37v-131h97v-106h-97v-218q0 -43 8.5 -61t30.5 -18q15 0 27 3t26 9l15 -95q-22 -11 -51 -18.5t-61 -7.5q-57 0 -85.5 33t-28.5 111v262h-55v106z" horiz-adv-x="291" unicode="t"/><glyph d="M158 500v-299q0 -59 11 -82t40 -23q28 0 47 20.5t27 49.5v334h119v-348q0 -41 3 -80.5t11 -71.5h-90l-21 68h-3q-19 -35 -51.5 -58t-80.5 -23q-31 0 -55 8.5t-41 29.5t-26 57.5t-9 92.5v325h119z" horiz-adv-x="446" unicode="u"/><glyph d="M195 239l12 -79h4l11 80l62 260h128l-168 -505h-80l-177 505h139z" horiz-adv-x="399" unicode="v"/><glyph d="M352 500l70 -256l12 -83h4l10 84l47 255h108l-123 -505h-94l-75 279l-8 64h-6l-7 -66l-72 -277h-97l-128 505h129l54 -251l9 -89h4l13 90l61 250h89z" horiz-adv-x="596" unicode="w"/><glyph d="M133 256l-119 244h140l51 -118l19 -64l21 64l52 118h129l-120 -240l128 -260h-135l-61 130l-22 71l-23 -71l-61 -130h-128z" horiz-adv-x="439" unicode="x"/><glyph d="M203 219l13 -78h5l9 79l58 280h122l-125 -451q-17 -59 -32 -106t-32 -80t-38.5 -50.5t-51.5 -17.5q-21 0 -40.5 3.5t-33.5 11.5l20 102q13 -5 26.5 -4.5t25 10t20.5 29.5t15 53l-174 500h143z" horiz-adv-x="400" unicode="y"/><glyph d="M24 106l162 245l44 43h-206v106h331v-106l-160 -249l-43 -39h203v-106h-331v106z" horiz-adv-x="381" unicode="z"/><glyph d="M98 98q0 51 -17 70t-49 19v96q32 0 49 20.5t17 64.5v214q0 53 20.5 86t70.5 33h107v-102h-41q-23 0 -33 -14t-10 -46v-203q0 -44 -17 -66.5t-40 -27.5v-10q23 -4 40 -30t17 -68v-202q0 -31 9.5 -45.5t34.5 -14.5h40v-102h-107q-91 0 -91 118v210z" horiz-adv-x="313" unicode="{"/><glyph d="M45 700h98v-830h-98v830z" horiz-adv-x="188" unicode="|"/><glyph d="M215 373q0 -51 17 -70t49 -19v-96q-32 0 -49 -20.5t-17 -64.5v-215q0 -54 -21.5 -86t-72.5 -32h-104v102h41q23 0 33 14t10 46v203q0 44 17 66.5t40 27.5v10q-23 4 -40 30t-17 68v202q0 31 -9.5 45.5t-34.5 14.5h-40v102h107q91 0 91 -117v-211z" horiz-adv-x="313" unicode="}"/><glyph d="M23 378q39 38 71 52.5t59 14.5q24 0 45 -8t40 -18t37.5 -18t38.5 -8q15 0 30.5 6.5t32.5 21.5l44 -103q-30 -27 -55 -37.5t-47 -10.5q-23 0 -43.5 8.5t-40 19t-39 19.5t-40.5 9q-20 0 -42.5 -10.5t-49.5 -37.5z" horiz-adv-x="444" unicode="~"/><glyph d="M167 -200h-123v329l23 162h76l24 -162v-329zM34 434q0 37 19.5 56t51.5 19q35 0 54 -19t19 -56q0 -36 -19.5 -56t-53.5 -20q-33 0 -52 20t-19 56z" horiz-adv-x="250" unicode="¡"/><glyph d="M414 28q-14 -11 -33.5 -19.5t-41.5 -13.5v-95h-112v90q-43 7 -73 28.5t-48.5 55.5t-27 78.5t-8.5 97.5q0 110 40.5 176.5t116.5 82.5v91h112v-91q43 -7 70 -24l-25 -96q-12 5 -26.5 8.5t-28.5 5.5v-307q20 3 35 9t26 13zM252 401q-32 -11 -48.5 -47.5t-16.5 -103.5 q0 -58 15.5 -97t49.5 -53v301z" unicode="¢"/><glyph d="M44 392h60q-12 26 -21 58t-9 78q0 48 14 83t38.5 58t58.5 34t75 11q51 0 92.5 -10t73.5 -27l-38 -103q-17 10 -44.5 18.5t-65.5 8.5t-59.5 -23t-21.5 -71q0 -35 10.5 -61.5t24.5 -53.5h117v-100h-83q2 -10 3 -19.5t1 -20.5q0 -29 -9 -63t-26 -55l-45 -35v-6l66 16h183 v-109h-395v109h2q25 1 45 12t33 29t20 41t7 48q0 29 -6 53h-101v100z" unicode="£"/><glyph d="M55 607l71 -70l17 -33q18 14 42.5 20.5t51.5 6.5q26 0 52 -7t44 -19l17 32l70 70l71 -73l-70 -70l-34 -15q25 -37 25 -93q0 -27 -6.5 -50.5t-18.5 -40.5l34 -14l70 -71l-71 -72l-70 69l-16 33q-17 -12 -44 -19t-53 -7q-27 0 -51.5 6.5t-42.5 19.5l-17 -33l-71 -69l-69 72 l69 71l33 16q-11 18 -17 40t-6 49t6.5 50t18.5 43l-35 15l-69 70zM164 357q0 -33 20.5 -55t53.5 -22t53.5 22t20.5 55q0 32 -20.5 55t-53.5 23t-53.5 -23t-20.5 -55z" unicode="¤"/><glyph d="M66 336h77l-155 364h150l97 -265l10 -76h5l11 78l95 263h135l-157 -364h78v-79h-110v-58h110v-79h-110v-120h-126v120h-110v79h110v58h-110v79z" unicode="¥"/><glyph d="M45 213h98v-343h-98v343zM143 357h-98v343h98v-343z" horiz-adv-x="188" unicode="¦"/><glyph d="M121 481q-23 17 -38 41t-15 66q0 54 36.5 90t114.5 36q48 0 93 -9.5t67 -21.5l-30 -99q-21 10 -51 17t-56 7q-30 0 -42.5 -11.5t-12.5 -26.5q0 -19 16 -30t40.5 -20t53 -19.5t53 -29t40.5 -48t16 -76.5q0 -31 -12.5 -61.5t-34.5 -53.5l-37 -14q23 -16 38 -40.5t15 -65.5 q0 -61 -41 -93.5t-114 -32.5q-56 0 -95.5 11t-65.5 27l31 96q20 -11 47.5 -19.5t61.5 -8.5q30 0 43.5 10t13.5 31q0 19 -16 29.5t-40.5 20t-52.5 20.5t-52.5 29.5t-40.5 47t-16 73.5q0 31 12.5 61t35.5 53zM248 269q17 12 28 32.5t11 43.5q0 34 -24.5 50.5t-67.5 33.5 q-17 -12 -27.5 -30.5t-10.5 -43.5q0 -33 24.5 -51.5t66.5 -34.5z" horiz-adv-x="444" unicode="§"/><glyph d="M60 651q0 32 17.5 50t46.5 18q28 0 45 -18t17 -50q0 -30 -17 -47.5t-45 -17.5q-29 0 -46.5 17.5t-17.5 47.5zM246 651q0 32 17 50t46 18t46 -18t17 -50q0 -30 -17 -47.5t-46 -17.5t-46 17.5t-17 47.5z" horiz-adv-x="432" unicode="¨"/><glyph d="M51 298q0 72 24 129.5t66 98t99 62t123 21.5q65 0 122 -21.5t99 -62t66 -98t24 -129.5t-24 -129.5t-66 -98t-99 -62t-122 -21.5q-72 0 -130 21.5t-98.5 62t-62 98t-21.5 129.5zM137 298q0 -54 16.5 -96.5t46.5 -72.5t71.5 -46t91.5 -16q49 0 90.5 16t71.5 46t46.5 72.5 t16.5 96.5t-16.5 96.5t-46.5 72.5t-71.5 46t-90.5 16q-50 0 -91.5 -16t-71.5 -46t-46.5 -72.5t-16.5 -96.5zM471 161q-19 -12 -48 -19.5t-62 -7.5q-69 0 -106 44.5t-37 119.5q0 78 39 121t104 43q32 0 56.5 -7.5t47.5 -20.5l-28 -77q-15 8 -28 10.5t-24 2.5q-25 0 -38.5 -17 t-13.5 -55q0 -72 58 -72q29 0 54 13z" horiz-adv-x="725" unicode="©"/><glyph d="M45 675q22 14 62 23.5t91 9.5q66 0 90.5 -27.5t24.5 -84.5q0 -34 -1 -66.5t-1 -62.5q0 -24 1 -45.5t5 -41.5h-88l-13 44h-3q-10 -17 -30.5 -32.5t-55.5 -15.5q-46 0 -72 27.5t-26 71.5q0 33 14.5 55t39.5 35t58 17.5t69 2.5q2 26 -5.5 38t-35.5 12q-32 0 -58 -7t-44 -15z M210 526q-33 4 -55.5 -3.5t-22.5 -34.5q0 -16 8.5 -25.5t21.5 -9.5q23 0 33 9t15 19v45z" horiz-adv-x="347" unicode="ª"/><glyph d="M184 261l125 216l68 -45l-69 -133l-38 -39l38 -35l74 -131l-68 -46zM22 259l131 230l76 -51l-76 -137l-39 -41l39 -36l80 -135l-75 -51z" horiz-adv-x="405" unicode="«"/><glyph d="M40 409h368v-223h-112v117h-256v106z" horiz-adv-x="444" unicode="¬"/><glyph d="M45 344h208v-114h-208v114z" horiz-adv-x="298" unicode="­"/><glyph d="M54 483q0 58 19.5 103.5t53 76.5t77.5 47t94 16q51 0 95 -16t77 -47t52 -76.5t19 -103.5t-19.5 -103.5t-52.5 -76.5t-77.5 -47t-93.5 -16q-51 0 -95.5 16t-77.5 47t-52 76.5t-19 103.5zM136 483q0 -42 13 -73t35.5 -51.5t51.5 -30.5t62 -10q34 0 63.5 10t51.5 30t34 51.5 t12 73.5t-13 73t-35 51.5t-51 31t-62 10.5q-73 0 -117.5 -44t-44.5 -122zM209 595q14 4 39 6.5t47 2.5q36 0 62 -15t26 -52q0 -27 -17.5 -42t-43.5 -17l24 -12l56 -94h-53l-54 90l-41 13v-103h-45v223zM286 565q-10 0 -18.5 -0.5t-13.5 -3.5v-60h29q26 0 39 7.5t13 26.5 q0 30 -49 30z" horiz-adv-x="595" unicode="®"/><glyph d="M60 658h272v-91h-272v91z" horiz-adv-x="392" unicode="¯"/><glyph d="M44 548q0 37 10.5 68t29 52.5t44.5 33.5t57 12q64 0 103.5 -43t39.5 -123q0 -78 -39.5 -121t-103.5 -43q-63 0 -102 43t-39 121zM134 548q0 -33 14 -55.5t38 -22.5q23 0 37.5 22.5t14.5 55.5q0 34 -14.5 57t-37.5 23q-24 0 -38 -22.5t-14 -57.5z" horiz-adv-x="364" unicode="°"/><glyph d="M38 500h129v143h110v-143h129v-106h-129v-94h-110v94h-129v106zM38 252h368v-106h-368v106z" horiz-adv-x="444" unicode="±"/><glyph d="M46 380zM300 684q0 -30 -7.5 -56.5t-19.5 -50t-28 -44.5t-33 -40l-39 -25v-4l49 11h89v-95h-265v67q23 18 49.5 43.5t49 54t37 58t14.5 57.5q0 51 -46 51q-22 0 -41 -6.5t-33 -15.5l-30 83q29 20 63 27.5t63 7.5q60 0 94 -31.5t34 -91.5z" horiz-adv-x="353" unicode="²"/><glyph d="M50 373zM145 464q36 0 50.5 15t14.5 39q0 23 -15.5 36.5t-55.5 13.5h-39v38l60 81l38 28l-50 -6h-93v91h240v-60l-70 -94l-30 -19v-4l27 3q42 -2 66.5 -31.5t24.5 -83.5q0 -36 -12.5 -62t-33.5 -43t-48 -25t-57 -8q-33 0 -62 6.5t-50 17.5l21 86q37 -19 74 -19z" horiz-adv-x="353" unicode="³"/><glyph d="M102 720h119v-30l-94 -124h-67z" horiz-adv-x="281" unicode="´"/><glyph d="M306 700h97v-830h-97v830zM147 294q-28 0 -51.5 15.5t-40 42.5t-25.5 64t-9 81t11 81t31.5 64t49.5 42.5t64 15.5h67v-830h-97v424z" horiz-adv-x="448" unicode="¶"/><glyph d="M34 239zM34 315q0 37 19.5 56t51.5 19q35 0 54 -19t19 -56q0 -36 -19.5 -56t-53.5 -20q-33 0 -52 20t-19 56z" horiz-adv-x="212" unicode="·"/><glyph d="M171 -43q34 -4 54 -21.5t20 -53.5q0 -29 -16.5 -48.5t-42.5 -30.5t-59 -13t-67 6l7 56q36 -6 52.5 -1t16.5 22q0 28 -70 32l49 95h76z" horiz-adv-x="305" unicode="¸"/><glyph d="M36 380zM65 475h78v168l9 46l-26 -32l-46 -31l-44 69l131 112h82v-332h70v-95h-254v95z" horiz-adv-x="353" unicode="¹"/><glyph d="M25 542q0 46 11 78t31 52.5t47.5 30t60.5 9.5t60.5 -8.5t47.5 -28.5t31.5 -52.5t11.5 -80.5t-11.5 -80.5t-31.5 -52.5t-47.5 -28.5t-60.5 -8.5t-60.5 8.5t-47.5 28.5t-31 52.5t-11 80.5zM131 542q0 -48 10.5 -67.5t33.5 -19.5q12 0 20.5 3.5t14 13.5t8 27t2.5 43 q0 51 -11 69t-34 18t-33.5 -18t-10.5 -69z" horiz-adv-x="350" unicode="º"/><glyph d="M220 266l-125 -216l-68 43l70 135l37 39l-37 35l-74 132l67 45zM383 268l-131 -230l-76 49l74 139l40 41l-40 36l-79 135l75 51z" horiz-adv-x="404" unicode="»"/><glyph d="M32 0zM712 80h-61v-80h-95v80h-171v64l177 281h89v-259h61v-86zM556 250l7 55h-5l-18 -51l-38 -65l-31 -30l43 7h42v84zM503 715l81 -39l-342 -690l-83 41zM139 544l9 46l-26 -33l-45 -31l-45 70l131 111h81v-427h-105v264z" horiz-adv-x="749" unicode="¼"/><glyph d="M31 0zM503 715l81 -39l-342 -690l-83 41zM721 304q0 -30 -7.5 -56.5t-19.5 -50t-28 -44.5t-33 -40l-39 -25v-4l49 11h89v-95h-265v67q23 18 49.5 43.5t49 54t37 58t14.5 57.5q0 51 -46 51q-22 0 -41 -6.5t-33 -15.5l-30 83q29 20 63 27.5t63 7.5q60 0 94 -31.5t34 -91.5z M138 544l9 46l-26 -33l-45 -31l-45 70l131 111h81v-427h-105v264z" horiz-adv-x="770" unicode="½"/><glyph d="M38 0zM521 715l81 -39l-342 -690l-83 41zM133 364q36 0 50.5 15t14.5 39q0 23 -15.5 36.5t-55.5 13.5h-39v38l60 81l38 28l-50 -6h-93v91h240v-60l-70 -94l-30 -19v-4l27 3q42 -2 66.5 -31.5t24.5 -83.5q0 -36 -12.5 -62t-33.5 -43t-48 -25t-57 -8q-33 0 -62 6.5 t-50 17.5l21 86q37 -19 74 -19zM729 80h-61v-80h-95v80h-171v64l177 281h89v-259h61v-86zM573 250l7 55h-5l-18 -51l-38 -65l-31 -30l43 7h42v84z" horiz-adv-x="766" unicode="¾"/><glyph d="M271 293q4 -50 -4.5 -86t-22.5 -63t-32 -47.5t-34 -39.5t-26.5 -39.5t-10.5 -47.5q0 -33 16.5 -55t54.5 -22q26 0 56 10.5t51 27.5l45 -91q-31 -23 -73 -37.5t-101 -14.5q-80 0 -126 45t-46 122q0 47 11 79t27.5 56t36 43t36 41t28 50t11.5 69h103zM145 434q0 37 19.5 56 t51.5 19q35 0 54 -19t19 -56q0 -36 -19.5 -56t-53.5 -20q-33 0 -52 20t-19 56z" horiz-adv-x="383" unicode="¿"/><glyph d="M0 0zM328 158h-165l-41 -158h-125l203 705h99l204 -705h-132zM190 262h116l-40 163l-16 110h-4l-17 -111zM334 752h-94l-130 88v30h142z" horiz-adv-x="501" unicode="À"/><glyph d="M0 0zM328 158h-165l-41 -158h-125l203 705h99l204 -705h-132zM190 262h116l-40 163l-16 110h-4l-17 -111zM249 870h143v-30l-132 -88h-93z" horiz-adv-x="501" unicode="Á"/><glyph d="M0 0zM328 158h-165l-41 -158h-125l203 705h99l204 -705h-132zM190 262h116l-40 163l-16 110h-4l-17 -111zM209 870h87l104 -93v-39h-85l-47 41l-17 34l-18 -33l-50 -42h-83v40z" horiz-adv-x="501" unicode="Â"/><glyph d="M0 0zM328 158h-165l-41 -158h-125l203 705h99l204 -705h-132zM190 262h116l-40 163l-16 110h-4l-17 -111zM82 796q29 37 56 50.5t53 13.5q19 0 38 -5.5t37 -11.5l34.5 -11.5t32.5 -5.5q14 0 27 5.5t25 19.5l27 -63q-26 -29 -49.5 -39.5t-46.5 -10.5q-19 0 -37.5 5.5 t-36 11.5t-34.5 11.5t-34 5.5t-33 -7t-33 -27z" horiz-adv-x="501" unicode="Ã"/><glyph d="M0 0zM328 158h-165l-41 -158h-125l203 705h99l204 -705h-132zM190 262h116l-40 163l-16 110h-4l-17 -111zM94 798q0 26 15.5 42t53.5 16q35 0 50.5 -16t15.5 -42t-15.5 -41.5t-50.5 -15.5q-38 0 -53.5 15.5t-15.5 41.5zM276 798q0 26 15.5 42t51.5 16q37 0 52.5 -16 t15.5 -42t-15.5 -41.5t-52.5 -15.5q-36 0 -51.5 15.5t-15.5 41.5z" horiz-adv-x="501" unicode="Ä"/><glyph d="M-3 0l199 691q-31 10 -44 30.5t-13 49.5q0 18 5 34.5t18 29t34 19.5t54 7q61 0 86.5 -24t25.5 -66q0 -27 -13.5 -49t-45.5 -32l200 -690h-132l-43 158h-165l-41 -158h-125zM190 262h116l-40 163l-16 110h-4l-17 -111zM214 771q0 -31 36 -31q21 0 29 7.5t8 23.5 q0 17 -8.5 25.5t-28.5 8.5q-36 0 -36 -34z" horiz-adv-x="501" unicode="Å"/><glyph d="M0 0zM326 522l-26 -97l-65 -148h96v245h-5zM331 173h-144l-79 -173h-132l350 700h355v-116h-224v-172h203v-116h-203v-180h228v-116h-354v173z" horiz-adv-x="717" unicode="Æ"/><glyph d="M442 28q-22 -18 -55 -27.5t-68 -12.5l-14 -31q34 -4 54 -21.5t20 -53.5q0 -23 -10.5 -40t-28.5 -28.5t-42 -17.5t-50 -6q-27 0 -54 6l7 48q42 -4 55.5 5.5t13.5 23.5q0 28 -70 32l43 84q-46 6 -85 29t-67.5 66t-45 109t-16.5 158q0 106 22.5 176t59 111.5t83.5 58.5 t95 17q49 0 85.5 -8t59.5 -18l-25 -111q-19 10 -44.5 15.5t-60.5 5.5q-69 0 -106 -60t-37 -188q0 -55 8.5 -100.5t27 -78.5t47 -51t68.5 -18q35 0 60 9.5t45 22.5z" horiz-adv-x="457" unicode="Ç"/><glyph d="M45 0zM45 700h350v-116h-224v-172h203v-116h-203v-180h228v-116h-354v700zM297 752h-94l-130 88v30h142z" horiz-adv-x="430" unicode="È"/><glyph d="M45 0zM45 700h350v-116h-224v-172h203v-116h-203v-180h228v-116h-354v700zM234 870h143v-30l-132 -88h-93z" horiz-adv-x="430" unicode="É"/><glyph d="M45 0zM45 700h350v-116h-224v-172h203v-116h-203v-180h228v-116h-354v700zM176 870h87l104 -93v-39h-85l-47 41l-17 34l-18 -33l-50 -42h-83v40z" horiz-adv-x="430" unicode="Ê"/><glyph d="M45 0zM45 700h350v-116h-224v-172h203v-116h-203v-180h228v-116h-354v700zM60 798q0 26 15.5 42t53.5 16q35 0 50.5 -16t15.5 -42t-15.5 -41.5t-50.5 -15.5q-38 0 -53.5 15.5t-15.5 41.5zM242 798q0 26 15.5 42t51.5 16q37 0 52.5 -16t15.5 -42t-15.5 -41.5t-52.5 -15.5 q-36 0 -51.5 15.5t-15.5 41.5z" horiz-adv-x="430" unicode="Ë"/><glyph d="M0 0zM56 700h126v-700h-126v700zM203 752h-94l-130 88v30h142z" horiz-adv-x="238" unicode="Ì"/><glyph d="M37 0zM56 700h126v-700h-126v700zM119 870h143v-30l-132 -88h-93z" horiz-adv-x="238" unicode="Í"/><glyph d="M0 0zM56 700h126v-700h-126v700zM79 870h87l104 -93v-39h-85l-47 41l-17 34l-18 -33l-50 -42h-83v40z" horiz-adv-x="238" unicode="Î"/><glyph d="M0 0zM56 700h126v-700h-126v700zM-38 798q0 26 15.5 42t53.5 16q35 0 50.5 -16t15.5 -42t-15.5 -41.5t-50.5 -15.5q-38 0 -53.5 15.5t-15.5 41.5zM144 798q0 26 15.5 42t51.5 16q37 0 52.5 -16t15.5 -42t-15.5 -41.5t-52.5 -15.5q-36 0 -51.5 15.5t-15.5 41.5z" horiz-adv-x="238" unicode="Ï"/><glyph d="M-3 401h68v299q18 3 40.5 4.5t46 3t45.5 2t39 0.5q83 0 138.5 -25.5t89 -72t47.5 -111.5t14 -145q0 -73 -13.5 -139.5t-47.5 -117t-92 -80.5t-146 -30q-13 0 -35 1t-46 2.5t-46 3t-34 3.5v323h-68v79zM191 401h108v-79h-108v-213q3 -1 10.5 -1.5t16 -1t16 -1t10.5 -0.5 q45 0 74 21t45.5 56t23 80.5t6.5 95.5q0 46 -5.5 89t-21 75.5t-44 52t-73.5 19.5q-16 0 -32.5 -0.5t-25.5 -2.5v-190z" horiz-adv-x="555" unicode="Ð"/><glyph d="M45 0zM199 344l-46 123h-5l16 -121v-346h-119v705h97l201 -352l43 -121h6l-16 119v349h119v-705h-97zM104 796q29 37 56 50.5t53 13.5q19 0 38 -5.5t37 -11.5l34.5 -11.5t32.5 -5.5q14 0 27 5.5t25 19.5l27 -63q-26 -29 -49.5 -39.5t-46.5 -10.5q-19 0 -37.5 5.5 t-36 11.5t-34.5 11.5t-34 5.5t-33 -7t-33 -27z" horiz-adv-x="540" unicode="Ñ"/><glyph d="M29 0zM29 350q0 178 61 271t186 93q65 0 112 -25.5t77 -73t44.5 -115t14.5 -150.5q0 -178 -62.5 -271t-185.5 -93q-66 0 -112.5 25.5t-76.5 73t-44 115t-14 150.5zM161 350q0 -53 6 -98.5t20 -78.5t35.5 -52t53.5 -19q58 0 87 59t29 189q0 51 -6 96.5t-19.5 79t-35.5 53 t-55 19.5q-115 0 -115 -248zM344 752h-94l-130 88v30h142z" horiz-adv-x="553" unicode="Ò"/><glyph d="M29 0zM29 350q0 178 61 271t186 93q65 0 112 -25.5t77 -73t44.5 -115t14.5 -150.5q0 -178 -62.5 -271t-185.5 -93q-66 0 -112.5 25.5t-76.5 73t-44 115t-14 150.5zM161 350q0 -53 6 -98.5t20 -78.5t35.5 -52t53.5 -19q58 0 87 59t29 189q0 51 -6 96.5t-19.5 79t-35.5 53 t-55 19.5q-115 0 -115 -248zM301 870h143v-30l-132 -88h-93z" horiz-adv-x="553" unicode="Ó"/><glyph d="M29 0zM29 350q0 178 61 271t186 93q65 0 112 -25.5t77 -73t44.5 -115t14.5 -150.5q0 -178 -62.5 -271t-185.5 -93q-66 0 -112.5 25.5t-76.5 73t-44 115t-14 150.5zM161 350q0 -53 6 -98.5t20 -78.5t35.5 -52t53.5 -19q58 0 87 59t29 189q0 51 -6 96.5t-19.5 79t-35.5 53 t-55 19.5q-115 0 -115 -248zM234 870h87l104 -93v-39h-85l-47 41l-17 34l-18 -33l-50 -42h-83v40z" horiz-adv-x="553" unicode="Ô"/><glyph d="M29 0zM29 350q0 178 61 271t186 93q65 0 112 -25.5t77 -73t44.5 -115t14.5 -150.5q0 -178 -62.5 -271t-185.5 -93q-66 0 -112.5 25.5t-76.5 73t-44 115t-14 150.5zM161 350q0 -53 6 -98.5t20 -78.5t35.5 -52t53.5 -19q58 0 87 59t29 189q0 51 -6 96.5t-19.5 79t-35.5 53 t-55 19.5q-115 0 -115 -248zM110 796q29 37 56 50.5t53 13.5q19 0 38 -5.5t37 -11.5l34.5 -11.5t32.5 -5.5q14 0 27 5.5t25 19.5l27 -63q-26 -29 -49.5 -39.5t-46.5 -10.5q-19 0 -37.5 5.5t-36 11.5t-34.5 11.5t-34 5.5t-33 -7t-33 -27z" horiz-adv-x="553" unicode="Õ"/><glyph d="M29 0zM29 350q0 178 61 271t186 93q65 0 112 -25.5t77 -73t44.5 -115t14.5 -150.5q0 -178 -62.5 -271t-185.5 -93q-66 0 -112.5 25.5t-76.5 73t-44 115t-14 150.5zM161 350q0 -53 6 -98.5t20 -78.5t35.5 -52t53.5 -19q58 0 87 59t29 189q0 51 -6 96.5t-19.5 79t-35.5 53 t-55 19.5q-115 0 -115 -248zM117 798q0 26 15.5 42t53.5 16q35 0 50.5 -16t15.5 -42t-15.5 -41.5t-50.5 -15.5q-38 0 -53.5 15.5t-15.5 41.5zM299 798q0 26 15.5 42t51.5 16q37 0 52.5 -16t15.5 -42t-15.5 -41.5t-52.5 -15.5q-36 0 -51.5 15.5t-15.5 41.5z" horiz-adv-x="553" unicode="Ö"/><glyph d="M112 541l111 -124l111 124l76 -73l-115 -129l115 -131l-76 -73l-111 124l-112 -125l-77 72l118 133l-116 129z" horiz-adv-x="444" unicode="×"/><glyph d="M88 83q-31 48 -45 115t-14 152q0 178 61 271t186 93q72 0 125 -33l18 34l79 -41l-32 -61q30 -48 44 -114t14 -149q0 -178 -62.5 -271t-185.5 -93q-36 0 -66 8t-55 22l-16 -30l-79 43zM342 567q-26 31 -66 31q-115 0 -115 -248q0 -31 2 -59t6 -54zM213 129q25 -27 63 -27 q58 0 87 59t29 189q0 29 -2 55.5t-6 51.5z" horiz-adv-x="553" unicode="Ø"/><glyph d="M42 0zM354 700h119v-454q0 -136 -55.5 -197t-153.5 -61q-115 0 -168.5 59.5t-53.5 181.5v471h126v-449q0 -82 22 -114.5t73 -32.5q49 0 70 34.5t21 112.5v449zM326 752h-94l-130 88v30h142z" horiz-adv-x="515" unicode="Ù"/><glyph d="M42 0zM354 700h119v-454q0 -136 -55.5 -197t-153.5 -61q-115 0 -168.5 59.5t-53.5 181.5v471h126v-449q0 -82 22 -114.5t73 -32.5q49 0 70 34.5t21 112.5v449zM296 870h143v-30l-132 -88h-93z" horiz-adv-x="515" unicode="Ú"/><glyph d="M42 0zM354 700h119v-454q0 -136 -55.5 -197t-153.5 -61q-115 0 -168.5 59.5t-53.5 181.5v471h126v-449q0 -82 22 -114.5t73 -32.5q49 0 70 34.5t21 112.5v449zM220 870h87l104 -93v-39h-85l-47 41l-17 34l-18 -33l-50 -42h-83v40z" horiz-adv-x="515" unicode="Û"/><glyph d="M42 0zM354 700h119v-454q0 -136 -55.5 -197t-153.5 -61q-115 0 -168.5 59.5t-53.5 181.5v471h126v-449q0 -82 22 -114.5t73 -32.5q49 0 70 34.5t21 112.5v449zM101 798q0 26 15.5 42t53.5 16q35 0 50.5 -16t15.5 -42t-15.5 -41.5t-50.5 -15.5q-38 0 -53.5 15.5 t-15.5 41.5zM283 798q0 26 15.5 42t51.5 16q37 0 52.5 -16t15.5 -42t-15.5 -41.5t-52.5 -15.5q-36 0 -51.5 15.5t-15.5 41.5z" horiz-adv-x="515" unicode="Ü"/><glyph d="M0 0zM184 260l-188 440h150l97 -265l10 -76h5l11 78l95 263h135l-189 -439v-261h-126v260zM265 870h143v-30l-132 -88h-93z" horiz-adv-x="495" unicode="Ý"/><glyph d="M45 700h126v-73q19 1 39 1q46 0 90.5 -8.5t79.5 -33.5t57 -70.5t22 -118.5q0 -65 -18.5 -111t-49.5 -75t-71.5 -42.5t-83.5 -13.5h-13q-9 0 -19 0.5t-19.5 1.5t-13.5 2v-159h-126v700zM222 516q-31 0 -51 -5v-238q6 -2 22.5 -3.5t22.5 -1.5q22 0 42 5.5t35 20.5t24 40 t9 64q0 34 -8.5 56.5t-22.5 36t-33 19.5t-40 6z" horiz-adv-x="477" unicode="Þ"/><glyph d="M63 394h-54v106h54v11q0 54 14 92t39 61t59 33.5t75 10.5q42 0 78 -9.5t62.5 -29t41.5 -48t15 -66.5q0 -35 -15 -58.5t-33.5 -42.5t-33.5 -36t-15 -38q0 -19 12 -32t30.5 -25t40 -25t40 -32t30.5 -45.5t12 -65.5q0 -33 -10 -63.5t-30.5 -53.5t-51 -37t-71.5 -14 q-38 0 -73 9.5t-59 24.5l31 94q20 -11 39.5 -18.5t47.5 -7.5q26 0 42 18t16 44q0 23 -12 38t-30.5 28t-40 25.5t-40 29t-30.5 40.5t-12 59q0 36 15 59t33 41t33 34.5t15 38.5q0 26 -22 42.5t-48 16.5q-36 0 -55.5 -22.5t-19.5 -85.5v-495h-119v394z" horiz-adv-x="535" unicode="ß"/><glyph d="M17 0zM44 470q30 18 75 29t102 11q85 0 118.5 -44t33.5 -125q0 -47 -2.5 -92.5t-3.5 -89t1.5 -84t13.5 -76.5h-97l-19 61h-4q-16 -29 -45 -48t-73 -19q-59 0 -93 39.5t-34 105.5q0 90 64 128t173 32q5 58 -7.5 84t-53.5 26q-30 0 -62 -7t-57 -20zM187 95q27 0 44 13.5 t25 29.5v83q-23 3 -44 1t-37 -9t-25.5 -20.5t-9.5 -34.5q0 -31 12.5 -47t34.5 -16zM259 566h-66l-104 124v30h121z" horiz-adv-x="413" unicode="à"/><glyph d="M17 0zM44 470q30 18 75 29t102 11q85 0 118.5 -44t33.5 -125q0 -47 -2.5 -92.5t-3.5 -89t1.5 -84t13.5 -76.5h-97l-19 61h-4q-16 -29 -45 -48t-73 -19q-59 0 -93 39.5t-34 105.5q0 90 64 128t173 32q5 58 -7.5 84t-53.5 26q-30 0 -62 -7t-57 -20zM187 95q27 0 44 13.5 t25 29.5v83q-23 3 -44 1t-37 -9t-25.5 -20.5t-9.5 -34.5q0 -31 12.5 -47t34.5 -16zM196 720h119v-30l-94 -124h-67z" horiz-adv-x="413" unicode="á"/><glyph d="M17 0zM44 470q30 18 75 29t102 11q85 0 118.5 -44t33.5 -125q0 -47 -2.5 -92.5t-3.5 -89t1.5 -84t13.5 -76.5h-97l-19 61h-4q-16 -29 -45 -48t-73 -19q-59 0 -93 39.5t-34 105.5q0 90 64 128t173 32q5 58 -7.5 84t-53.5 26q-30 0 -62 -7t-57 -20zM187 95q27 0 44 13.5 t25 29.5v83q-23 3 -44 1t-37 -9t-25.5 -20.5t-9.5 -34.5q0 -31 12.5 -47t34.5 -16zM174 732h85l91 -182h-93l-32 66l-13 49l-13 -49l-37 -66h-89z" horiz-adv-x="413" unicode="â"/><glyph d="M17 0zM44 470q30 18 75 29t102 11q85 0 118.5 -44t33.5 -125q0 -47 -2.5 -92.5t-3.5 -89t1.5 -84t13.5 -76.5h-97l-19 61h-4q-16 -29 -45 -48t-73 -19q-59 0 -93 39.5t-34 105.5q0 90 64 128t173 32q5 58 -7.5 84t-53.5 26q-30 0 -62 -7t-57 -20zM187 95q27 0 44 13.5 t25 29.5v83q-23 3 -44 1t-37 -9t-25.5 -20.5t-9.5 -34.5q0 -31 12.5 -47t34.5 -16zM60 656q29 37 54 50.5t46 13.5q18 0 33.5 -6.5t30.5 -15t30 -15t30 -6.5q11 0 23 5t26 18l22 -61q-27 -32 -50.5 -44t-43.5 -12q-18 0 -33.5 6t-30.5 13.5t-30 14t-30 6.5q-13 0 -26 -5.5 t-27 -19.5z" horiz-adv-x="413" unicode="ã"/><glyph d="M17 0zM44 470q30 18 75 29t102 11q85 0 118.5 -44t33.5 -125q0 -47 -2.5 -92.5t-3.5 -89t1.5 -84t13.5 -76.5h-97l-19 61h-4q-16 -29 -45 -48t-73 -19q-59 0 -93 39.5t-34 105.5q0 90 64 128t173 32q5 58 -7.5 84t-53.5 26q-30 0 -62 -7t-57 -20zM187 95q27 0 44 13.5 t25 29.5v83q-23 3 -44 1t-37 -9t-25.5 -20.5t-9.5 -34.5q0 -31 12.5 -47t34.5 -16zM56 651q0 32 17.5 50t46.5 18q28 0 45 -18t17 -50q0 -30 -17 -47.5t-45 -17.5q-29 0 -46.5 17.5t-17.5 47.5zM242 651q0 32 17 50t46 18t46 -18t17 -50q0 -30 -17 -47.5t-46 -17.5t-46 17.5 t-17 47.5z" horiz-adv-x="413" unicode="ä"/><glyph d="M17 0zM44 470q30 18 75 29t102 11q85 0 118.5 -44t33.5 -125q0 -47 -2.5 -92.5t-3.5 -89t1.5 -84t13.5 -76.5h-97l-19 61h-4q-16 -29 -45 -48t-73 -19q-59 0 -93 39.5t-34 105.5q0 90 64 128t173 32q5 58 -7.5 84t-53.5 26q-30 0 -62 -7t-57 -20zM187 95q27 0 44 13.5 t25 29.5v83q-23 3 -44 1t-37 -9t-25.5 -20.5t-9.5 -34.5q0 -31 12.5 -47t34.5 -16zM114 647q0 45 24.5 70t72.5 25q46 0 72 -23.5t26 -71.5q0 -42 -25.5 -67.5t-72.5 -25.5t-72 25t-25 68zM181 647q0 -17 8.5 -25.5t21.5 -8.5q31 0 31 34q0 19 -8.5 27.5t-22.5 8.5 q-13 0 -21.5 -8t-8.5 -28z" horiz-adv-x="413" unicode="å"/><glyph d="M17 0zM257 223q-23 2 -44 0.5t-37.5 -9t-26 -21t-9.5 -35.5q0 -28 12 -44t35 -16q28 0 45 13.5t25 31.5v80zM287 68q-21 -34 -53.5 -55t-87.5 -21q-60 0 -94.5 41t-34.5 106q0 46 16.5 77.5t47 51t74.5 27.5t98 5q1 9 1 16.5v15.5q0 39 -13 56.5t-47 17.5q-31 0 -63 -9 t-57 -23l-31 90q32 21 78 33.5t96 12.5q42 0 68.5 -13t43.5 -41q20 29 52 43.5t72 14.5q32 0 62.5 -9.5t54 -32.5t37.5 -61t14 -95q0 -22 -2.5 -47t-7.5 -53h-241q2 -66 25 -96.5t75 -30.5q31 0 57.5 9.5t40.5 20.5l39 -83q-25 -20 -67 -34.5t-93 -14.5q-109 0 -155 81h-5z M510 295q3 54 -12 85.5t-48 31.5q-38 0 -56 -30t-21 -87h137z" horiz-adv-x="653" unicode="æ"/><glyph d="M338 27q-18 -15 -41 -23.5t-49 -13.5l-15 -33q34 -4 54 -21.5t20 -53.5q0 -23 -10.5 -40t-28.5 -28.5t-42 -17.5t-50 -6q-27 0 -54 6l7 48q42 -4 55.5 5.5t13.5 23.5q0 28 -70 32l43 85q-80 13 -113 82t-33 178q0 131 47 197t138 66q45 0 73.5 -8t50.5 -20l-28 -99 q-18 9 -34.5 13.5t-39.5 4.5q-42 0 -63 -36.5t-21 -117.5q0 -68 21.5 -111t68.5 -43q25 0 42.5 6.5t32.5 16.5z" horiz-adv-x="350" unicode="ç"/><glyph d="M25 0zM381 37q-25 -22 -68 -36t-90 -14q-52 0 -89.5 18t-61.5 52t-35.5 82.5t-11.5 110.5q0 135 53.5 199.5t148.5 64.5q32 0 62 -9.5t53.5 -32t38 -60t14.5 -94.5q0 -22 -2.5 -47t-7.5 -54h-243q2 -62 26 -95t77 -33q32 0 58.5 10t40.5 21zM225 412q-38 0 -57 -30.5 t-22 -85.5h138q3 57 -12 86.5t-47 29.5zM271 566h-66l-104 124v30h121z" horiz-adv-x="428" unicode="è"/><glyph d="M25 0zM381 37q-25 -22 -68 -36t-90 -14q-52 0 -89.5 18t-61.5 52t-35.5 82.5t-11.5 110.5q0 135 53.5 199.5t148.5 64.5q32 0 62 -9.5t53.5 -32t38 -60t14.5 -94.5q0 -22 -2.5 -47t-7.5 -54h-243q2 -62 26 -95t77 -33q32 0 58.5 10t40.5 21zM225 412q-38 0 -57 -30.5 t-22 -85.5h138q3 57 -12 86.5t-47 29.5zM223 720h119v-30l-94 -124h-67z" horiz-adv-x="428" unicode="é"/><glyph d="M25 0zM381 37q-25 -22 -68 -36t-90 -14q-52 0 -89.5 18t-61.5 52t-35.5 82.5t-11.5 110.5q0 135 53.5 199.5t148.5 64.5q32 0 62 -9.5t53.5 -32t38 -60t14.5 -94.5q0 -22 -2.5 -47t-7.5 -54h-243q2 -62 26 -95t77 -33q32 0 58.5 10t40.5 21zM225 412q-38 0 -57 -30.5 t-22 -85.5h138q3 57 -12 86.5t-47 29.5zM179 732h85l91 -182h-93l-32 66l-13 49l-13 -49l-37 -66h-89z" horiz-adv-x="428" unicode="ê"/><glyph d="M25 0zM381 37q-25 -22 -68 -36t-90 -14q-52 0 -89.5 18t-61.5 52t-35.5 82.5t-11.5 110.5q0 135 53.5 199.5t148.5 64.5q32 0 62 -9.5t53.5 -32t38 -60t14.5 -94.5q0 -22 -2.5 -47t-7.5 -54h-243q2 -62 26 -95t77 -33q32 0 58.5 10t40.5 21zM225 412q-38 0 -57 -30.5 t-22 -85.5h138q3 57 -12 86.5t-47 29.5zM65 651q0 32 17.5 50t46.5 18q28 0 45 -18t17 -50q0 -30 -17 -47.5t-45 -17.5q-29 0 -46.5 17.5t-17.5 47.5zM251 651q0 32 17 50t46 18t46 -18t17 -50q0 -30 -17 -47.5t-46 -17.5t-46 17.5t-17 47.5z" horiz-adv-x="428" unicode="ë"/><glyph d="M0 0zM53 500h119v-500h-119v500zM165 566h-66l-104 124v30h121z" horiz-adv-x="225" unicode="ì"/><glyph d="M53 0zM53 500h119v-500h-119v500zM101 720h119v-30l-94 -124h-67z" horiz-adv-x="225" unicode="í"/><glyph d="M0 0zM53 500h119v-500h-119v500zM74 732h85l91 -182h-93l-32 66l-13 49l-13 -49l-37 -66h-89z" horiz-adv-x="225" unicode="î"/><glyph d="M0 0zM53 500h119v-500h-119v500zM-43 651q0 32 17.5 50t46.5 18q28 0 45 -18t17 -50q0 -30 -17 -47.5t-45 -17.5q-29 0 -46.5 17.5t-17.5 47.5zM143 651q0 32 17 50t46 18t46 -18t17 -50q0 -30 -17 -47.5t-46 -17.5t-46 17.5t-17 47.5z" horiz-adv-x="225" unicode="ï"/><glyph d="M142 244q0 -81 24.5 -116.5t64.5 -35.5q19 0 34.5 10t27 32.5t18 58t6.5 87.5q0 6 -0.5 17l-1 22t-1.5 22t-2 17q-13 18 -35.5 26.5t-45.5 8.5q-44 0 -66.5 -39t-22.5 -110zM149 580l48 37q-30 18 -62 29l48 68q21 -7 47 -19q20 -9 40 -22l47 36l40 -50l-37 -29 q9 -9 18 -20q27 -30 47.5 -73t33 -99.5t12.5 -129.5q0 -86 -14.5 -147t-41.5 -100t-65.5 -57t-86.5 -18q-97 0 -146.5 67.5t-49.5 191.5q0 61 14 108t39 79.5t59.5 49.5t75.5 17q29 0 54.5 -9t41.5 -28q-18 70 -63 114l-58 -45z" horiz-adv-x="458" unicode="ð"/><glyph d="M43 0zM291 0v304q0 55 -13 77t-44 22q-26 0 -45 -16t-27 -40v-347h-119v500h95l14 -58h3q18 29 49 49.5t81 20.5q30 0 53.5 -9t39.5 -29.5t24 -55t8 -85.5v-333h-119zM77 656q29 37 54 50.5t46 13.5q18 0 33.5 -6.5t30.5 -15t30 -15t30 -6.5q11 0 23 5t26 18l22 -61 q-27 -32 -50.5 -44t-43.5 -12q-18 0 -33.5 6t-30.5 13.5t-30 14t-30 6.5q-13 0 -26 -5.5t-27 -19.5z" horiz-adv-x="449" unicode="ñ"/><glyph d="M25 0zM25 250q0 133 52 198t145 65q100 0 149 -66t49 -197q0 -134 -52 -198.5t-146 -64.5q-197 0 -197 263zM148 250q0 -75 17 -116t57 -41q38 0 56.5 35.5t18.5 121.5q0 77 -17 117t-58 40q-35 0 -54.5 -35.5t-19.5 -121.5zM271 566h-66l-104 124v30h121z" horiz-adv-x="445" unicode="ò"/><glyph d="M25 0zM25 250q0 133 52 198t145 65q100 0 149 -66t49 -197q0 -134 -52 -198.5t-146 -64.5q-197 0 -197 263zM148 250q0 -75 17 -116t57 -41q38 0 56.5 35.5t18.5 121.5q0 77 -17 117t-58 40q-35 0 -54.5 -35.5t-19.5 -121.5zM224 720h119v-30l-94 -124h-67z" horiz-adv-x="445" unicode="ó"/><glyph d="M25 0zM25 250q0 133 52 198t145 65q100 0 149 -66t49 -197q0 -134 -52 -198.5t-146 -64.5q-197 0 -197 263zM148 250q0 -75 17 -116t57 -41q38 0 56.5 35.5t18.5 121.5q0 77 -17 117t-58 40q-35 0 -54.5 -35.5t-19.5 -121.5zM186 732h85l91 -182h-93l-32 66l-13 49 l-13 -49l-37 -66h-89z" horiz-adv-x="445" unicode="ô"/><glyph d="M25 0zM25 250q0 133 52 198t145 65q100 0 149 -66t49 -197q0 -134 -52 -198.5t-146 -64.5q-197 0 -197 263zM148 250q0 -75 17 -116t57 -41q38 0 56.5 35.5t18.5 121.5q0 77 -17 117t-58 40q-35 0 -54.5 -35.5t-19.5 -121.5zM73 656q29 37 54 50.5t46 13.5 q18 0 33.5 -6.5t30.5 -15t30 -15t30 -6.5q11 0 23 5t26 18l22 -61q-27 -32 -50.5 -44t-43.5 -12q-18 0 -33.5 6t-30.5 13.5t-30 14t-30 6.5q-13 0 -26 -5.5t-27 -19.5z" horiz-adv-x="445" unicode="õ"/><glyph d="M25 0zM25 250q0 133 52 198t145 65q100 0 149 -66t49 -197q0 -134 -52 -198.5t-146 -64.5q-197 0 -197 263zM148 250q0 -75 17 -116t57 -41q38 0 56.5 35.5t18.5 121.5q0 77 -17 117t-58 40q-35 0 -54.5 -35.5t-19.5 -121.5zM64 651q0 32 17.5 50t46.5 18q28 0 45 -18 t17 -50q0 -30 -17 -47.5t-45 -17.5q-29 0 -46.5 17.5t-17.5 47.5zM250 651q0 32 17 50t46 18t46 -18t17 -50q0 -30 -17 -47.5t-46 -17.5t-46 17.5t-17 47.5z" horiz-adv-x="445" unicode="ö"/><glyph d="M38 393h368v-107h-368v107zM151 523q0 37 19.5 56t51.5 19q35 0 54 -19t19 -56q0 -36 -19.5 -56t-53.5 -20q-33 0 -52 20t-19 56zM151 157q0 37 19.5 56t51.5 19q35 0 54 -19t19 -56q0 -36 -19.5 -56t-53.5 -20q-33 0 -52 20t-19 56z" horiz-adv-x="444" unicode="÷"/><glyph d="M62 78q-34 64 -34 172q0 134 52 199t146 65q49 0 87 -18l18 30l79 -49l-27 -46q40 -65 40 -181q0 -134 -51.5 -199t-145.5 -65q-28 0 -51 5.5t-43 15.5l-19 -31l-81 51zM179 114q18 -22 47 -22q38 0 57 35t19 123q0 19 -1 35.5t-3 31.5zM269 390q-17 18 -43 18 q-37 0 -57 -36t-20 -122q0 -33 3 -60z" horiz-adv-x="448" unicode="ø"/><glyph d="M39 0zM158 500v-299q0 -59 11 -82t40 -23q28 0 47 20.5t27 49.5v334h119v-348q0 -41 3 -80.5t11 -71.5h-90l-21 68h-3q-19 -35 -51.5 -58t-80.5 -23q-31 0 -55 8.5t-41 29.5t-26 57.5t-9 92.5v325h119zM265 566h-66l-104 124v30h121z" horiz-adv-x="446" unicode="ù"/><glyph d="M39 0zM158 500v-299q0 -59 11 -82t40 -23q28 0 47 20.5t27 49.5v334h119v-348q0 -41 3 -80.5t11 -71.5h-90l-21 68h-3q-19 -35 -51.5 -58t-80.5 -23q-31 0 -55 8.5t-41 29.5t-26 57.5t-9 92.5v325h119zM212 720h119v-30l-94 -124h-67z" horiz-adv-x="446" unicode="ú"/><glyph d="M39 0zM158 500v-299q0 -59 11 -82t40 -23q28 0 47 20.5t27 49.5v334h119v-348q0 -41 3 -80.5t11 -71.5h-90l-21 68h-3q-19 -35 -51.5 -58t-80.5 -23q-31 0 -55 8.5t-41 29.5t-26 57.5t-9 92.5v325h119zM184 732h85l91 -182h-93l-32 66l-13 49l-13 -49l-37 -66h-89z" horiz-adv-x="446" unicode="û"/><glyph d="M39 0zM158 500v-299q0 -59 11 -82t40 -23q28 0 47 20.5t27 49.5v334h119v-348q0 -41 3 -80.5t11 -71.5h-90l-21 68h-3q-19 -35 -51.5 -58t-80.5 -23q-31 0 -55 8.5t-41 29.5t-26 57.5t-9 92.5v325h119zM63 651q0 32 17.5 50t46.5 18q28 0 45 -18t17 -50q0 -30 -17 -47.5 t-45 -17.5q-29 0 -46.5 17.5t-17.5 47.5zM249 651q0 32 17 50t46 18t46 -18t17 -50q0 -30 -17 -47.5t-46 -17.5t-46 17.5t-17 47.5z" horiz-adv-x="446" unicode="ü"/><glyph d="M0 0zM203 219l13 -78h5l9 79l58 280h122l-125 -451q-17 -59 -32 -106t-32 -80t-38.5 -50.5t-51.5 -17.5q-21 0 -40.5 3.5t-33.5 11.5l20 102q13 -5 26.5 -4.5t25 10t20.5 29.5t15 53l-174 500h143zM205 720h119v-30l-94 -124h-67z" horiz-adv-x="400" unicode="ý"/><glyph d="M43 700h119v-237h3q17 23 41.5 37t62.5 14q76 0 114 -59.5t38 -191.5q0 -64 -12 -115.5t-35.5 -87.5t-58.5 -55t-81 -19q-24 0 -41 4t-31 12v-202h-119v900zM230 408q-26 0 -42.5 -15t-25.5 -42v-240q10 -9 22.5 -14t33.5 -5q40 0 60 39.5t20 134.5q0 70 -15.5 106 t-52.5 36z" horiz-adv-x="446" unicode="þ"/><glyph d="M0 0zM203 219l13 -78h5l9 79l58 280h122l-125 -451q-17 -59 -32 -106t-32 -80t-38.5 -50.5t-51.5 -17.5q-21 0 -40.5 3.5t-33.5 11.5l20 102q13 -5 26.5 -4.5t25 10t20.5 29.5t15 53l-174 500h143zM48 651q0 32 17.5 50t46.5 18q28 0 45 -18t17 -50q0 -30 -17 -47.5 t-45 -17.5q-29 0 -46.5 17.5t-17.5 47.5zM234 651q0 32 17 50t46 18t46 -18t17 -50q0 -30 -17 -47.5t-46 -17.5t-46 17.5t-17 47.5z" horiz-adv-x="400" unicode="ÿ"/><glyph d="M0 0zM328 158h-165l-41 -158h-125l203 705h99l204 -705h-132zM190 262h116l-40 163l-16 110h-4l-17 -111zM105 856h289v-89h-289v89z" horiz-adv-x="501" unicode="Ā"/><glyph d="M17 0zM44 470q30 18 75 29t102 11q85 0 118.5 -44t33.5 -125q0 -47 -2.5 -92.5t-3.5 -89t1.5 -84t13.5 -76.5h-97l-19 61h-4q-16 -29 -45 -48t-73 -19q-59 0 -93 39.5t-34 105.5q0 90 64 128t173 32q5 58 -7.5 84t-53.5 26q-30 0 -62 -7t-57 -20zM187 95q27 0 44 13.5 t25 29.5v83q-23 3 -44 1t-37 -9t-25.5 -20.5t-9.5 -34.5q0 -31 12.5 -47t34.5 -16zM72 658h272v-91h-272v91z" horiz-adv-x="413" unicode="ā"/><glyph d="M0 0zM328 158h-165l-41 -158h-125l203 705h99l204 -705h-132zM190 262h116l-40 163l-16 110h-4l-17 -111zM135 875q17 -26 49 -40.5t70 -14.5q40 0 68.5 15t45.5 40l44 -31q-11 -30 -28 -51.5t-38.5 -35.5t-45 -20.5t-47.5 -6.5q-22 0 -45.5 6t-46 19t-41.5 34t-31 51z" horiz-adv-x="501" unicode="Ă"/><glyph d="M17 0zM44 470q30 18 75 29t102 11q85 0 118.5 -44t33.5 -125q0 -47 -2.5 -92.5t-3.5 -89t1.5 -84t13.5 -76.5h-97l-19 61h-4q-16 -29 -45 -48t-73 -19q-59 0 -93 39.5t-34 105.5q0 90 64 128t173 32q5 58 -7.5 84t-53.5 26q-30 0 -62 -7t-57 -20zM187 95q27 0 44 13.5 t25 29.5v83q-23 3 -44 1t-37 -9t-25.5 -20.5t-9.5 -34.5q0 -31 12.5 -47t34.5 -16zM118 719q14 -30 39 -45t54 -15t52 15t34 45l55 -26q-2 -26 -13.5 -49t-30 -41t-43.5 -28.5t-55 -10.5q-57 0 -97 33t-51 92z" horiz-adv-x="413" unicode="ă"/><glyph d="M190 262h116l-40 163l-16 110h-4l-17 -111zM328 158h-165l-41 -158h-125l203 705h99l204 -705h-19q-47 -23 -47 -73q0 -25 17.5 -37.5t49.5 2.5l18 -58q-6 -6 -16 -12t-23 -11t-28.5 -8.5t-30.5 -3.5q-51 0 -77 25t-26 65q0 42 25 71q20 24 51 40h-26z" horiz-adv-x="501" unicode="Ą"/><glyph d="M44 470q30 18 75 29t102 11q85 0 118.5 -44t33.5 -125q0 -47 -2.5 -92.5t-3.5 -89t1.5 -84t13.5 -76.5h-20q-45 -24 -45 -72q0 -25 17.5 -37.5t49.5 2.5l18 -58q-6 -6 -16 -12t-23 -11t-28.5 -8.5t-30.5 -3.5q-51 0 -77 25t-26 65t23 68.5t59 45.5l-17 57h-4 q-16 -29 -45 -48t-73 -19q-59 0 -93 39.5t-34 105.5q0 90 64 128t173 32q5 58 -7.5 84t-53.5 26q-30 0 -62 -7t-57 -20zM187 95q27 0 44 13.5t25 29.5v83q-23 3 -44 1t-37 -9t-25.5 -20.5t-9.5 -34.5q0 -31 12.5 -47t34.5 -16z" horiz-adv-x="413" unicode="ą"/><glyph d="M29 0zM442 28q-26 -22 -69.5 -32t-86.5 -10q-54 0 -100.5 18.5t-81.5 61.5t-55 113t-20 172q0 106 22.5 176t59 111.5t83.5 58.5t95 17q49 0 85.5 -8t59.5 -18l-25 -111q-19 10 -44.5 15.5t-60.5 5.5q-69 0 -106 -60t-37 -188q0 -55 8.5 -100.5t27 -78.5t47 -51t68.5 -18 q35 0 60 9.5t45 22.5zM305 870h143v-30l-132 -88h-93z" horiz-adv-x="457" unicode="Ć"/><glyph d="M25 0zM338 27q-25 -20 -60 -30t-70 -10q-51 0 -85.5 18.5t-56.5 53t-31.5 83t-9.5 108.5q0 131 47 197t138 66q45 0 73.5 -8t50.5 -20l-28 -99q-18 9 -34.5 13.5t-39.5 4.5q-42 0 -63 -36.5t-21 -117.5q0 -68 21.5 -111t68.5 -43q25 0 42.5 6.5t32.5 16.5zM204 720h119 v-30l-94 -124h-67z" horiz-adv-x="350" unicode="ć"/><glyph d="M29 0zM442 28q-26 -22 -69.5 -32t-86.5 -10q-54 0 -100.5 18.5t-81.5 61.5t-55 113t-20 172q0 106 22.5 176t59 111.5t83.5 58.5t95 17q49 0 85.5 -8t59.5 -18l-25 -111q-19 10 -44.5 15.5t-60.5 5.5q-69 0 -106 -60t-37 -188q0 -55 8.5 -100.5t27 -78.5t47 -51t68.5 -18 q35 0 60 9.5t45 22.5zM240 870h87l104 -93v-39h-85l-47 41l-17 34l-18 -33l-50 -42h-83v40z" horiz-adv-x="457" unicode="Ĉ"/><glyph d="M25 0zM338 27q-25 -20 -60 -30t-70 -10q-51 0 -85.5 18.5t-56.5 53t-31.5 83t-9.5 108.5q0 131 47 197t138 66q45 0 73.5 -8t50.5 -20l-28 -99q-18 9 -34.5 13.5t-39.5 4.5q-42 0 -63 -36.5t-21 -117.5q0 -68 21.5 -111t68.5 -43q25 0 42.5 6.5t32.5 16.5zM139 732h85 l91 -182h-93l-32 66l-13 49l-13 -49l-37 -66h-89z" horiz-adv-x="350" unicode="ĉ"/><glyph d="M29 0zM442 28q-26 -22 -69.5 -32t-86.5 -10q-54 0 -100.5 18.5t-81.5 61.5t-55 113t-20 172q0 106 22.5 176t59 111.5t83.5 58.5t95 17q49 0 85.5 -8t59.5 -18l-25 -111q-19 10 -44.5 15.5t-60.5 5.5q-69 0 -106 -60t-37 -188q0 -55 8.5 -100.5t27 -78.5t47 -51t68.5 -18 q35 0 60 9.5t45 22.5zM322 737h-87l-104 94v39h91l42 -45l17 -30l17 29l45 46h88v-40z" horiz-adv-x="457" unicode="Č"/><glyph d="M25 0zM338 27q-25 -20 -60 -30t-70 -10q-51 0 -85.5 18.5t-56.5 53t-31.5 83t-9.5 108.5q0 131 47 197t138 66q45 0 73.5 -8t50.5 -20l-28 -99q-18 9 -34.5 13.5t-39.5 4.5q-42 0 -63 -36.5t-21 -117.5q0 -68 21.5 -111t68.5 -43q25 0 42.5 6.5t32.5 16.5zM243 550h-88 l-95 182h98l32 -66l13 -49l13 49l37 66h91z" horiz-adv-x="350" unicode="č"/><glyph d="M45 0zM45 700q18 3 40.5 4.5t46 3t45.5 2t39 0.5q83 0 138.5 -25.5t89 -72t47.5 -111.5t14 -145q0 -73 -13.5 -139.5t-47.5 -117t-92 -80.5t-146 -30q-13 0 -35 1t-46 2.5t-46 3t-34 3.5v701zM229 594q-16 0 -32.5 -0.5t-25.5 -2.5v-482q3 -1 10.5 -1.5t16 -1t16 -1 t10.5 -0.5q45 0 74 21t45.5 56t23 80.5t6.5 95.5q0 46 -5.5 89t-21 75.5t-44 52t-73.5 19.5zM270 737h-87l-104 94v39h91l42 -45l17 -30l17 29l45 46h88v-40z" horiz-adv-x="535" unicode="Ď"/><glyph d="M25 0zM402 176q0 -42 1 -84t8 -93h-84l-16 58h-4q-34 -70 -119 -70q-76 0 -119.5 60t-43.5 195q0 132 47 200.5t140 68.5q24 0 40 -3t31 -10v202h119v-524zM216 96q27 0 43 13.5t24 39.5v236q-10 9 -22.5 13t-32.5 4q-40 0 -60 -36t-20 -128q0 -69 16.5 -105.5 t51.5 -36.5zM556 700q-2 -29 -10.5 -60.5t-20.5 -59.5t-25.5 -50t-23.5 -32l-53 26q14 36 21.5 83t7.5 93h104z" horiz-adv-x="445" unicode="ď"/><glyph d="M0 0zM-3 401h68v299q18 3 40.5 4.5t46 3t45.5 2t39 0.5q83 0 138.5 -25.5t89 -72t47.5 -111.5t14 -145q0 -73 -13.5 -139.5t-47.5 -117t-92 -80.5t-146 -30q-13 0 -35 1t-46 2.5t-46 3t-34 3.5v323h-68v79zM191 401h108v-79h-108v-213q3 -1 10.5 -1.5t16 -1t16 -1 t10.5 -0.5q45 0 74 21t45.5 56t23 80.5t6.5 95.5q0 46 -5.5 89t-21 75.5t-44 52t-73.5 19.5q-16 0 -32.5 -0.5t-25.5 -2.5v-190z" horiz-adv-x="555" unicode="Đ"/><glyph d="M402 641h61v-79h-61v-386q0 -42 1 -84t8 -93h-84l-16 58h-4q-34 -70 -119 -70q-76 0 -119.5 60t-43.5 195q0 132 47 200.5t140 68.5q24 0 40 -3t31 -10v64h-120v79h120v59h119v-59zM216 96q27 0 43 13.5t24 39.5v236q-10 9 -22.5 13t-32.5 4q-40 0 -60 -36t-20 -128 q0 -69 16.5 -105.5t51.5 -36.5z" horiz-adv-x="452" unicode="đ"/><glyph d="M45 0zM45 700h350v-116h-224v-172h203v-116h-203v-180h228v-116h-354v700zM74 856h289v-89h-289v89z" horiz-adv-x="430" unicode="Ē"/><glyph d="M25 0zM381 37q-25 -22 -68 -36t-90 -14q-52 0 -89.5 18t-61.5 52t-35.5 82.5t-11.5 110.5q0 135 53.5 199.5t148.5 64.5q32 0 62 -9.5t53.5 -32t38 -60t14.5 -94.5q0 -22 -2.5 -47t-7.5 -54h-243q2 -62 26 -95t77 -33q32 0 58.5 10t40.5 21zM225 412q-38 0 -57 -30.5 t-22 -85.5h138q3 57 -12 86.5t-47 29.5zM79 658h272v-91h-272v91z" horiz-adv-x="428" unicode="ē"/><glyph d="M45 0zM45 700h350v-116h-224v-172h203v-116h-203v-180h228v-116h-354v700zM149 799q0 25 19.5 43t57.5 18q39 0 59 -18t20 -43q0 -26 -20 -44t-59 -18q-38 0 -57.5 18t-19.5 44z" horiz-adv-x="430" unicode="Ė"/><glyph d="M25 0zM381 37q-25 -22 -68 -36t-90 -14q-52 0 -89.5 18t-61.5 52t-35.5 82.5t-11.5 110.5q0 135 53.5 199.5t148.5 64.5q32 0 62 -9.5t53.5 -32t38 -60t14.5 -94.5q0 -22 -2.5 -47t-7.5 -54h-243q2 -62 26 -95t77 -33q32 0 58.5 10t40.5 21zM225 412q-38 0 -57 -30.5 t-22 -85.5h138q3 57 -12 86.5t-47 29.5zM146 641q0 30 19 49.5t54 19.5t56 -19t21 -50t-21 -49t-56 -18t-54 18.5t-19 48.5z" horiz-adv-x="428" unicode="ė"/><glyph d="M45 700h350v-116h-224v-172h203v-116h-203v-180h228v-116h-24q-47 -22 -47 -73q0 -25 17.5 -37.5t49.5 2.5l18 -58q-6 -6 -16 -12t-23 -11t-28.5 -8.5t-30.5 -3.5q-51 0 -77 25t-26 65q0 38 21 66t55 45h-243v700z" horiz-adv-x="430" unicode="Ę"/><glyph d="M225 412q-38 0 -57 -30.5t-22 -85.5h138q3 57 -12 86.5t-47 29.5zM381 37q-21 -19 -54 -31q-14 -10 -24 -24q-18 -24 -17 -51q0 -13 5 -23.5t14.5 -16.5t22.5 -5t29 10l18 -62q-12 -12 -40.5 -24t-60.5 -12q-48 0 -73.5 27.5t-25.5 66.5q0 47 29 80q7 8 15 15 q-50 1 -86 18q-37 18 -61 52t-35.5 82.5t-11.5 110.5q0 135 53.5 199.5t148.5 64.5q32 0 62 -9.5t53.5 -32t38 -60t14.5 -94.5q0 -22 -2.5 -47t-7.5 -54h-243q2 -62 26 -95t77 -33q32 0 58.5 10t40.5 21z" horiz-adv-x="421" unicode="ę"/><glyph d="M45 0zM45 700h350v-116h-224v-172h203v-116h-203v-180h228v-116h-354v700zM260 737h-87l-104 94v39h91l42 -45l17 -30l17 29l45 46h88v-40z" horiz-adv-x="430" unicode="Ě"/><glyph d="M25 0zM381 37q-25 -22 -68 -36t-90 -14q-52 0 -89.5 18t-61.5 52t-35.5 82.5t-11.5 110.5q0 135 53.5 199.5t148.5 64.5q32 0 62 -9.5t53.5 -32t38 -60t14.5 -94.5q0 -22 -2.5 -47t-7.5 -54h-243q2 -62 26 -95t77 -33q32 0 58.5 10t40.5 21zM225 412q-38 0 -57 -30.5 t-22 -85.5h138q3 57 -12 86.5t-47 29.5zM260 550h-88l-95 182h98l32 -66l13 -49l13 49l37 66h91z" horiz-adv-x="428" unicode="ě"/><glyph d="M29 0zM257 362h216v-310q-37 -35 -86.5 -50.5t-98.5 -15.5q-59 0 -107 21t-81.5 65.5t-52 113t-18.5 164.5q0 100 22 169t58.5 112.5t85 63t102.5 19.5q48 0 87.5 -8.5t65.5 -19.5l-26 -109q-20 9 -46.5 15t-64.5 6q-35 0 -63.5 -14t-48 -44t-30 -77.5t-10.5 -113.5 q0 -127 38.5 -187t101.5 -60q20 0 38.5 6t32.5 19v143l-115 16v76zM224 870h87l104 -93v-39h-85l-47 41l-17 34l-18 -33l-50 -42h-83v40z" horiz-adv-x="502" unicode="Ĝ"/><glyph d="M25 0zM401 0q0 -109 -50 -160.5t-139 -51.5q-62 0 -97 9.5t-54 20.5l25 101q22 -9 47.5 -17t60.5 -8q51 0 70.5 27.5t19.5 83.5v27h-3q-14 -20 -37.5 -30t-60.5 -10q-79 0 -118.5 59.5t-39.5 188.5q0 139 54.5 205t155.5 66q54 0 97 -8.5t69 -20.5v-482zM216 94 q27 0 42.5 13t23.5 37v250q-11 5 -24.5 8t-31.5 3q-37 0 -57.5 -36t-20.5 -124q0 -151 68 -151zM184 732h85l91 -182h-93l-32 66l-13 49l-13 -49l-37 -66h-89z" horiz-adv-x="443" unicode="ĝ"/><glyph d="M29 0zM257 362h216v-310q-37 -35 -86.5 -50.5t-98.5 -15.5q-59 0 -107 21t-81.5 65.5t-52 113t-18.5 164.5q0 100 22 169t58.5 112.5t85 63t102.5 19.5q48 0 87.5 -8.5t65.5 -19.5l-26 -109q-20 9 -46.5 15t-64.5 6q-35 0 -63.5 -14t-48 -44t-30 -77.5t-10.5 -113.5 q0 -127 38.5 -187t101.5 -60q20 0 38.5 6t32.5 19v143l-115 16v76zM161 875q17 -26 49 -40.5t70 -14.5q40 0 68.5 15t45.5 40l44 -31q-11 -30 -28 -51.5t-38.5 -35.5t-45 -20.5t-47.5 -6.5q-22 0 -45.5 6t-46 19t-41.5 34t-31 51z" horiz-adv-x="502" unicode="Ğ"/><glyph d="M25 0zM401 0q0 -109 -50 -160.5t-139 -51.5q-62 0 -97 9.5t-54 20.5l25 101q22 -9 47.5 -17t60.5 -8q51 0 70.5 27.5t19.5 83.5v27h-3q-14 -20 -37.5 -30t-60.5 -10q-79 0 -118.5 59.5t-39.5 188.5q0 139 54.5 205t155.5 66q54 0 97 -8.5t69 -20.5v-482zM216 94 q27 0 42.5 13t23.5 37v250q-11 5 -24.5 8t-31.5 3q-37 0 -57.5 -36t-20.5 -124q0 -151 68 -151zM134 719q14 -30 39 -45t54 -15t52 15t34 45l55 -26q-2 -26 -13.5 -49t-30 -41t-43.5 -28.5t-55 -10.5q-57 0 -97 33t-51 92z" horiz-adv-x="443" unicode="ğ"/><glyph d="M29 0zM257 362h216v-310q-37 -35 -86.5 -50.5t-98.5 -15.5q-59 0 -107 21t-81.5 65.5t-52 113t-18.5 164.5q0 100 22 169t58.5 112.5t85 63t102.5 19.5q48 0 87.5 -8.5t65.5 -19.5l-26 -109q-20 9 -46.5 15t-64.5 6q-35 0 -63.5 -14t-48 -44t-30 -77.5t-10.5 -113.5 q0 -127 38.5 -187t101.5 -60q20 0 38.5 6t32.5 19v143l-115 16v76zM237 -106q0 29 18 46.5t44 17.5q31 0 50.5 -22t19.5 -67q0 -33 -10 -58t-24.5 -42t-30 -27.5t-27.5 -14.5l-33 46q13 8 25 23.5t14 37.5q-15 1 -30.5 15t-15.5 45z" horiz-adv-x="502" unicode="Ģ"/><glyph d="M25 0zM401 0q0 -109 -50 -160.5t-139 -51.5q-62 0 -97 9.5t-54 20.5l25 101q22 -9 47.5 -17t60.5 -8q51 0 70.5 27.5t19.5 83.5v27h-3q-14 -20 -37.5 -30t-60.5 -10q-79 0 -118.5 59.5t-39.5 188.5q0 139 54.5 205t155.5 66q54 0 97 -8.5t69 -20.5v-482zM216 94 q27 0 42.5 13t23.5 37v250q-11 5 -24.5 8t-31.5 3q-37 0 -57.5 -36t-20.5 -124q0 -151 68 -151zM303.004 614.993q0 -28.998 -17.999 -46.4971t-43.9971 -17.499q-30.998 0 -50.4971 21.999t-19.499 66.9961q0 32.998 9.99902 57.9961q10 24.999 24.499 41.998 q14.499 16.998 29.998 27.498q15.499 10.499 27.498 14.499l32.998 -45.9971q-12.999 -8 -24.998 -23.499t-13.999 -37.4971q14.999 -1 30.498 -14.999q15.499 -14 15.499 -44.998z" horiz-adv-x="443" unicode="ģ"/><glyph d="M45 0zM362 296h-191v-296h-126v700h126v-288h191v288h126v-700h-126v296zM232 870h87l104 -93v-39h-85l-47 41l-17 34l-18 -33l-50 -42h-83v40z" horiz-adv-x="533" unicode="Ĥ"/><glyph d="M43 0zM291 0v302q0 54 -12.5 78t-45.5 24q-24 0 -44 -17t-27 -43v-344h-119v700h119v-245h3q20 26 48.5 42t71.5 16q31 0 54 -9t39 -30t24 -56.5t8 -89.5v-328h-119zM185 870h87l104 -93v-39h-85l-47 41l-17 34l-18 -33l-50 -42h-83v40z" horiz-adv-x="449" unicode="ĥ"/><glyph d="M2 596h61v104h126v-104h191v104h126v-104h59v-78h-59v-518h-126v296h-191v-296h-126v518h-61v78zM380 412v106h-191v-106h191z" horiz-adv-x="567" unicode="Ħ"/><glyph d="M-9 641h59v59h119v-59h133v-79h-133v-107h3q20 26 48.5 42t71.5 16q31 0 54 -9t39 -30t24 -56.5t8 -89.5v-328h-119v302q0 54 -12.5 78t-45.5 24q-24 0 -44 -17t-27 -43v-344h-119v562h-59v79z" horiz-adv-x="456" unicode="ħ"/><glyph d="M0 0zM56 700h126v-700h-126v700zM-22 856h289v-89h-289v89z" horiz-adv-x="238" unicode="Ī"/><glyph d="M0 0zM53 500h119v-500h-119v500zM-24 658h272v-91h-272v91z" horiz-adv-x="225" unicode="ī"/><glyph d="M56 700h126v-700h-12q-17 -12 -27.5 -29.5t-10.5 -43.5t17.5 -38.5t49.5 3.5l18 -59q-12 -11 -40 -23t-60 -12q-49 0 -75 25t-26 66q0 38 19.5 66t53.5 45h-33v700z" horiz-adv-x="238" unicode="Į"/><glyph d="M53 500h119v-500h-11q-18 -14 -29 -32t-10 -41q0 -26 20 -38.5t51 7.5l18 -62q-12 -12 -40.5 -24t-60.5 -12q-49 0 -74 25.5t-25 66.5q0 38 19 65.5t53 44.5h-30v500zM37 641q0 30 19 49.5t54 19.5t56 -19t21 -50t-21 -49t-56 -18t-54 18.5t-19 48.5z" horiz-adv-x="223" unicode="į"/><glyph d="M42 0zM56 700h126v-700h-126v700zM42 799q0 25 19.5 43t57.5 18q39 0 59 -18t20 -43q0 -26 -20 -44t-59 -18q-38 0 -57.5 18t-19.5 44z" horiz-adv-x="238" unicode="İ"/><glyph d="M53 500h119v-500h-119v500z" horiz-adv-x="225" unicode="ı"/><glyph d="M0 0zM113 700h126v-509q0 -46 -7.5 -83.5t-24.5 -64t-45 -41t-70 -14.5q-29 0 -57.5 6t-51.5 17l29 106q21 -13 49 -13q35 0 43.5 29.5t8.5 84.5v482zM131 870h87l104 -93v-39h-85l-47 41l-17 34l-18 -33l-50 -42h-83v40z" horiz-adv-x="289" unicode="Ĵ"/><glyph d="M0 0zM54 500h119v-521q0 -91 -31.5 -139t-100.5 -48q-28 0 -57 7v106q43 -4 56.5 24.5t13.5 84.5v486zM76 732h85l91 -182h-93l-32 66l-13 49l-13 -49l-37 -66h-89z" horiz-adv-x="225" unicode="ĵ"/><glyph d="M45 0zM198 300h-27v-300h-126v700h126v-311l25 12l147 299h142l-160 -295l-47 -37l48 -38l185 -330h-154zM186 -106q0 29 18 46.5t44 17.5q31 0 50.5 -22t19.5 -67q0 -33 -10 -58t-24.5 -42t-30 -27.5t-27.5 -14.5l-33 46q13 8 25 23.5t14 37.5q-15 1 -30.5 15t-15.5 45z" horiz-adv-x="519" unicode="Ķ"/><glyph d="M43 0zM190 207h-28v-207h-119v700h119v-413l24 14l83 199h129l-92 -198l-43 -34l47 -34l102 -234h-134zM144 -106q0 29 18 46.5t44 17.5q31 0 50.5 -22t19.5 -67q0 -33 -10 -58t-24.5 -42t-30 -27.5t-27.5 -14.5l-33 46q13 8 25 23.5t14 37.5q-15 1 -30.5 15t-15.5 45z" horiz-adv-x="412" unicode="ķ"/><glyph d="M45 0zM417 0h-372v700h126v-584h246v-116zM157 870h143v-30l-132 -88h-93z" horiz-adv-x="424" unicode="Ĺ"/><glyph d="M45 0zM164 162q0 -35 7 -50t23 -15q9 0 18.5 2t21.5 7l11 -96q-12 -8 -41 -15t-59 -7q-50 0 -75 25t-25 85v602h119v-538zM137 870h143v-30l-132 -88h-93z" horiz-adv-x="243" unicode="ĺ"/><glyph d="M45 0zM417 0h-372v700h126v-584h246v-116zM150 -106q0 29 18 46.5t44 17.5q31 0 50.5 -22t19.5 -67q0 -33 -10 -58t-24.5 -42t-30 -27.5t-27.5 -14.5l-33 46q13 8 25 23.5t14 37.5q-15 1 -30.5 15t-15.5 45z" horiz-adv-x="424" unicode="Ļ"/><glyph d="M45 0zM164 162q0 -35 7 -50t23 -15q9 0 18.5 2t21.5 7l11 -96q-12 -8 -41 -15t-59 -7q-50 0 -75 25t-25 85v602h119v-538zM76 -106q0 29 18 46.5t44 17.5q31 0 50.5 -22t19.5 -67q0 -33 -10 -58t-24.5 -42t-30 -27.5t-27.5 -14.5l-33 46q13 8 25 23.5t14 37.5 q-15 1 -30.5 15t-15.5 45z" horiz-adv-x="243" unicode="ļ"/><glyph d="M45 0zM417 0h-372v700h126v-584h246v-116zM397 700q-2 -29 -10.5 -60.5t-20.5 -59.5t-25.5 -50t-23.5 -32l-53 26q14 36 21.5 83t7.5 93h104z" horiz-adv-x="424" unicode="Ľ"/><glyph d="M45 0zM164 162q0 -35 7 -50t23 -15q9 0 18.5 2t21.5 7l11 -96q-12 -8 -41 -15t-59 -7q-50 0 -75 25t-25 85v602h119v-538zM319 700q-2 -29 -10.5 -60.5t-20.5 -59.5t-25.5 -50t-23.5 -32l-53 26q14 36 21.5 83t7.5 93h104z" horiz-adv-x="243" unicode="ľ"/><glyph d="M3 320l52 40v340h126v-243l84 65v-126l-84 -64v-216h246v-116h-372v236l-52 -39v123z" horiz-adv-x="434" unicode="Ł"/><glyph d="M1 309l63 48v343h119v-251l80 62v-126l-80 -61v-162q0 -35 7 -50t23 -15q9 0 18.5 2t21.5 7l11 -96q-12 -8 -41 -15t-59 -7q-50 0 -75 25t-25 85v136l-63 -48v123z" horiz-adv-x="267" unicode="ł"/><glyph d="M45 0zM199 344l-46 123h-5l16 -121v-346h-119v705h97l201 -352l43 -121h6l-16 119v349h119v-705h-97zM303 870h143v-30l-132 -88h-93z" horiz-adv-x="540" unicode="Ń"/><glyph d="M43 0zM291 0v304q0 55 -13 77t-44 22q-26 0 -45 -16t-27 -40v-347h-119v500h95l14 -58h3q18 29 49 49.5t81 20.5q30 0 53.5 -9t39.5 -29.5t24 -55t8 -85.5v-333h-119zM226 720h119v-30l-94 -124h-67z" horiz-adv-x="449" unicode="ń"/><glyph d="M45 0zM199 344l-46 123h-5l16 -121v-346h-119v705h97l201 -352l43 -121h6l-16 119v349h119v-705h-97zM214 -106q0 29 18 46.5t44 17.5q31 0 50.5 -22t19.5 -67q0 -33 -10 -58t-24.5 -42t-30 -27.5t-27.5 -14.5l-33 46q13 8 25 23.5t14 37.5q-15 1 -30.5 15t-15.5 45z" horiz-adv-x="540" unicode="Ņ"/><glyph d="M43 0zM291 0v304q0 55 -13 77t-44 22q-26 0 -45 -16t-27 -40v-347h-119v500h95l14 -58h3q18 29 49 49.5t81 20.5q30 0 53.5 -9t39.5 -29.5t24 -55t8 -85.5v-333h-119zM159 -106q0 29 18 46.5t44 17.5q31 0 50.5 -22t19.5 -67q0 -33 -10 -58t-24.5 -42t-30 -27.5 t-27.5 -14.5l-33 46q13 8 25 23.5t14 37.5q-15 1 -30.5 15t-15.5 45z" horiz-adv-x="449" unicode="ņ"/><glyph d="M45 0zM199 344l-46 123h-5l16 -121v-346h-119v705h97l201 -352l43 -121h6l-16 119v349h119v-705h-97zM316 737h-87l-104 94v39h91l42 -45l17 -30l17 29l45 46h88v-40z" horiz-adv-x="540" unicode="Ň"/><glyph d="M43 0zM291 0v304q0 55 -13 77t-44 22q-26 0 -45 -16t-27 -40v-347h-119v500h95l14 -58h3q18 29 49 49.5t81 20.5q30 0 53.5 -9t39.5 -29.5t24 -55t8 -85.5v-333h-119zM268 550h-88l-95 182h98l32 -66l13 -49l13 49l37 66h91z" horiz-adv-x="449" unicode="ň"/><glyph d="M29 0zM29 350q0 178 61 271t186 93q65 0 112 -25.5t77 -73t44.5 -115t14.5 -150.5q0 -178 -62.5 -271t-185.5 -93q-66 0 -112.5 25.5t-76.5 73t-44 115t-14 150.5zM161 350q0 -53 6 -98.5t20 -78.5t35.5 -52t53.5 -19q58 0 87 59t29 189q0 51 -6 96.5t-19.5 79t-35.5 53 t-55 19.5q-115 0 -115 -248zM134 856h289v-89h-289v89z" horiz-adv-x="553" unicode="Ō"/><glyph d="M25 0zM25 250q0 133 52 198t145 65q100 0 149 -66t49 -197q0 -134 -52 -198.5t-146 -64.5q-197 0 -197 263zM148 250q0 -75 17 -116t57 -41q38 0 56.5 35.5t18.5 121.5q0 77 -17 117t-58 40q-35 0 -54.5 -35.5t-19.5 -121.5zM85 658h272v-91h-272v91z" horiz-adv-x="445" unicode="ō"/><glyph d="M29 0zM29 350q0 178 61 271t186 93q65 0 112 -25.5t77 -73t44.5 -115t14.5 -150.5q0 -178 -62.5 -271t-185.5 -93q-66 0 -112.5 25.5t-76.5 73t-44 115t-14 150.5zM161 350q0 -53 6 -98.5t20 -78.5t35.5 -52t53.5 -19q58 0 87 59t29 189q0 51 -6 96.5t-19.5 79t-35.5 53 t-55 19.5q-115 0 -115 -248zM197 850h120v-16l-82 -93h-86zM369 850h125v-16l-118 -93h-86z" horiz-adv-x="553" unicode="Ő"/><glyph d="M25 0zM25 250q0 133 52 198t145 65q100 0 149 -66t49 -197q0 -134 -52 -198.5t-146 -64.5q-197 0 -197 263zM148 250q0 -75 17 -116t57 -41q38 0 56.5 35.5t18.5 121.5q0 77 -17 117t-58 40q-35 0 -54.5 -35.5t-19.5 -121.5zM141 700h108v-16l-64 -113h-73zM295 700h114 v-16l-99 -113h-75z" horiz-adv-x="445" unicode="ő"/><glyph d="M368 573q-16 11 -39 18t-52 7q-57 0 -86.5 -60.5t-29.5 -187.5q0 -53 6.5 -98.5t21 -78.5t37.5 -52t57 -19q23 0 43 4t42 15v452zM368 0q-16 -6 -43.5 -10t-52.5 -4q-64 0 -110 26t-75.5 73.5t-43.5 114.5t-14 150q0 177 61 270.5t182 93.5q30 0 54.5 -4.5t41.5 -9.5h349 v-116h-223v-172h202v-116h-202v-180h227v-116h-353z" horiz-adv-x="753" unicode="Œ"/><glyph d="M148 250q0 -72 17.5 -115t56.5 -43q38 0 56 37t18 121q0 75 -16.5 116.5t-57.5 41.5q-35 0 -54.5 -36t-19.5 -122zM355 55q-20 -32 -52.5 -50.5t-82.5 -18.5q-99 0 -147 68t-48 196q0 130 51.5 197t145.5 67q56 0 88 -21t50 -47q19 26 50.5 47t85.5 21q32 0 62.5 -9.5 t54 -32t37.5 -60.5t14 -94q0 -23 -2.5 -47.5t-7.5 -53.5h-242q2 -64 25.5 -97.5t74.5 -33.5q34 0 60.5 12t40.5 24l39 -83q-25 -23 -69.5 -38t-92.5 -15q-45 0 -80 18.5t-55 50.5zM494 414q-40 0 -58 -33.5t-21 -84.5h138q4 54 -10.5 86t-48.5 32z" horiz-adv-x="697" unicode="œ"/><glyph d="M45 0zM45 693q41 9 88 13t81 4q43 0 84 -8.5t72.5 -31t51 -61t19.5 -97.5q0 -85 -31.5 -138.5t-86.5 -73.5l40 -32l129 -268h-145l-122 276l-54 13v-289h-126v693zM171 375h43q47 0 71 28.5t24 88.5q0 45 -20 73.5t-63 28.5q-16 0 -31 -1t-24 -4v-214zM237 870h143v-30 l-132 -88h-93z" horiz-adv-x="503" unicode="Ŕ"/><glyph d="M43 0zM279 382q-24 9 -44 9q-27 0 -46.5 -15t-26.5 -42v-334h-119v500h91l14 -60h4q13 33 37.5 51.5t56.5 18.5q24 0 47 -10zM146 720h119v-30l-94 -124h-67z" horiz-adv-x="293" unicode="ŕ"/><glyph d="M45 0zM45 693q41 9 88 13t81 4q43 0 84 -8.5t72.5 -31t51 -61t19.5 -97.5q0 -85 -31.5 -138.5t-86.5 -73.5l40 -32l129 -268h-145l-122 276l-54 13v-289h-126v693zM171 375h43q47 0 71 28.5t24 88.5q0 45 -20 73.5t-63 28.5q-16 0 -31 -1t-24 -4v-214zM192 -106 q0 29 18 46.5t44 17.5q31 0 50.5 -22t19.5 -67q0 -33 -10 -58t-24.5 -42t-30 -27.5t-27.5 -14.5l-33 46q13 8 25 23.5t14 37.5q-15 1 -30.5 15t-15.5 45z" horiz-adv-x="503" unicode="Ŗ"/><glyph d="M43 0zM279 382q-24 9 -44 9q-27 0 -46.5 -15t-26.5 -42v-334h-119v500h91l14 -60h4q13 33 37.5 51.5t56.5 18.5q24 0 47 -10zM61 -106q0 29 18 46.5t44 17.5q31 0 50.5 -22t19.5 -67q0 -33 -10 -58t-24.5 -42t-30 -27.5t-27.5 -14.5l-33 46q13 8 25 23.5t14 37.5 q-15 1 -30.5 15t-15.5 45z" horiz-adv-x="293" unicode="ŗ"/><glyph d="M46 0zM46 693q41 9 88 13t81 4q43 0 84 -8.5t72.5 -31t51 -61t19.5 -97.5q0 -85 -31.5 -138.5t-86.5 -73.5l40 -32l129 -268h-145l-122 276l-54 13v-289h-126v693zM172 375h43q47 0 71 28.5t24 88.5q0 45 -20 73.5t-63 28.5q-16 0 -31 -1t-24 -4v-214zM258 737h-87 l-104 94v39h91l42 -45l17 -30l17 29l45 46h88v-40z" horiz-adv-x="503" unicode="Ř"/><glyph d="M20 0zM279 382q-24 9 -44 9q-27 0 -46.5 -15t-26.5 -42v-334h-119v500h91l14 -60h4q13 33 37.5 51.5t56.5 18.5q24 0 47 -10zM203 550h-88l-95 182h98l32 -66l13 -49l13 49l37 66h91z" horiz-adv-x="293" unicode="ř"/><glyph d="M19 0zM290 180q0 32 -19 54.5t-47.5 42.5t-62 41t-62 49t-47.5 66t-19 93q0 51 15.5 86.5t42.5 58t64 33t79 10.5q51 0 95 -10t73 -27l-39 -111q-17 12 -50.5 22t-72.5 10t-60 -16t-21 -47q0 -28 19 -49.5t47.5 -41.5t62 -41.5t62 -50t47.5 -67t19 -91.5t-15.5 -92 t-44 -64.5t-68.5 -38.5t-89 -13q-62 0 -108.5 12t-71.5 27l41 113q20 -12 55 -24t75 -12q100 0 100 78zM248 870h143v-30l-132 -88h-93z" horiz-adv-x="439" unicode="Ś"/><glyph d="M19 0zM211 133q0 21 -13.5 35.5t-34.5 27t-44.5 25.5t-44.5 32t-34.5 46t-13.5 68q0 70 38 108t112 38q44 0 83 -9.5t62 -23.5l-28 -92q-19 8 -46 15.5t-53 7.5q-49 0 -49 -41q0 -19 13.5 -31.5t34.5 -24.5t44.5 -25t44.5 -32.5t34.5 -47.5t13.5 -69q0 -69 -42 -111 t-125 -42q-41 0 -80.5 10t-63.5 26l33 96q21 -12 48.5 -21t57.5 -9q23 0 38 10.5t15 33.5zM174 720h119v-30l-94 -124h-67z" horiz-adv-x="350" unicode="ś"/><glyph d="M19 0zM290 180q0 32 -19 54.5t-47.5 42.5t-62 41t-62 49t-47.5 66t-19 93q0 51 15.5 86.5t42.5 58t64 33t79 10.5q51 0 95 -10t73 -27l-39 -111q-17 12 -50.5 22t-72.5 10t-60 -16t-21 -47q0 -28 19 -49.5t47.5 -41.5t62 -41.5t62 -50t47.5 -67t19 -91.5t-15.5 -92 t-44 -64.5t-68.5 -38.5t-89 -13q-62 0 -108.5 12t-71.5 27l41 113q20 -12 55 -24t75 -12q100 0 100 78zM193 870h87l104 -93v-39h-85l-47 41l-17 34l-18 -33l-50 -42h-83v40z" horiz-adv-x="439" unicode="Ŝ"/><glyph d="M19 0zM211 133q0 21 -13.5 35.5t-34.5 27t-44.5 25.5t-44.5 32t-34.5 46t-13.5 68q0 70 38 108t112 38q44 0 83 -9.5t62 -23.5l-28 -92q-19 8 -46 15.5t-53 7.5q-49 0 -49 -41q0 -19 13.5 -31.5t34.5 -24.5t44.5 -25t44.5 -32.5t34.5 -47.5t13.5 -69q0 -69 -42 -111 t-125 -42q-41 0 -80.5 10t-63.5 26l33 96q21 -12 48.5 -21t57.5 -9q23 0 38 10.5t15 33.5zM139 732h85l91 -182h-93l-32 66l-13 49l-13 -49l-37 -66h-89z" horiz-adv-x="350" unicode="ŝ"/><glyph d="M290 180q0 32 -19 54.5t-47.5 42.5t-62 41t-62 49t-47.5 66t-19 93q0 51 15.5 86.5t42.5 58t64 33t79 10.5q51 0 95 -10t73 -27l-39 -111q-17 12 -50.5 22t-72.5 10t-60 -16t-21 -47q0 -28 19 -49.5t47.5 -41.5t62 -41.5t62 -50t47.5 -67t19 -91.5q0 -92 -45 -142.5 t-122 -61.5l-15 -33q34 -4 54 -21.5t20 -53.5q0 -23 -10.5 -40t-28.5 -28.5t-42 -17.5t-50 -6q-27 0 -54 6l7 48q42 -4 55.5 5.5t13.5 23.5q0 28 -70 32l42 82q-52 2 -91 13t-61 25l41 114q20 -12 55 -24t75 -12q100 0 100 77z" horiz-adv-x="439" unicode="Ş"/><glyph d="M52 119q21 -12 48.5 -21t57.5 -9q23 0 38 10.5t15 33.5q0 21 -13.5 35.5t-34.5 27t-44.5 25.5t-44.5 32t-34.5 46t-13.5 68q0 70 38 108t112 38q44 0 83 -9.5t62 -23.5l-28 -92q-19 8 -46 15.5t-53 7.5q-49 0 -49 -41q0 -19 13.5 -31.5t34.5 -24.5t44.5 -25t44.5 -32.5 t34.5 -47.5t13.5 -69q0 -59 -30 -98t-89 -50l-16 -35q34 -4 54 -21.5t20 -53.5q0 -23 -10.5 -40t-28.5 -28.5t-42 -17.5t-50 -6q-27 0 -54 6l7 48q42 -4 55.5 5.5t13.5 23.5q0 28 -70 32l43 84q-34 3 -64 12t-50 22z" horiz-adv-x="350" unicode="ş"/><glyph d="M19 0zM290 180q0 32 -19 54.5t-47.5 42.5t-62 41t-62 49t-47.5 66t-19 93q0 51 15.5 86.5t42.5 58t64 33t79 10.5q51 0 95 -10t73 -27l-39 -111q-17 12 -50.5 22t-72.5 10t-60 -16t-21 -47q0 -28 19 -49.5t47.5 -41.5t62 -41.5t62 -50t47.5 -67t19 -91.5t-15.5 -92 t-44 -64.5t-68.5 -38.5t-89 -13q-62 0 -108.5 12t-71.5 27l41 113q20 -12 55 -24t75 -12q100 0 100 78zM275 737h-87l-104 94v39h91l42 -45l17 -30l17 29l45 46h88v-40z" horiz-adv-x="439" unicode="Š"/><glyph d="M19 0zM211 133q0 21 -13.5 35.5t-34.5 27t-44.5 25.5t-44.5 32t-34.5 46t-13.5 68q0 70 38 108t112 38q44 0 83 -9.5t62 -23.5l-28 -92q-19 8 -46 15.5t-53 7.5q-49 0 -49 -41q0 -19 13.5 -31.5t34.5 -24.5t44.5 -25t44.5 -32.5t34.5 -47.5t13.5 -69q0 -69 -42 -111 t-125 -42q-41 0 -80.5 10t-63.5 26l33 96q21 -12 48.5 -21t57.5 -9q23 0 38 10.5t15 33.5zM218 550h-88l-95 182h98l32 -66l13 -49l13 49l37 66h91z" horiz-adv-x="350" unicode="š"/><glyph d="M8 0zM465 584h-165v-584h-126v584h-166v116h457v-116zM169 -106q0 29 18 46.5t44 17.5q31 0 50.5 -22t19.5 -67q0 -33 -10 -58t-24.5 -42t-30 -27.5t-27.5 -14.5l-33 46q13 8 25 23.5t14 37.5q-15 1 -30.5 15t-15.5 45z" horiz-adv-x="473" unicode="Ţ"/><glyph d="M4 0zM4 500h55v94l119 37v-131h97v-106h-97v-218q0 -43 8.5 -61t30.5 -18q15 0 27 3t26 9l15 -95q-22 -11 -51 -18.5t-61 -7.5q-57 0 -85.5 33t-28.5 111v262h-55v106zM89 -106q0 29 18 46.5t44 17.5q31 0 50.5 -22t19.5 -67q0 -33 -10 -58t-24.5 -42t-30 -27.5 t-27.5 -14.5l-33 46q13 8 25 23.5t14 37.5q-15 1 -30.5 15t-15.5 45z" horiz-adv-x="291" unicode="ţ"/><glyph d="M8 0zM465 584h-165v-584h-126v584h-166v116h457v-116zM277 737h-87l-104 94v39h91l42 -45l17 -30l17 29l45 46h88v-40z" horiz-adv-x="473" unicode="Ť"/><glyph d="M4 0zM4 500h55v94l119 37v-131h97v-106h-97v-218q0 -43 8.5 -61t30.5 -18q15 0 27 3t26 9l15 -95q-22 -11 -51 -18.5t-61 -7.5q-57 0 -85.5 33t-28.5 111v262h-55v106zM333 723q-2 -29 -10.5 -60.5t-20.5 -59.5t-25.5 -50t-23.5 -32l-53 26q14 36 21.5 83t7.5 93h104z" horiz-adv-x="297" unicode="ť"/><glyph d="M42 0zM354 700h119v-454q0 -136 -55.5 -197t-153.5 -61q-115 0 -168.5 59.5t-53.5 181.5v471h126v-449q0 -82 22 -114.5t73 -32.5q49 0 70 34.5t21 112.5v449zM115 856h289v-89h-289v89z" horiz-adv-x="515" unicode="Ū"/><glyph d="M39 0zM158 500v-299q0 -59 11 -82t40 -23q28 0 47 20.5t27 49.5v334h119v-348q0 -41 3 -80.5t11 -71.5h-90l-21 68h-3q-19 -35 -51.5 -58t-80.5 -23q-31 0 -55 8.5t-41 29.5t-26 57.5t-9 92.5v325h119zM86 658h272v-91h-272v91z" horiz-adv-x="446" unicode="ū"/><glyph d="M42 0zM354 700h119v-454q0 -136 -55.5 -197t-153.5 -61q-115 0 -168.5 59.5t-53.5 181.5v471h126v-449q0 -82 22 -114.5t73 -32.5q49 0 70 34.5t21 112.5v449zM142 875q17 -26 49 -40.5t70 -14.5q40 0 68.5 15t45.5 40l44 -31q-11 -30 -28 -51.5t-38.5 -35.5t-45 -20.5 t-47.5 -6.5q-22 0 -45.5 6t-46 19t-41.5 34t-31 51z" horiz-adv-x="515" unicode="Ŭ"/><glyph d="M39 0zM158 500v-299q0 -59 11 -82t40 -23q28 0 47 20.5t27 49.5v334h119v-348q0 -41 3 -80.5t11 -71.5h-90l-21 68h-3q-19 -35 -51.5 -58t-80.5 -23q-31 0 -55 8.5t-41 29.5t-26 57.5t-9 92.5v325h119zM134 719q14 -30 39 -45t54 -15t52 15t34 45l55 -26 q-2 -26 -13.5 -49t-30 -41t-43.5 -28.5t-55 -10.5q-57 0 -97 33t-51 92z" horiz-adv-x="446" unicode="ŭ"/><glyph d="M42 0zM354 700h119v-454q0 -136 -55.5 -197t-153.5 -61q-115 0 -168.5 59.5t-53.5 181.5v471h126v-449q0 -82 22 -114.5t73 -32.5q49 0 70 34.5t21 112.5v449zM151 772q0 18 5 34.5t18 29t34 19.5t54 7q61 0 86.5 -24t25.5 -66q0 -18 -5.5 -34t-18.5 -27.5t-34.5 -18.5 t-53.5 -7q-62 0 -86.5 24.5t-24.5 62.5zM226 772q0 -31 36 -31q21 0 29 7.5t8 23.5q0 17 -8.5 25.5t-28.5 8.5q-36 0 -36 -34z" horiz-adv-x="515" unicode="Ů"/><glyph d="M39 0zM158 500v-299q0 -59 11 -82t40 -23q28 0 47 20.5t27 49.5v334h119v-348q0 -41 3 -80.5t11 -71.5h-90l-21 68h-3q-19 -35 -51.5 -58t-80.5 -23q-31 0 -55 8.5t-41 29.5t-26 57.5t-9 92.5v325h119zM122 647q0 45 24.5 70t72.5 25q46 0 72 -23.5t26 -71.5 q0 -42 -25.5 -67.5t-72.5 -25.5t-72 25t-25 68zM189 647q0 -17 8.5 -25.5t21.5 -8.5q31 0 31 34q0 19 -8.5 27.5t-22.5 8.5q-13 0 -21.5 -8t-8.5 -28z" horiz-adv-x="446" unicode="ů"/><glyph d="M42 0zM354 700h119v-454q0 -136 -55.5 -197t-153.5 -61q-115 0 -168.5 59.5t-53.5 181.5v471h126v-449q0 -82 22 -114.5t73 -32.5q49 0 70 34.5t21 112.5v449zM177 850h120v-16l-82 -93h-86zM349 850h125v-16l-118 -93h-86z" horiz-adv-x="515" unicode="Ű"/><glyph d="M39 0zM158 500v-299q0 -59 11 -82t40 -23q28 0 47 20.5t27 49.5v334h119v-348q0 -41 3 -80.5t11 -71.5h-90l-21 68h-3q-19 -35 -51.5 -58t-80.5 -23q-31 0 -55 8.5t-41 29.5t-26 57.5t-9 92.5v325h119zM135 700h108v-16l-64 -113h-73zM289 700h114v-16l-99 -113h-75z" horiz-adv-x="446" unicode="ű"/><glyph d="M354 700h119v-454q0 -136 -56 -197q-23 -26 -55 -41q-42 -32 -42 -77q0 -12 5 -23t13.5 -17t21 -6.5t28.5 7.5l18 -59q-13 -11 -41 -23t-60 -12q-50 0 -75.5 27.5t-25.5 67.5q0 41 26 74q10 11 21 21q-105 3 -156 59q-53 60 -53 182v471h126v-449q0 -82 22 -114.5 t73 -32.5q49 0 70 34.5t21 112.5v449z" horiz-adv-x="515" unicode="Ų"/><glyph d="M158 500v-299q0 -59 11 -82t40 -23q28 0 47 20.5t27 49.5v334h119v-348q0 -41 3 -80.5t11 -71.5h-16q-50 -21 -50 -74q0 -13 5 -23t14.5 -15t23 -3.5t29.5 10.5l18 -62q-13 -12 -41 -24t-60 -12q-49 0 -74.5 25.5t-25.5 66.5t23 70t62 46l-19 63h-3q-19 -35 -51.5 -58 t-80.5 -23q-31 0 -55 8.5t-41 29.5t-26 57.5t-9 92.5v325h119z" horiz-adv-x="446" unicode="ų"/><glyph d="M0 0zM184 260l-188 440h150l97 -265l10 -76h5l11 78l95 263h135l-189 -439v-261h-126v260zM93 798q0 26 15.5 42t53.5 16q35 0 50.5 -16t15.5 -42t-15.5 -41.5t-50.5 -15.5q-38 0 -53.5 15.5t-15.5 41.5zM275 798q0 26 15.5 42t51.5 16q37 0 52.5 -16t15.5 -42 t-15.5 -41.5t-52.5 -15.5q-36 0 -51.5 15.5t-15.5 41.5z" horiz-adv-x="495" unicode="Ÿ"/><glyph d="M21 0zM21 116l234 427l42 41h-276v116h403v-116l-235 -430l-41 -38h276v-116h-403v116zM242 870h143v-30l-132 -88h-93z" horiz-adv-x="445" unicode="Ź"/><glyph d="M24 0zM24 106l162 245l44 43h-206v106h331v-106l-160 -249l-43 -39h203v-106h-331v106zM185 720h119v-30l-94 -124h-67z" horiz-adv-x="381" unicode="ź"/><glyph d="M21 0zM21 116l234 427l42 41h-276v116h403v-116l-235 -430l-41 -38h276v-116h-403v116zM148 799q0 25 19.5 43t57.5 18q39 0 59 -18t20 -43q0 -26 -20 -44t-59 -18q-38 0 -57.5 18t-19.5 44z" horiz-adv-x="445" unicode="Ż"/><glyph d="M24 0zM24 106l162 245l44 43h-206v106h331v-106l-160 -249l-43 -39h203v-106h-331v106zM118 641q0 30 19 49.5t54 19.5t56 -19t21 -50t-21 -49t-56 -18t-54 18.5t-19 48.5z" horiz-adv-x="381" unicode="ż"/><glyph d="M21 0zM21 116l234 427l42 41h-276v116h403v-116l-235 -430l-41 -38h276v-116h-403v116zM261 737h-87l-104 94v39h91l42 -45l17 -30l17 29l45 46h88v-40z" horiz-adv-x="445" unicode="Ž"/><glyph d="M24 0zM24 106l162 245l44 43h-206v106h331v-106l-160 -249l-43 -39h203v-106h-331v106zM233 550h-88l-95 182h98l32 -66l13 -49l13 49l37 66h91z" horiz-adv-x="381" unicode="ž"/><glyph d="M9 500h54v28q0 95 35 137.5t97 42.5q40 0 67 -6t50 -17l-24 -95q-18 7 -31 9.5t-29 2.5q-30 0 -38 -23t-8 -77v-502h-119v394h-54v106z" horiz-adv-x="219" unicode="ſ"/><glyph d="M289 394l-58 -428q-5 -37 -14.5 -68.5t-26 -55t-42.5 -37t-64 -13.5q-14 0 -32.5 1.5t-37.5 4.5t-36 7.5t-27 9.5l22 100q35 -17 76 -17q56 0 69 110l48 386h-62v106h79l9 67q5 37 13.5 64.5t24.5 46t40.5 27.5t61.5 9q13 0 31 -2t37 -5.5t36.5 -9t29.5 -11.5l-29 -94 q-36 16 -76 16q-25 0 -36 -17.5t-16 -57.5l-4 -33h99v-106h-115z" unicode="ƒ"/><glyph d="M29 0zM257 362h216v-310q-37 -35 -86.5 -50.5t-98.5 -15.5q-59 0 -107 21t-81.5 65.5t-52 113t-18.5 164.5q0 100 22 169t58.5 112.5t85 63t102.5 19.5q48 0 87.5 -8.5t65.5 -19.5l-26 -109q-20 9 -46.5 15t-64.5 6q-35 0 -63.5 -14t-48 -44t-30 -77.5t-10.5 -113.5 q0 -127 38.5 -187t101.5 -60q20 0 38.5 6t32.5 19v143l-115 16v76zM318 870h143v-30l-132 -88h-93z" horiz-adv-x="502" unicode="Ǵ"/><glyph d="M25 0zM401 0q0 -109 -50 -160.5t-139 -51.5q-62 0 -97 9.5t-54 20.5l25 101q22 -9 47.5 -17t60.5 -8q51 0 70.5 27.5t19.5 83.5v27h-3q-14 -20 -37.5 -30t-60.5 -10q-79 0 -118.5 59.5t-39.5 188.5q0 139 54.5 205t155.5 66q54 0 97 -8.5t69 -20.5v-482zM216 94 q27 0 42.5 13t23.5 37v250q-11 5 -24.5 8t-31.5 3q-37 0 -57.5 -36t-20.5 -124q0 -151 68 -151zM234 720h119v-30l-94 -124h-67z" horiz-adv-x="443" unicode="ǵ"/><glyph d="M19 0zM290 180q0 32 -19 54.5t-47.5 42.5t-62 41t-62 49t-47.5 66t-19 93q0 51 15.5 86.5t42.5 58t64 33t79 10.5q51 0 95 -10t73 -27l-39 -111q-17 12 -50.5 22t-72.5 10t-60 -16t-21 -47q0 -28 19 -49.5t47.5 -41.5t62 -41.5t62 -50t47.5 -67t19 -91.5t-15.5 -92 t-44 -64.5t-68.5 -38.5t-89 -13q-62 0 -108.5 12t-71.5 27l41 113q20 -12 55 -24t75 -12q100 0 100 78zM149 -106q0 29 18 46.5t44 17.5q31 0 50.5 -22t19.5 -67q0 -33 -10 -58t-24.5 -42t-30 -27.5t-27.5 -14.5l-33 46q13 8 25 23.5t14 37.5q-15 1 -30.5 15t-15.5 45z" horiz-adv-x="439" unicode="Ș"/><glyph d="M19 0zM211 133q0 21 -13.5 35.5t-34.5 27t-44.5 25.5t-44.5 32t-34.5 46t-13.5 68q0 70 38 108t112 38q44 0 83 -9.5t62 -23.5l-28 -92q-19 8 -46 15.5t-53 7.5q-49 0 -49 -41q0 -19 13.5 -31.5t34.5 -24.5t44.5 -25t44.5 -32.5t34.5 -47.5t13.5 -69q0 -69 -42 -111 t-125 -42q-41 0 -80.5 10t-63.5 26l33 96q21 -12 48.5 -21t57.5 -9q23 0 38 10.5t15 33.5zM109 -106q0 29 18 46.5t44 17.5q31 0 50.5 -22t19.5 -67q0 -33 -10 -58t-24.5 -42t-30 -27.5t-27.5 -14.5l-33 46q13 8 25 23.5t14 37.5q-15 1 -30.5 15t-15.5 45z" horiz-adv-x="350" unicode="ș"/><glyph d="M54 500h119v-521q0 -91 -31.5 -139t-100.5 -48q-28 0 -57 7v106q43 -4 56.5 24.5t13.5 84.5v486z" horiz-adv-x="225" unicode="ȷ"/><glyph d="M29 467zM29 644q0 29 17.5 47t43.5 18q32 0 50.5 -22.5t18.5 -62.5q0 -39 -11 -66t-26.5 -45.5t-32.5 -29.5t-29 -16l-30 50q17 8 30 24t15 39q-17 1 -31.5 16.5t-14.5 47.5z" horiz-adv-x="188" unicode="ʼ"/><glyph d="M161 732h85l91 -182h-93l-32 66l-13 49l-13 -49l-37 -66h-89z" horiz-adv-x="397" unicode="ˆ"/><glyph d="M243 550h-88l-95 182h98l32 -66l13 -49l13 49l37 66h91z" horiz-adv-x="404" unicode="ˇ"/><glyph d="M116 719q14 -30 39 -45t54 -15t52 15t34 45l55 -26q-2 -26 -13.5 -49t-30 -41t-43.5 -28.5t-55 -10.5q-57 0 -97 33t-51 92z" horiz-adv-x="410" unicode="˘"/><glyph d="M60 641q0 30 19 49.5t54 19.5t56 -19t21 -50t-21 -49t-56 -18t-54 18.5t-19 48.5z" horiz-adv-x="270" unicode="˙"/><glyph d="M60 647q0 45 24.5 70t72.5 25q46 0 72 -23.5t26 -71.5q0 -42 -25.5 -67.5t-72.5 -25.5t-72 25t-25 68zM127 647q0 -17 8.5 -25.5t21.5 -8.5q31 0 31 34q0 19 -8.5 27.5t-22.5 8.5q-13 0 -21.5 -8t-8.5 -28z" horiz-adv-x="315" unicode="˚"/><glyph d="M238 10q-62 -22 -62 -79q0 -25 17.5 -37.5t49.5 2.5l18 -58q-6 -6 -16 -12t-23 -11t-28.5 -8.5t-30.5 -3.5q-51 0 -77 25t-26 65q0 42 25 71t64 46h89z" horiz-adv-x="321" unicode="˛"/><glyph d="M60 656q29 37 54 50.5t46 13.5q18 0 33.5 -6.5t30.5 -15t30 -15t30 -6.5q11 0 23 5t26 18l22 -61q-27 -32 -50.5 -44t-43.5 -12q-18 0 -33.5 6t-30.5 13.5t-30 14t-30 6.5q-13 0 -26 -5.5t-27 -19.5z" horiz-adv-x="415" unicode="˜"/><glyph d="M89 700h108v-16l-64 -113h-73zM243 700h114v-16l-99 -113h-75z" horiz-adv-x="417" unicode="˝"/><glyph d="M-185 566zM-304 720h119v-30l-94 -124h-67z" horiz-adv-x="2" unicode="́"/><glyph d="M10 0v71l195 634h76l197 -634v-71h-468zM140 108h207l-86 298l-17 112h-5l-18 -113z" horiz-adv-x="486" unicode="Δ"/><glyph d="M43 106h84l70 -12v23l-39 11q-47 28 -80.5 96.5t-33.5 172.5q0 77 19.5 136.5t55.5 99.5t86 60.5t111 20.5q64 0 114.5 -22t86 -63.5t54 -101t18.5 -134.5q0 -52 -9 -94.5t-24.5 -75.5t-36 -56.5t-42.5 -37.5l-41 -12v-23l70 12h84v-106h-250v188q20 5 40.5 20t37.5 40.5 t28 61t11 82.5q0 41 -7.5 79t-24 67t-43.5 46t-66 17q-67 0 -103.5 -51.5t-36.5 -160.5q0 -45 10 -80.5t26.5 -61t37.5 -40.5t42 -19v-188h-249v106z" horiz-adv-x="633" unicode="Ω"/><glyph d="M159 500v-287q0 -60 17 -89.5t55 -29.5q35 0 55 17.5t30 47.5v341h119v-337q0 -41 2.5 -82.5t10.5 -80.5h-89l-28 64h-4q-12 -32 -37 -54t-66 -22q-30 0 -47 13t-31 33h-4l17 -101v-133h-119v700h119z" horiz-adv-x="476" unicode="μ"/><glyph d="M475 152q0 -28 7 -40t19 -12q8 0 18 2t18 4l18 -88q-18 -8 -45 -16t-66 -8q-50 0 -69 30t-19 82v288h-104v-394h-119v394h-11q-33 0 -50 -37l-61 59q17 42 50.5 63t78.5 21h403v-106h-68v-242z" horiz-adv-x="578" unicode="π"/><glyph d="M45 0zM45 700h350v-116h-224v-172h203v-116h-203v-180h228v-116h-354v700zM60 798q0 26 15.5 42t53.5 16q35 0 50.5 -16t15.5 -42t-15.5 -41.5t-50.5 -15.5q-38 0 -53.5 15.5t-15.5 41.5zM242 798q0 26 15.5 42t51.5 16q37 0 52.5 -16t15.5 -42t-15.5 -41.5t-52.5 -15.5 q-36 0 -51.5 15.5t-15.5 41.5z" horiz-adv-x="430" unicode="Ё"/><glyph d="M299 0h-126v584h-165v116h456v-116h-165v-150q14 7 43 15t72 8q32 0 63 -10t55 -35t38.5 -69t14.5 -111q0 -58 -10.5 -102.5t-33.5 -75t-60.5 -46t-92.5 -15.5q-41 0 -52 4v110q7 -1 18.5 -1.5t23.5 -0.5q38 0 56.5 28.5t18.5 91.5q0 36 -6.5 58.5t-17.5 35t-27.5 17.5 t-35.5 5t-38 -7t-29 -13v-321z" horiz-adv-x="615" unicode="Ђ"/><glyph d="M45 0zM388 584h-217v-584h-126v700h343v-116zM237 870h143v-30l-132 -88h-93z" horiz-adv-x="381" unicode="Ѓ"/><glyph d="M446 28q-13 -11 -31.5 -19t-40 -13t-44.5 -7.5t-44 -2.5q-54 0 -100.5 18.5t-81.5 61.5t-55 113t-20 172q0 106 22.5 176t59 111.5t83.5 58.5t95 17q49 0 87.5 -8t61.5 -18l-25 -111q-19 10 -46.5 15.5t-62.5 5.5q-60 0 -96.5 -45t-45.5 -141h223v-104h-224q3 -46 14 -84 t29.5 -65t45.5 -42t63 -15q35 0 61.5 9.5t46.5 22.5z" horiz-adv-x="475" unicode="Є"/><glyph d="M19 0zM290 180q0 32 -19 54.5t-47.5 42.5t-62 41t-62 49t-47.5 66t-19 93q0 51 15.5 86.5t42.5 58t64 33t79 10.5q51 0 95 -10t73 -27l-39 -111q-17 12 -50.5 22t-72.5 10t-60 -16t-21 -47q0 -28 19 -49.5t47.5 -41.5t62 -41.5t62 -50t47.5 -67t19 -91.5t-15.5 -92 t-44 -64.5t-68.5 -38.5t-89 -13q-62 0 -108.5 12t-71.5 27l41 113q20 -12 55 -24t75 -12q100 0 100 78z" horiz-adv-x="439" unicode="Ѕ"/><glyph d="M56 0zM56 700h126v-700h-126v700z" horiz-adv-x="238" unicode="І"/><glyph d="M8 792q0 64 53 64t53 -64q0 -62 -53 -62t-53 62zM132 792q0 64 52 64q53 0 53 -64q0 -62 -53 -62q-52 0 -52 62zM59 700h126v-700h-126v700z" horiz-adv-x="245" unicode="Ї"/><glyph d="M0 0zM113 700h126v-509q0 -46 -7.5 -83.5t-24.5 -64t-45 -41t-70 -14.5q-29 0 -57.5 6t-51.5 17l29 106q21 -13 49 -13q35 0 43.5 29.5t8.5 84.5v482z" horiz-adv-x="289" unicode="Ј"/><glyph d="M345 584h-106q-7 -190 -19 -317.5t-46 -194.5q-12 -24 -27.5 -39.5t-31 -24t-31.5 -12t-29 -3.5q-21 0 -37 3.5t-30 10.5l14 114q18 -7 36 -0.5t30 32.5q12 22 21 64.5t15.5 109.5t10 159t5.5 214h351v-252q6 1 15.5 3t20.5 3t23 2t21 1q42 0 79.5 -10t65.5 -35 t44.5 -68.5t16.5 -110.5q0 -120 -58 -181.5t-183 -61.5q-11 0 -31.5 0.5t-44.5 2t-49 5t-46 8.5v578zM471 112q9 -3 23.5 -4.5t28.5 -1.5q47 0 74.5 27t27.5 94q0 35 -8 57.5t-21.5 35t-32 17t-40.5 4.5q-11 0 -28.5 -3t-23.5 -6v-220z" horiz-adv-x="775" unicode="Љ"/><glyph d="M171 700v-276h191v276h126v-269q4 1 13 2.5t20.5 2.5t23.5 2t21 1q42 0 79.5 -8.5t66 -32t45.5 -65.5t17 -108q0 -121 -59.5 -178t-181.5 -57q-11 0 -31.5 0.5t-45 2t-49.5 4t-45 6.5v305h-191v-308h-126v700h126zM488 111q8 -2 23 -3.5t29 -1.5q49 0 75.5 25.5 t26.5 87.5q0 32 -7 52t-20.5 31.5t-32 16t-41.5 4.5q-12 0 -30 -3t-23 -5v-204z" horiz-adv-x="791" unicode="Њ"/><glyph d="M299 0h-126v584h-165v116h456v-116h-165v-182q21 14 57 27t86 13q36 0 64.5 -10.5t49 -34t31.5 -60t11 -88.5v-249h-126v211q0 62 -18 90t-60 28q-29 0 -54.5 -9t-40.5 -24v-296z" horiz-adv-x="631" unicode="Ћ"/><glyph d="M45 0zM198 300h-27v-300h-126v700h126v-311l25 12l147 299h142l-160 -295l-47 -37l48 -38l185 -330h-154zM263 870h143v-30l-132 -88h-93z" horiz-adv-x="519" unicode="Ќ"/><glyph d="M0 0zM246 395l15 -93h5l13 96l79 302h130l-156 -484q-18 -57 -34 -98.5t-35 -69.5t-42.5 -41.5t-57.5 -13.5q-27 0 -46.5 5t-40.5 19l31 106q14 -8 25 -10.5t23 -3.5q37 0 51 76l-216 515h149zM200 874q6 -61 56 -61t56 60l102 -15q-8 -65 -49 -94t-110 -29q-35 0 -64 6 t-51 20t-36 37t-18 58z" horiz-adv-x="475" unicode="Ў"/><glyph d="M45 0v700h126v-584h182v584h126v-700h-163l-12 -175h-82l-16 175h-161z" horiz-adv-x="524" unicode="Џ"/><glyph d="M0 0zM328 158h-165l-41 -158h-125l203 705h99l204 -705h-132zM190 262h116l-40 163l-16 110h-4l-17 -111z" horiz-adv-x="501" unicode="А"/><glyph d="M45 700h367v-116h-241v-152q15 3 36 6t41 3q48 0 86 -11.5t65 -37t41.5 -66.5t14.5 -100q0 -118 -59 -177t-175 -59q-14 0 -36 1t-47 2.5t-49.5 4.5t-43.5 8v694zM230 102q42 0 67.5 26t25.5 88q0 37 -8 59t-21.5 34t-32 16t-40.5 4q-11 0 -27.5 -2.5t-22.5 -4.5v-215 q9 -2 26 -3.5t33 -1.5z" horiz-adv-x="476" unicode="Б"/><glyph d="M45 0zM445 538q0 -26 -5.5 -51.5t-17.5 -48t-31.5 -39.5t-46.5 -26v-6q24 -6 45.5 -18t37.5 -32.5t25.5 -50t9.5 -69.5q0 -54 -18.5 -93.5t-50 -64.5t-73.5 -37t-89 -12h-36t-47.5 1.5t-52.5 4.5t-50 9v690q33 6 81.5 10.5t96.5 4.5q44 0 84.5 -7t71 -26t48.5 -52.5 t18 -86.5zM234 99q42 0 69 27t27 79q0 33 -9 52.5t-24 30t-34.5 13.5t-40.5 3h-51v-199q8 -3 27.5 -4.5t35.5 -1.5zM200 403q11 0 25.5 1.5t23.5 3.5q29 11 49.5 36t20.5 65q0 26 -7 44t-19 28.5t-28.5 15t-35.5 4.5q-41 0 -58 -4v-194h29z" horiz-adv-x="490" unicode="В"/><glyph d="M388 584h-217v-584h-126v700h343v-116z" horiz-adv-x="381" unicode="Г"/><glyph d="M562 -125h-89l-12 125h-360l-12 -125h-89v241h61q6 11 18.5 50t25.5 110t21.5 176t7.5 248h356v-584h72v-241zM364 116v468h-111q-5 -177 -23.5 -297t-37.5 -171h172z" horiz-adv-x="576" unicode="Д"/><glyph d="M45 0zM45 700h350v-116h-224v-172h203v-116h-203v-180h228v-116h-354v700z" horiz-adv-x="430" unicode="Е"/><glyph d="M287 700h119v-313l29 14l105 299h141l-125 -308l-40 -33l49 -41l141 -318h-152l-117 305h-31v-305h-119v317l-28 -14l-118 -303h-146l140 308l46 38l-45 36l-130 318h146l104 -301h31v301z" horiz-adv-x="701" unicode="Ж"/><glyph d="M98 313v102h24q15 0 37 1t35 6q27 8 46 30t19 57q0 49 -23.5 68t-65.5 19q-34 0 -63.5 -10.5t-46.5 -21.5l-32 109q10 6 28 13t40.5 13t48 9.5t51.5 3.5q38 0 73.5 -7.5t62.5 -27t43 -53.5t16 -87q0 -51 -21.5 -95t-69.5 -65v-6q52 -14 80.5 -56t28.5 -114 q0 -57 -18.5 -98t-50 -67t-72.5 -38t-85 -12q-54 0 -99 9.5t-72 25.5l33 112q19 -11 52.5 -21t78.5 -10q41 0 71 26.5t30 83.5q0 49 -27.5 73.5t-96.5 26.5q-11 0 -15 0.5t-17 0.5h-23z" horiz-adv-x="435" unicode="З"/><glyph d="M376 373l10 99h-5l-38 -106l-199 -366h-99v700h126v-366l-11 -102h5l40 109l199 359h98v-700h-126v373z" horiz-adv-x="547" unicode="И"/><glyph d="M45 0zM376 373l10 99h-5l-38 -106l-199 -366h-99v700h126v-366l-11 -102h5l40 109l199 359h98v-700h-126v373zM232 874q6 -61 56 -61t56 60l102 -15q-8 -65 -49 -94t-110 -29q-35 0 -64 6t-51 20t-36 37t-18 58z" horiz-adv-x="547" unicode="Й"/><glyph d="M45 0zM198 300h-27v-300h-126v700h126v-311l25 12l147 299h142l-160 -295l-47 -37l48 -38l185 -330h-154z" horiz-adv-x="519" unicode="К"/><glyph d="M345 584h-106q-7 -190 -19 -317.5t-46 -194.5q-12 -24 -27.5 -39.5t-31 -24t-31.5 -12t-29 -3.5q-21 0 -37 3.5t-30 10.5l14 114q18 -7 36 -0.5t30 32.5q12 22 21 64.5t15.5 109.5t10 159t5.5 214h351v-700h-126v584z" horiz-adv-x="517" unicode="Л"/><glyph d="M45 0zM493 361l14 134h-5l-37 -120l-114 -246h-42l-121 247l-37 121h-6l19 -135v-362h-119v700h121l146 -303l24 -87h4l23 89l137 301h119v-700h-126v361z" horiz-adv-x="664" unicode="М"/><glyph d="M45 0zM362 296h-191v-296h-126v700h126v-288h191v288h126v-700h-126v296z" horiz-adv-x="533" unicode="Н"/><glyph d="M29 0zM29 350q0 178 61 271t186 93q65 0 112 -25.5t77 -73t44.5 -115t14.5 -150.5q0 -178 -62.5 -271t-185.5 -93q-66 0 -112.5 25.5t-76.5 73t-44 115t-14 150.5zM161 350q0 -53 6 -98.5t20 -78.5t35.5 -52t53.5 -19q58 0 87 59t29 189q0 51 -6 96.5t-19.5 79t-35.5 53 t-55 19.5q-115 0 -115 -248z" horiz-adv-x="553" unicode="О"/><glyph d="M353 584h-182v-584h-126v700h434v-700h-126v584z" horiz-adv-x="524" unicode="П"/><glyph d="M45 0zM45 693q36 8 79 12.5t86 4.5q46 0 90.5 -8.5t79.5 -33.5t57 -70.5t22 -118.5q0 -66 -18.5 -112t-49.5 -75t-71.5 -42t-83.5 -13h-13t-19 0.5t-19.5 1.5t-13.5 2v-241h-126v693zM171 354q6 -2 22.5 -3.5t22.5 -1.5q22 0 42 6t35.5 20.5t24.5 40t9 64.5q0 33 -8.5 56 t-23 36.5t-33.5 19.5t-40 6q-31 0 -51 -5v-239z" horiz-adv-x="477" unicode="Р"/><glyph d="M29 0zM442 28q-26 -22 -69.5 -32t-86.5 -10q-54 0 -100.5 18.5t-81.5 61.5t-55 113t-20 172q0 106 22.5 176t59 111.5t83.5 58.5t95 17q49 0 85.5 -8t59.5 -18l-25 -111q-19 10 -44.5 15.5t-60.5 5.5q-69 0 -106 -60t-37 -188q0 -55 8.5 -100.5t27 -78.5t47 -51t68.5 -18 q35 0 60 9.5t45 22.5z" horiz-adv-x="457" unicode="С"/><glyph d="M8 0zM465 584h-165v-584h-126v584h-166v116h457v-116z" horiz-adv-x="473" unicode="Т"/><glyph d="M246 395l15 -93h5l13 96l79 302h130l-156 -484q-18 -57 -34 -98.5t-35 -69.5t-42.5 -41.5t-57.5 -13.5q-27 0 -46.5 5t-40.5 19l31 106q14 -8 25 -10.5t23 -3.5q37 0 51 76l-216 515h149z" horiz-adv-x="475" unicode="У"/><glyph d="M272 76q-16 -3 -32.5 -4t-36.5 -1q-40 0 -73.5 16t-58 50t-38.5 86.5t-14 126.5q0 140 54 215t146 75q10 0 26.5 -1t26.5 -4v85h126v-88q15 5 36 6.5t34 1.5q40 0 73.5 -17t58 -51.5t38 -87.5t13.5 -124q0 -73 -15.5 -127t-41.5 -90t-62 -54t-76 -18q-15 0 -30.5 1.5 t-27.5 5.5v-98h-126v96zM436 531q-8 0 -22 -1t-22 -4v-344q6 -2 16 -2h20q43 0 70 42.5t27 136.5q0 81 -22.5 126.5t-66.5 45.5zM237 180q7 0 19.5 0.5t21.5 3.5v345q-8 1 -18 1.5t-19 0.5q-43 0 -69.5 -42.5t-26.5 -137.5q0 -83 24 -127t68 -44z" horiz-adv-x="670" unicode="Ф"/><glyph d="M6 0zM177 356l-155 344h152l81 -200l19 -76l18 76l85 200h136l-160 -337l168 -363h-147l-94 215l-21 78l-20 -78l-94 -215h-139z" horiz-adv-x="528" unicode="Х"/><glyph d="M550 -125h-89l-13 125h-403v700h126v-584h180v584h126v-584h73v-241z" horiz-adv-x="563" unicode="Ц"/><glyph d="M160 700v-230q0 -62 18 -88.5t59 -26.5q29 0 54.5 9t40.5 26v310h126v-700h-126v282q-20 -14 -55.5 -26.5t-83.5 -12.5q-33 0 -62 9.5t-50.5 31t-34 57t-12.5 88.5v271h126z" horiz-adv-x="503" unicode="Ч"/><glyph d="M45 0v700h126v-584h119v584h126v-584h119v584h126v-700h-616z" horiz-adv-x="706" unicode="Ш"/><glyph d="M45 0v700h126v-584h120v584h126v-584h120v584h126v-584h76v-241h-89l-13 125h-592z" horiz-adv-x="752" unicode="Щ"/><glyph d="M127 584h-131v116h257v-252q11 3 35.5 6t44.5 3q42 0 79 -10t65.5 -35t45 -68.5t16.5 -110.5q0 -121 -58.5 -182t-182.5 -61q-12 0 -32.5 0.5t-44.5 2t-48.5 5t-45.5 8.5v578zM253 112q8 -3 22.5 -4.5t28.5 -1.5q46 0 74.5 26.5t28.5 94.5q0 35 -8 57.5t-22 35t-32.5 17 t-39.5 4.5q-11 0 -28.5 -3t-23.5 -6v-220z" horiz-adv-x="556" unicode="Ъ"/><glyph d="M497 700h126v-700h-126v700zM45 700h126v-251q9 2 30 5t41 3q42 0 78.5 -9.5t63.5 -34.5t43 -68.5t16 -110.5q0 -123 -56 -183.5t-180 -60.5q-12 0 -31 0.5t-41.5 2t-46 5t-43.5 8.5v694zM171 112q8 -3 20 -4.5t25 -1.5q45 0 70 27.5t25 94.5q0 34 -7 56t-19 35 t-29.5 17.5t-38.5 4.5q-10 0 -25 -3t-21 -6v-220z" horiz-adv-x="668" unicode="Ы"/><glyph d="M45 700h126v-252q6 1 15.5 3t20.5 3t23 2t21 1q42 0 79.5 -10t65.5 -35t44.5 -68.5t16.5 -110.5q0 -120 -58 -181.5t-183 -61.5q-11 0 -31.5 0.5t-44.5 2t-49 5t-46 8.5v694zM171 112q9 -3 23.5 -4.5t28.5 -1.5q47 0 74.5 27t27.5 94q0 35 -8 57.5t-21.5 35t-32 17 t-40.5 4.5q-11 0 -28.5 -3t-23.5 -6v-220z" horiz-adv-x="475" unicode="Ь"/><glyph d="M105 407h211q-2 42 -10.5 77t-26 60.5t-43 39.5t-61.5 14q-43 0 -75.5 -10.5t-55.5 -24.5l-29 109q32 19 78 30.5t89 11.5q60 0 109.5 -19.5t84 -62.5t53.5 -112.5t19 -168.5q0 -106 -22 -176.5t-60.5 -112.5t-89 -59t-107.5 -17q-49 0 -90.5 10t-64.5 22l33 112 q20 -10 53 -19t74 -9q66 0 102 48.5t41 152.5h-212v104z" horiz-adv-x="477" unicode="Э"/><glyph d="M171 412h71q8 143 64.5 222.5t169.5 79.5q65 0 110.5 -26t74 -74t41 -115t12.5 -149q0 -175 -58 -269.5t-181 -94.5q-57 0 -99 21.5t-70.5 62t-44 98t-19.5 128.5h-71v-296h-126v700h126v-288zM368 350q0 -54 5 -99.5t17.5 -78.5t33 -51.5t51.5 -18.5q58 0 82.5 58.5 t24.5 189.5q0 52 -4.5 97.5t-16.5 79t-32.5 52.5t-53.5 19q-57 0 -82 -60.5t-25 -187.5z" horiz-adv-x="743" unicode="Ю"/><glyph d="M441 0h-126v279l-54 -19l-111 -260h-145l114 238l50 40q-53 15 -88 65.5t-35 141.5q0 64 18 107t51 69t79 37.5t101 11.5q13 0 32.5 -1t39.5 -3t39.5 -5.5t34.5 -7.5v-693zM315 589q-9 3 -18 4t-22 1q-20 0 -38 -5.5t-31 -19t-20.5 -35.5t-7.5 -55q0 -63 27.5 -90.5 t71.5 -27.5h38v228z" horiz-adv-x="486" unicode="Я"/><glyph d="M17 0zM44 470q30 18 75 29t102 11q85 0 118.5 -44t33.5 -125q0 -47 -2.5 -92.5t-3.5 -89t1.5 -84t13.5 -76.5h-97l-19 61h-4q-16 -29 -45 -48t-73 -19q-59 0 -93 39.5t-34 105.5q0 90 64 128t173 32q5 58 -7.5 84t-53.5 26q-30 0 -62 -7t-57 -20zM187 95q27 0 44 13.5 t25 29.5v83q-23 3 -44 1t-37 -9t-25.5 -20.5t-9.5 -34.5q0 -31 12.5 -47t34.5 -16z" horiz-adv-x="413" unicode="а"/><glyph d="M123 410q23 43 55.5 62t77.5 19q74 0 119 -54.5t45 -175.5q0 -140 -50.5 -207.5t-144.5 -67.5q-48 0 -85.5 18t-63 56t-38.5 98.5t-13 144.5q0 86 8.5 147t24 103t37 67t47.5 39.5t56 20.5t63 10q43 5 76 12.5t48 24.5l2 -112q-16 -17 -47.5 -24.5t-82.5 -11.5 q-31 -3 -54.5 -11.5t-40 -27t-27 -50t-15.5 -80.5h3zM148 244q0 -72 18 -112t56 -40q40 0 57.5 36t17.5 116q0 69 -16 105t-54 36q-41 0 -60 -36t-19 -105z" horiz-adv-x="445" unicode="б"/><glyph d="M43 499q28 3 71.5 5.5t90.5 2.5q94 0 133 -31t39 -94q0 -36 -17 -68.5t-52 -47.5v-4q85 -23 85 -120q0 -75 -48 -112t-156 -37q-35 0 -76.5 2t-69.5 6v498zM159 96q10 -2 19 -2.5t22 -0.5q39 0 56.5 15.5t17.5 48.5q0 27 -15 43.5t-51 16.5h-49v-121zM208 296 q24 0 39.5 15t15.5 40q0 29 -12.5 42.5t-46.5 13.5q-17 0 -27 -0.5t-18 -1.5v-109h49z" horiz-adv-x="418" unicode="в"/><glyph d="M314 391h-152v-391h-119v500h271v-109z" horiz-adv-x="309" unicode="г"/><glyph d="M466 -114h-88l-13 114h-267l-13 -114h-87v223h48q6 11 16 38.5t19.5 74.5t16.5 116t7 162h301v-391h60v-223zM287 103v291h-76q-2 -36 -5.5 -78t-9.5 -81.5t-13.5 -74.5t-17.5 -57h122z" horiz-adv-x="476" unicode="д"/><glyph d="M25 0zM381 37q-25 -22 -68 -36t-90 -14q-52 0 -89.5 18t-61.5 52t-35.5 82.5t-11.5 110.5q0 135 53.5 199.5t148.5 64.5q32 0 62 -9.5t53.5 -32t38 -60t14.5 -94.5q0 -22 -2.5 -47t-7.5 -54h-243q2 -62 26 -95t77 -33q32 0 58.5 10t40.5 21zM225 412q-38 0 -57 -30.5 t-22 -85.5h138q3 57 -12 86.5t-47 29.5z" horiz-adv-x="428" unicode="е"/><glyph d="M201 203l-73 -203h-132l100 229l29 30l-42 38l-78 203h126l67 -203h34v203h113v-213l30 14l67 199h126l-83 -203l-33 -32l42 -40l92 -225h-135l-73 207h-33v-207h-113v217z" horiz-adv-x="582" unicode="ж"/><glyph d="M85 208v89h48q27 0 44 16t17 39q0 50 -62 50q-30 0 -53 -8t-37 -17l-27 95q26 15 68 25.5t87 10.5q143 0 143 -124q0 -37 -16 -69.5t-48 -46.5v-4q42 -12 61 -42t19 -81q0 -32 -10.5 -59.5t-32.5 -47.5t-55.5 -32t-79.5 -12q-45 0 -79.5 9.5t-57.5 23.5l24 97 q19 -11 44.5 -17.5t54.5 -6.5q73 0 73 59q0 25 -18.5 39t-68.5 14h-38z" horiz-adv-x="354" unicode="з"/><glyph d="M288 218l9 81h-3l-37 -85l-134 -214h-80v500h119v-227l-9 -78h3l36 83l135 222h80v-500h-119v218z" horiz-adv-x="450" unicode="и"/><glyph d="M43 0zM288 218l9 81h-3l-37 -85l-134 -214h-80v500h119v-227l-9 -78h3l36 83l135 222h80v-500h-119v218zM186 704q3 -38 16 -55t33 -17q21 0 33.5 16.5t17.5 54.5l90 -22q-11 -68 -50.5 -99.5t-93.5 -31.5q-26 0 -51 7t-45 22.5t-33.5 40.5t-17.5 62z" horiz-adv-x="450" unicode="й"/><glyph d="M189 207h-27v-207h-119v500h119v-213l24 14l84 199h128l-91 -192l-44 -39l48 -39l101 -230h-134z" horiz-adv-x="409" unicode="к"/><glyph d="M271 391h-72q-4 -87 -11 -160t-22 -125.5t-40.5 -82t-66.5 -29.5q-25 0 -43 3.5t-31 11.5l14 104q24 -8 40.5 1t27.5 49.5t17.5 120.5t9.5 216h296v-500h-119v391z" horiz-adv-x="433" unicode="л"/><glyph d="M399 230l7 103h-5l-30 -93l-73 -150h-45l-80 150l-31 93h-6l13 -103v-230h-106v500h125l91 -184l20 -67h4l21 69l84 182h124v-500h-113v230z" horiz-adv-x="555" unicode="м"/><glyph d="M282 199h-120v-199h-119v500h119v-192h120v192h119v-500h-119v199z" horiz-adv-x="444" unicode="н"/><glyph d="M25 0zM25 250q0 133 52 198t145 65q100 0 149 -66t49 -197q0 -134 -52 -198.5t-146 -64.5q-197 0 -197 263zM148 250q0 -75 17 -116t57 -41q38 0 56.5 35.5t18.5 121.5q0 77 -17 117t-58 40q-35 0 -54.5 -35.5t-19.5 -121.5z" horiz-adv-x="445" unicode="о"/><glyph d="M278 391h-116v-391h-119v500h354v-500h-119v391z" horiz-adv-x="440" unicode="п"/><glyph d="M43 0zM43 500h89l12 -57h3q23 36 51.5 52.5t70.5 16.5q76 0 114.5 -57.5t38.5 -191.5t-48 -205.5t-139 -71.5q-24 0 -41 4t-32 13v-203h-119v700zM162 112q10 -10 22.5 -15t32.5 -5q40 0 61 39.5t21 134.5q0 71 -16 105.5t-53 34.5q-50 0 -68 -59v-235z" horiz-adv-x="447" unicode="р"/><glyph d="M25 0zM338 27q-25 -20 -60 -30t-70 -10q-51 0 -85.5 18.5t-56.5 53t-31.5 83t-9.5 108.5q0 131 47 197t138 66q45 0 73.5 -8t50.5 -20l-28 -99q-18 9 -34.5 13.5t-39.5 4.5q-42 0 -63 -36.5t-21 -117.5q0 -68 21.5 -111t68.5 -43q25 0 42.5 6.5t32.5 16.5z" horiz-adv-x="350" unicode="с"/><glyph d="M343 391h-109v-391h-119v391h-114v109h342v-109z" horiz-adv-x="344" unicode="т"/><glyph d="M0 0zM203 219l13 -78h5l9 79l58 280h122l-125 -451q-17 -59 -32 -106t-32 -80t-38.5 -50.5t-51.5 -17.5q-21 0 -40.5 3.5t-33.5 11.5l20 102q13 -5 26.5 -4.5t25 10t20.5 29.5t15 53l-174 500h143z" horiz-adv-x="400" unicode="у"/><glyph d="M233 -6q-14 -6 -29.5 -7t-27.5 -1q-75 0 -115 64t-40 200q0 131 44 195.5t128 64.5q11 0 21 -1t19 -3v194h119v-195q15 3 26 4t22 1q41 0 71.5 -13.5t51 -43.5t31 -77.5t10.5 -115.5q0 -131 -43 -202.5t-124 -71.5q-8 0 -22.5 1.5t-22.5 5.5v-193h-119v194zM373 410 q-8 0 -13.5 -1.5t-13.5 -3.5v-316q12 -3 31 -3q17 0 30 8.5t21.5 29t12.5 53.5t4 83q0 42 -4 71t-13 46.5t-22.5 25t-32.5 7.5zM208 86q8 0 15 1.5t15 3.5v315q-13 4 -28 4q-17 0 -30 -7.5t-22 -26t-13.5 -49.5t-4.5 -77q0 -85 16.5 -124.5t51.5 -39.5z" horiz-adv-x="585" unicode="ф"/><glyph d="M4 0zM133 256l-119 244h140l51 -118l19 -64l21 64l52 118h129l-120 -240l128 -260h-135l-61 130l-22 71l-23 -71l-61 -130h-128z" horiz-adv-x="439" unicode="х"/><glyph d="M454 -114h-87l-13 114h-311v500h119v-391h113v391h119v-391h60v-223z" horiz-adv-x="464" unicode="ц"/><glyph d="M143 500v-134q0 -53 9.5 -76.5t41.5 -23.5q22 0 37.5 6.5t25.5 14.5v213h119v-500h-119v194q-12 -10 -37 -22t-67 -12q-30 0 -54 7.5t-40.5 26.5t-25.5 50t-9 78v178h119z" horiz-adv-x="419" unicode="ч"/><glyph d="M43 0v500h119v-391h92v391h119v-391h92v391h119v-500h-541z" horiz-adv-x="627" unicode="ш"/><glyph d="M643 -130h-88l-12 130h-500v500h119v-391h92v391h119v-391h92v391h119v-391h59v-239z" horiz-adv-x="653" unicode="щ"/><glyph d="M204 105q21 -6 43 -6q36 0 52 16t16 54q0 70 -66 70q-24 0 -45 -6v-128zM204 322q20 4 40 5.5t37 1.5q42 0 72 -11.5t49 -32t27.5 -49t8.5 -62.5q0 -45 -10.5 -79t-34.5 -56.5t-63.5 -34t-97.5 -11.5q-47 0 -82.5 2t-64.5 5v391h-90v109h209v-178z" horiz-adv-x="454" unicode="ъ"/><glyph d="M162 105q21 -6 43 -6q32 0 45.5 16.5t13.5 54.5q0 35 -13 52t-45 17q-23 0 -44 -6v-128zM162 322q20 4 41 5.5t38 1.5q41 0 69 -11.5t45 -32.5t24.5 -49.5t7.5 -61.5q0 -45 -10 -79t-33 -56.5t-60 -34t-92 -11.5q-48 0 -84.5 2t-64.5 5v500h119v-178zM430 500h119v-500 h-119v500z" horiz-adv-x="591" unicode="ы"/><glyph d="M162 105q21 -6 44 -6q35 0 50.5 16t15.5 54q0 34 -15 52t-49 18q-26 0 -46 -7v-127zM162 322q20 4 41 5.5t38 1.5q42 0 71.5 -11.5t48 -32.5t26.5 -49.5t8 -61.5q0 -45 -10.5 -79t-33.5 -56.5t-61 -34t-93 -11.5q-52 0 -89 2t-65 5v500h119v-178z" horiz-adv-x="411" unicode="ь"/><glyph d="M85 298h144q-3 54 -22.5 82t-63.5 28q-31 0 -54 -6.5t-40 -17.5l-32 90q54 40 149 40q92 0 139 -65t47 -199t-51.5 -198.5t-145.5 -64.5q-37 0 -76.5 7.5t-63.5 21.5l28 99q41 -22 94 -22q49 0 69.5 27.5t22.5 87.5h-144v90z" horiz-adv-x="377" unicode="э"/><glyph d="M400 -12q-93 0 -133.5 56t-47.5 160h-57v-204h-119v500h119v-190h58q9 100 51.5 151t130.5 51q96 0 140 -68.5t44 -193.5q0 -262 -186 -262zM332 250q0 -77 15 -116.5t53 -39.5q16 0 28 7t20 25t11.5 48t3.5 76q0 82 -14 119t-51 37q-34 0 -50 -34.5t-16 -121.5z" horiz-adv-x="611" unicode="ю"/><glyph d="M262 189l-45 -12l-71 -177h-139l76 161l39 32q-40 10 -65 48t-25 96q0 91 50 134t159 42q42 0 78.5 -4t61.5 -10v-499h-119v189zM262 256v144q-15 7 -37 7q-70 0 -70 -77q0 -74 79 -76z" horiz-adv-x="421" unicode="я"/><glyph d="M25 0zM381 37q-25 -22 -68 -36t-90 -14q-52 0 -89.5 18t-61.5 52t-35.5 82.5t-11.5 110.5q0 135 53.5 199.5t148.5 64.5q32 0 62 -9.5t53.5 -32t38 -60t14.5 -94.5q0 -22 -2.5 -47t-7.5 -54h-243q2 -62 26 -95t77 -33q32 0 58.5 10t40.5 21zM225 412q-38 0 -57 -30.5 t-22 -85.5h138q3 57 -12 86.5t-47 29.5zM64 632q0 32 17.5 50t46.5 18q28 0 45 -18t17 -50q0 -30 -17 -47.5t-45 -17.5q-29 0 -46.5 17.5t-17.5 47.5zM250 632q0 32 17 50t46 18t46 -18t17 -50q0 -30 -17 -47.5t-46 -17.5t-46 17.5t-17 47.5z" horiz-adv-x="428" unicode="ё"/><glyph d="M51 700h119v-200h133v-79h-133v-124h4q18 29 47 46t74 17q30 0 53 -9t38.5 -29.5t23.5 -54.5t8 -84v-214q0 -84 -31 -129.5t-100 -45.5q-13 0 -27.5 1.5t-30.5 5.5v102q43 -4 56.5 22.5t13.5 77.5v150q0 55 -12.5 76.5t-44.5 21.5q-24 0 -44 -15.5t-28 -40.5v-195h-119 v421h-59v79h59v200z" horiz-adv-x="457" unicode="ђ"/><glyph d="M43 0zM314 391h-152v-391h-119v500h271v-109zM172 720h119v-30l-94 -124h-67z" horiz-adv-x="309" unicode="ѓ"/><glyph d="M356 25q-23 -18 -61 -27.5t-74 -9.5q-50 0 -86.5 18.5t-60.5 53t-35.5 83t-11.5 107.5q0 127 53.5 194.5t145.5 67.5q45 0 74.5 -7t51.5 -19l-29 -101q-19 10 -38 14t-41 4q-35 0 -60 -25.5t-33 -81.5h151v-86h-152q6 -51 30.5 -82t69.5 -31q25 0 45 6t36 16z" horiz-adv-x="371" unicode="є"/><glyph d="M19 0zM211 133q0 21 -13.5 35.5t-34.5 27t-44.5 25.5t-44.5 32t-34.5 46t-13.5 68q0 70 38 108t112 38q44 0 83 -9.5t62 -23.5l-28 -92q-19 8 -46 15.5t-53 7.5q-49 0 -49 -41q0 -19 13.5 -31.5t34.5 -24.5t44.5 -25t44.5 -32.5t34.5 -47.5t13.5 -69q0 -69 -42 -111 t-125 -42q-41 0 -80.5 10t-63.5 26l33 96q21 -12 48.5 -21t57.5 -9q23 0 38 10.5t15 33.5z" horiz-adv-x="350" unicode="ѕ"/><glyph d="M38 0zM53 500h119v-500h-119v500zM38 641q0 30 19 49.5t54 19.5t56 -19t21 -50t-21 -49t-56 -18t-54 18.5t-19 48.5z" horiz-adv-x="225" unicode="і"/><glyph d="M16 629q0 32 13.5 50t42.5 18t42 -18t13 -50q0 -29 -13 -47.5t-42 -18.5t-42.5 18.5t-13.5 47.5zM147 629q0 32 13 50t42 18q30 0 43.5 -18t13.5 -50q0 -29 -13.5 -47.5t-43.5 -18.5q-29 0 -42 18.5t-13 47.5zM75 500h119v-500h-119v500z" horiz-adv-x="274" unicode="ї"/><glyph d="M0 0zM54 500h119v-521q0 -91 -31.5 -139t-100.5 -48q-28 0 -57 7v106q43 -4 56.5 24.5t13.5 84.5v486zM38 641q0 30 19 49.5t54 19.5t56 -19t21 -50t-21 -49t-56 -18t-54 18.5t-19 48.5z" horiz-adv-x="225" unicode="ј"/><glyph d="M402 500v-178q20 4 41 5.5t38 1.5q42 0 71.5 -11.5t48 -32.5t26.5 -49.5t8 -61.5q0 -45 -10.5 -79t-33.5 -56.5t-61 -34t-93 -11.5q-52 0 -89 2t-65 5v391h-71q-4 -87 -11 -160t-22.5 -125.5t-41 -82t-66.5 -29.5q-25 0 -43 3.5t-31 11.5l14 104q24 -8 40.5 1t27.5 49.5 t17.5 120.5t9.5 216h296zM402 105q21 -6 44 -6q35 0 50.5 16t15.5 54q0 34 -15 52t-49 18q-26 0 -46 -7v-127z" horiz-adv-x="651" unicode="љ"/><glyph d="M401 105q21 -6 44 -6q35 0 51 16.5t16 54.5q0 35 -15.5 50t-49.5 15q-25 0 -46 -6v-124zM401 320q20 3 41 4.5t38 1.5q42 0 71.5 -11.5t48 -31.5t27 -48t8.5 -61q0 -45 -10.5 -79t-34 -56.5t-61.5 -34t-93 -11.5q-52 0 -89 2t-65 5v203h-120v-203h-119v500h119v-188h120 v188h119v-180z" horiz-adv-x="651" unicode="њ"/><glyph d="M-8 500h59v200h119v-200h133v-79h-133v-122h4q18 27 47 44t74 17q30 0 53 -9t38.5 -30t23.5 -55t8 -84v-182h-119v155q0 51 -12.5 73.5t-44.5 22.5q-24 0 -44 -16t-28 -42v-193h-119v421h-59v79z" horiz-adv-x="457" unicode="ћ"/><glyph d="M43 0zM189 207h-27v-207h-119v500h119v-213l24 14l84 199h128l-91 -192l-44 -39l48 -39l101 -230h-134zM201 720h119v-30l-94 -124h-67z" horiz-adv-x="409" unicode="ќ"/><glyph d="M0 0zM203 219l13 -78h5l9 79l58 280h122l-125 -451q-17 -59 -32 -106t-32 -80t-38.5 -50.5t-51.5 -17.5q-21 0 -40.5 3.5t-33.5 11.5l20 102q13 -5 26.5 -4.5t25 10t20.5 29.5t15 53l-174 500h143zM163 704q3 -38 16 -55t33 -17q21 0 33.5 16.5t17.5 54.5l90 -22 q-11 -68 -50.5 -99.5t-93.5 -31.5q-26 0 -51 7t-45 22.5t-33.5 40.5t-17.5 62z" horiz-adv-x="400" unicode="ў"/><glyph d="M43 0v500h119v-391h115v391h119v-500h-122l-12 -175h-82l-16 175h-121z" horiz-adv-x="438" unicode="џ"/><glyph d="M0 645h115v80h126v-80h163v-109h-163v-95q4 1 13.5 2.5t20.5 2.5t22.5 2t21.5 1q42 0 80 -9.5t66.5 -33.5t45 -66t16.5 -108q0 -120 -58 -181t-183 -61q-11 0 -31.5 0.5t-44.5 2t-49 5t-46 8.5v530h-115v109zM241 112q9 -3 23.5 -4.5t28.5 -1.5q46 0 74 27t28 94 q0 35 -8 57t-21.5 34.5t-32 17t-39.5 4.5q-11 0 -28.5 -2.5t-24.5 -5.5v-220z" horiz-adv-x="545" unicode="Ѣ"/><glyph d="M-5 500h90v200h119v-200h132v-91h-132v-87q20 4 41 5.5t38 1.5q42 0 71.5 -11.5t48 -32.5t27 -49.5t8.5 -61.5q0 -45 -10.5 -79t-34.5 -56.5t-63.5 -34t-96.5 -11.5q-48 0 -83.5 2t-64.5 5v409h-90v91zM204 105q21 -6 43 -6q36 0 52 18t16 54q0 32 -15.5 49.5t-49.5 17.5 q-25 0 -46 -6v-127z" horiz-adv-x="454" unicode="ѣ"/><glyph d="M29 350q0 178 61 271t186 93q65 0 112 -25.5t77 -73t44 -115t14 -150.5q0 -178 -62 -271t-185 -93q-66 0 -112.5 25.5t-76.5 73t-44 115t-14 150.5zM276 102q52 0 81.5 47t34.5 150h-231q3 -44 10.5 -80t21.5 -62t34.5 -40.5t48.5 -14.5zM391 405q-3 42 -10.5 77 t-21.5 61t-34.5 40.5t-48.5 14.5q-103 0 -115 -193h230z" horiz-adv-x="552" unicode="Ѳ"/><glyph d="M25 250q0 129 51.5 196.5t145.5 67.5q50 0 87 -18.5t62 -53t37 -83t12 -109.5q0 -130 -52 -197t-146 -67q-50 0 -87 18.5t-61.5 53t-36.5 83t-12 109.5zM297 289q-5 66 -24 92.5t-50 26.5q-29 0 -50 -25.5t-25 -93.5h149zM148 208q3 -61 24 -88.5t50 -27.5t50 24.5 t25 91.5h-149z" horiz-adv-x="445" unicode="ѳ"/><glyph d="M297 -5h-96l-213 705h148l104 -411l14 -120h4l13 121l55 229q13 55 27 92t31.5 58.5t40.5 30.5t53 9q32 0 53 -6t39 -16l-26 -112q-14 8 -24.5 10.5t-21.5 2.5q-20 0 -32 -21t-22 -59z" horiz-adv-x="528" unicode="Ѵ"/><glyph d="M130 500l68 -255l13 -84h4l10 85l18 71q12 52 24.5 88.5t28 59.5t35.5 33.5t47 10.5q21 0 40.5 -4.5t33.5 -12.5l-17 -103q-16 7 -26 7q-14 0 -27 -14t-26 -53l-110 -334h-76l-179 505h139z" horiz-adv-x="436" unicode="ѵ"/><glyph d="M376 373l10 99h-5l-38 -106l-199 -366h-99v700h126v-366l-11 -102h5l40 109l199 359h98v-591h92v-31l-80 -208h-88l37 130h-87v373zM221 874q6 -61 56 -61t56 60l102 -15q-8 -65 -49 -94t-110 -29q-35 0 -64 6t-51 20t-36 37t-18 58z" horiz-adv-x="589" unicode="Ҋ"/><glyph d="M288 218l9 81h-3l-37 -85l-134 -214h-80v500h119v-227l-9 -78h3l36 83l135 222h80v-391h86v-31l-80 -208h-88l37 130h-74v218zM188 704q3 -38 16 -55t33 -17q21 0 33.5 16.5t17.5 54.5l90 -22q-11 -68 -50.5 -99.5t-93.5 -31.5q-26 0 -51 7t-45 22.5t-33.5 40.5t-17.5 62 z" horiz-adv-x="491" unicode="ҋ"/><glyph d="M0 612v85h77v83h126v-83h109v-85h-109v-164q10 3 33.5 6t43.5 3q43 0 81 -10t66.5 -35.5t45 -69t16.5 -110.5q0 -120 -58 -181t-183 -61q-11 0 -31.5 0.5t-44.5 2t-49 5t-46 8.5v606h-77zM203 112q8 -3 22.5 -4.5t29.5 -1.5q45 0 73.5 27t28.5 95q0 35 -8 57.5 t-21.5 35.5t-32.5 18t-40 5q-11 0 -28.5 -3t-23.5 -6v-223z" horiz-adv-x="507" unicode="Ҍ"/><glyph d="M0 0zM-5 500h90v200h119v-200h132v-91h-132v-87q20 4 41 5.5t38 1.5q42 0 71.5 -11.5t48 -32.5t27 -49.5t8.5 -61.5q0 -45 -10.5 -79t-34.5 -56.5t-63.5 -34t-96.5 -11.5q-48 0 -83.5 2t-64.5 5v409h-90v91zM204 105q21 -6 43 -6q36 0 52 18t16 54q0 32 -15.5 49.5 t-49.5 17.5q-25 0 -46 -6v-127z" horiz-adv-x="454" unicode="ҍ"/><glyph d="M45 693q36 8 79 12.5t86 4.5q46 0 90.5 -8.5t79.5 -33.5t57 -70.5t22 -118.5q0 -65 -18 -110t-48 -74l51 -75l-75 -63l-65 89q-33 -9 -68 -9h-13t-19 0.5t-19.5 1.5t-13.5 2v-241h-126v693zM247 481l60 -88q9 15 14.5 36.5t5.5 50.5q0 33 -8.5 56t-23 36.5t-33.5 19.5 t-40 6q-31 0 -51 -5v-239q6 -2 22.5 -3.5t22.5 -1.5q23 0 44 6l-49 72z" horiz-adv-x="477" unicode="Ҏ"/><glyph d="M43 500h89l12 -57h3q23 36 51.5 52.5t70.5 16.5q76 0 114.5 -57.5t38.5 -191.5q0 -137 -50 -208l39 -52l-71 -65l-47 57q-26 -9 -58 -9q-24 0 -41 4t-32 13v-203h-119v700zM238 193l44 -54q8 21 12.5 52t4.5 75q0 71 -16 105.5t-53 34.5q-50 0 -68 -59v-235 q10 -10 22.5 -15t32.5 -5q17 0 31 6l-42 54z" horiz-adv-x="447" unicode="ҏ"/><glyph d="M388 584h-217v-584h-126v700h245l17 152h81v-268z" horiz-adv-x="381" unicode="Ґ"/><glyph d="M314 391h-152v-391h-119v500h173l17 152h81v-261z" horiz-adv-x="309" unicode="ґ"/><glyph d="M423 584h-217v-200h181v-87h-181v-297h-126v297h-79v87h79v316h343v-116z" horiz-adv-x="424" unicode="Ғ"/><glyph d="M334 391h-152v-117h134v-79h-134v-195h-119v195h-63v79h63v226h271v-109z" horiz-adv-x="338" unicode="ғ"/><glyph d="M171 0h-126v700h343v-116h-217v-209q14 6 42.5 14t65.5 8q36 0 68 -11t56.5 -39.5t39 -78t14.5 -125.5q0 -67 -10.5 -117.5t-33.5 -84.5t-61 -51t-93 -17q-40 0 -51 4v111q6 -2 18 -2h25q38 0 56 35.5t18 116.5q0 43 -6 70.5t-17.5 43.5t-27.5 22.5t-36 6.5 q-18 0 -37 -6.5t-30 -12.5v-262z" horiz-adv-x="485" unicode="Ҕ"/><glyph d="M162 0h-119v500h268v-109h-149v-132q14 6 39 13.5t63 7.5q31 0 59 -10t49 -36.5t33.5 -72.5t12.5 -119q0 -63 -9.5 -110.5t-31 -79t-57.5 -47.5t-89 -16q-22 0 -34 1.5t-18 3.5v106q5 -1 17 -1.5t25 -0.5q37 0 54 32.5t17 110.5q0 38 -5 63t-14 40t-22.5 21t-29.5 6 q-18 0 -34.5 -5t-24.5 -10v-156z" horiz-adv-x="443" unicode="ҕ"/><glyph d="M287 700h119v-313l29 14l105 299h141l-125 -308l-40 -33l49 -41l89 -202h69v-241h-89l-13 125h-67l-117 305h-31v-305h-119v317l-28 -14l-118 -303h-146l140 308l46 38l-45 36l-130 318h146l104 -301h31v301z" horiz-adv-x="726" unicode="Җ"/><glyph d="M378 207h-33v-207h-113v217l-31 -14l-73 -203h-132l100 229l29 30l-42 38l-78 203h126l67 -203h34v203h113v-213l30 14l67 199h126l-83 -203l-33 -32l42 -40l47 -116h68v-223h-88l-13 114h-57z" horiz-adv-x="612" unicode="җ"/><glyph d="M98 313v102h24q15 0 37 1t35 6q27 8 46 30t19 57q0 49 -23.5 68t-65.5 19q-34 0 -63.5 -10.5t-46.5 -21.5l-32 109q10 6 28 13t40.5 13t48 9.5t51.5 3.5q38 0 73.5 -7.5t62.5 -27t43 -53.5t16 -87q0 -51 -21.5 -95t-69.5 -65v-6q52 -14 80.5 -56t28.5 -114q0 -49 -14 -86 t-38 -62.5t-56 -41t-68 -21.5l-11 -165h-82l-15 164q-35 5 -64 13t-49 19l33 112q19 -11 52.5 -21t78.5 -10q41 0 71 26.5t30 83.5q0 49 -27.5 73.5t-96.5 26.5q-11 0 -15 0.5t-17 0.5h-23z" horiz-adv-x="435" unicode="Ҙ"/><glyph d="M85 208v89h48q27 0 44 16t17 39q0 50 -62 50q-30 0 -53 -8t-37 -17l-27 95q26 15 68 25.5t87 10.5q143 0 143 -124q0 -37 -16 -69.5t-48 -46.5v-4q42 -12 61 -42t19 -81t-27.5 -90.5t-87.5 -53.5l-12 -172h-82l-16 168q-29 4 -51 11.5t-39 18.5l24 97q19 -11 44.5 -17.5 t54.5 -6.5q73 0 73 59q0 25 -18.5 39t-68.5 14h-38z" horiz-adv-x="354" unicode="ҙ"/><glyph d="M198 300h-27v-300h-126v700h126v-311l25 12l147 299h142l-160 -295l-47 -37l48 -38l120 -214h83v-241h-89l-12 125h-71z" horiz-adv-x="534" unicode="Қ"/><glyph d="M189 207h-27v-207h-119v500h119v-213l24 14l84 199h128l-91 -192l-44 -39l48 -39l53 -121h70v-223h-88l-13 114h-55z" horiz-adv-x="440" unicode="қ"/><glyph d="M216 527h83v-125l19 2l120 296h135l-130 -294l-47 -38l47 -39l153 -329h-145l-130 299h-22v-127h-83v127h-45v-299h-126v700h126v-310l45 4v133z" horiz-adv-x="604" unicode="Ҝ"/><glyph d="M195 411h65v-112l18 2l65 199h125l-72 -193l-45 -38l47 -38l83 -231h-130l-69 207h-22v-118h-65v118h-33v-207h-119v500h119v-213l33 4v120z" horiz-adv-x="491" unicode="ҝ"/><glyph d="M1 640h105v60h126v-60h73v-85h-73v-166l44 14l132 297h138l-144 -294l-58 -38l53 -39l174 -329h-153l-148 300h-38v-300h-126v544h-105v96z" horiz-adv-x="579" unicode="Ҟ"/><glyph d="M-15 626h66v74h119v-74h126v-79h-126v-260l24 14l83 199h129l-92 -198l-43 -34l47 -34l102 -234h-134l-88 207h-28v-207h-119v547h-66v79z" horiz-adv-x="419" unicode="ҟ"/><glyph d="M131 584h-131v116h257v-311l25 12l147 299h142l-160 -295l-47 -37l47 -38l185 -330h-153l-159 300h-27v-300h-126v563v21z" horiz-adv-x="604" unicode="Ҡ"/><glyph d="M204 287l25 13l84 200h127l-90 -190l-45 -38l47 -39l102 -233h-134l-88 207h-28v-207h-119v391h-90v109h209v-213z" horiz-adv-x="453" unicode="ҡ"/><glyph d="M45 0zM362 296h-191v-296h-126v700h126v-288h191v288h126v-584h73v-241h-89l-12 125h-98v296z" horiz-adv-x="575" unicode="Ң"/><glyph d="M282 199h-120v-199h-119v500h119v-192h120v192h119v-391h64v-223h-88l-13 114h-82v199z" horiz-adv-x="472" unicode="ң"/><glyph d="M705 584h-217v-584h-126v296h-191v-296h-126v700h126v-288h191v288h343v-116z" horiz-adv-x="697" unicode="Ҥ"/><glyph d="M551 391h-150v-391h-119v199h-120v-199h-119v500h119v-192h120v192h269v-109z" horiz-adv-x="546" unicode="ҥ"/><glyph d="M479 233v-233h-126v584h-182v-584h-126v700h434v-325q14 6 42 14t65 8q36 0 68 -11t57 -39.5t39.5 -78t14.5 -125.5q0 -65 -10 -115t-33 -84.5t-61 -52.5t-94 -18q-41 0 -52 4v111q6 -2 18 -2h25q38 0 56.5 36.5t18.5 115.5q0 41 -6 68.5t-17.5 44t-28 23.5t-36.5 7 q-17 0 -37 -6.5t-29 -12.5v-29z" horiz-adv-x="791" unicode="Ҧ"/><glyph d="M397 0h-119v391h-116v-391h-119v500h354v-240q14 6 39 13t63 7q30 0 57.5 -10t49 -36.5t34 -72t12.5 -116.5q0 -65 -9.5 -113t-31.5 -79.5t-58 -47.5t-90 -16q-21 0 -32 1.5t-18 3.5v106q6 -1 18 -1.5t25 -0.5q37 0 55 33.5t18 108.5q0 38 -5 63t-15 40t-23.5 21.5 t-29.5 6.5q-17 0 -33.5 -5t-25.5 -10v-156z" horiz-adv-x="677" unicode="ҧ"/><glyph d="M295 598q-64 0 -99 -58.5t-35 -183.5q0 -61 13 -108.5t34.5 -79.5t49.5 -49t57 -17q10 0 21 1t17 4q-35 31 -60.5 99t-25.5 161q0 156 57 234.5t159 78.5q55 0 94 -21t64 -58.5t36.5 -89.5t11.5 -113q0 -57 -10.5 -105t-27 -86t-36 -64.5t-37.5 -39.5q5 -1 11 -1h11 q22 0 44 7.5t37 20.5l39 -101q-43 -43 -126 -43q-34 0 -71 11.5t-60 36.5q-29 -23 -64 -35.5t-84 -12.5q-140 0 -213 95.5t-73 269.5q0 181 65 272t201 91v-116zM399 371q0 -31 5 -63.5t14.5 -62t24 -55t34.5 -43.5q17 16 31.5 41t25.5 56.5t17 69t6 78.5q0 36 -3.5 67.5 t-12 55t-23.5 36.5t-37 13q-38 0 -60 -47.5t-22 -145.5z" horiz-adv-x="742" unicode="Ҩ"/><glyph d="M226 408q-42 -4 -60.5 -42t-18.5 -113t27.5 -117.5t72.5 -42.5q8 0 17 1.5t14 6.5q-20 20 -36 65.5t-16 103.5q0 42 8.5 83t28.5 74t53 53t82 20q47 0 79 -17t51.5 -45.5t27.5 -66t8 -79.5q0 -34 -7 -65.5t-18 -58t-25 -46.5t-28 -31q17 -8 39 -3t36 19l25 -86 q-16 -16 -41 -25t-60 -9q-36 0 -62.5 11t-43.5 30q-27 -23 -61.5 -32t-72.5 -9q-55 0 -96.5 18.5t-69 52.5t-41.5 83t-14 109q0 58 10.5 105.5t34.5 82t62.5 54.5t94.5 22v-106zM341 268q0 -45 12.5 -83.5t35.5 -62.5q24 21 38 65t14 98q0 51 -11.5 80t-35.5 29 q-32 0 -42.5 -34t-10.5 -92z" horiz-adv-x="598" unicode="ҩ"/><glyph d="M442 28q-18 -15 -45.5 -24.5t-57.5 -13.5l-11 -165h-82l-15 166q-44 8 -81 32t-64 67.5t-42 107.5t-15 153q0 106 22.5 176t59 111.5t83.5 58.5t95 17q49 0 85.5 -8t59.5 -18l-25 -111q-19 10 -44.5 15.5t-60.5 5.5q-69 0 -106 -60t-37 -188q0 -55 8.5 -100.5t27 -78.5 t47 -51t68.5 -18q35 0 60 9.5t45 22.5z" horiz-adv-x="457" unicode="Ҫ"/><glyph d="M338 27q-30 -24 -73 -33l-11 -169h-82l-16 168q-71 18 -101 85.5t-30 171.5q0 131 47 197t138 66q45 0 73.5 -8t50.5 -20l-28 -99q-18 9 -34.5 13.5t-39.5 4.5q-42 0 -63 -36.5t-21 -117.5q0 -68 21.5 -111t68.5 -43q25 0 42.5 6.5t32.5 16.5z" horiz-adv-x="350" unicode="ҫ"/><glyph d="M174 584h-166v116h457v-116h-165v-468h73v-241h-89l-12 125h-98v584z" horiz-adv-x="473" unicode="Ҭ"/><glyph d="M115 391h-114v109h342v-109h-109v-282h70v-223h-88l-13 114h-88v391z" horiz-adv-x="347" unicode="ҭ"/><glyph d="M0 0zM184 260l-188 440h150l97 -265l10 -76h5l11 78l95 263h135l-189 -439v-261h-126v260z" horiz-adv-x="495" unicode="Ү"/><glyph d="M-9 500h139l69 -290l13 -100h4l10 101l62 289h129l-148 -501v-199h-119v199z" horiz-adv-x="408" unicode="ү"/><glyph d="M56 292h114l-174 408h150l97 -265l10 -76h5l11 78l95 263h135l-176 -408h115v-86h-128v-206h-126v206h-128v86z" horiz-adv-x="495" unicode="Ұ"/><glyph d="M53 0h96l-158 500h139l69 -290l13 -100h4l10 101l62 289h129l-148 -500h95v-79h-95v-121h-119v121h-97v79z" horiz-adv-x="408" unicode="ұ"/><glyph d="M177 356l-155 344h152l81 -200l19 -76l18 76l85 200h136l-160 -337l114 -247h86v-241h-89l-12 125h-78l-94 215l-21 78l-20 -78l-94 -215h-139z" horiz-adv-x="558" unicode="Ҳ"/><glyph d="M133 256l-119 244h140l51 -118l19 -64l21 64l52 118h129l-120 -240l74 -151h70v-223h-88l-13 114h-50l-61 130l-22 71l-23 -71l-61 -130h-128z" horiz-adv-x="455" unicode="ҳ"/><glyph d="M678 -125h-89l-13 125h-403v584h-165v116h398v-116h-107v-468h180v584h126v-584h73v-241z" horiz-adv-x="691" unicode="Ҵ"/><glyph d="M529 -114h-88l-12 114h-314v391h-114v109h308v-109h-75v-282h116v391h119v-391h60v-223z" horiz-adv-x="540" unicode="ҵ"/><glyph d="M160 700v-230q0 -62 18 -88.5t59 -26.5q29 0 54.5 9t40.5 26v310h126v-584h73v-241h-89l-12 125h-98v282q-20 -14 -55.5 -26.5t-83.5 -12.5q-33 0 -62 9.5t-50.5 31t-34 57t-12.5 88.5v271h126z" horiz-adv-x="545" unicode="Ҷ"/><glyph d="M143 500v-134q0 -53 9.5 -76.5t41.5 -23.5q22 0 37.5 6.5t25.5 14.5v213h119v-391h68v-223h-88l-13 114h-86v194q-12 -10 -37 -22t-67 -12q-30 0 -54 7.5t-40.5 26.5t-25.5 50t-9 78v178h119z" horiz-adv-x="453" unicode="ҷ"/><glyph d="M226 244q-7 -1 -13 -1h-12q-77 0 -122 43t-45 144v270h126v-229q0 -56 14.5 -83t51.5 -32v121h84v-114q39 9 62 26v311h126v-700h-126v283q-11 -7 -26.5 -14t-35.5 -12v-135h-84v122z" horiz-adv-x="543" unicode="Ҹ"/><glyph d="M189 159q-8 -1 -14.5 -1h-14.5q-33 0 -58.5 8t-43 28t-26.5 53t-9 83v170h119v-126q0 -51 10 -77.5t37 -32.5v122h66v-117q27 6 39 18v213h119v-500h-119v194q-12 -9 -39 -20v-115h-66v100z" horiz-adv-x="456" unicode="ҹ"/><glyph d="M344 0v227q0 60 -17 89.5t-60 29.5q-29 0 -54.5 -9t-41.5 -25v-312h-126v700h126v-282q21 14 57 27t86 13q35 0 64 -10t49.5 -33t31.5 -59.5t11 -89.5v-266h-126z" horiz-adv-x="506" unicode="Һ"/><glyph d="M43 0zM291 0v302q0 54 -12.5 78t-45.5 24q-24 0 -44 -17t-27 -43v-344h-119v700h119v-245h3q20 26 48.5 42t71.5 16q31 0 54 -9t39 -30t24 -56.5t8 -89.5v-328h-119z" horiz-adv-x="449" unicode="һ"/><glyph d="M300 296q4 -91 38 -142.5t108 -51.5q36 0 67 13t60 35l32 -109q-79 -55 -183 -55q-115 0 -179 78.5t-69 231.5h-25q-42 0 -71 11.5t-46 31t-24.5 45.5t-7.5 56q1 24 7 46t15 36h103q-10 -16 -14 -33.5t-4 -32.5q0 -9 2.5 -18.5t9.5 -17t20 -11.5t35 -2q3 70 19.5 127 t46 97t71.5 61.5t98 21.5q114 0 168.5 -74.5t54.5 -218.5q0 -58 -9 -125h-323zM509 405q1 11 1.5 20.5t0.5 20.5q0 31 -5.5 60t-17.5 51t-30.5 35t-45.5 13q-56 0 -83 -54t-30 -146h210z" horiz-adv-x="667" unicode="Ҽ"/><glyph d="M503 37q-25 -22 -68 -36t-90 -14q-95 0 -142.5 62t-54.5 168h-8q-66 0 -102.5 30t-34.5 97q0 29 8 48t20 35h99q-13 -12 -21.5 -33.5t-8.5 -47.5q0 -19 10.5 -33t39.5 -13q11 106 62.5 160t136.5 54q32 0 62 -9.5t53.5 -32t38 -60t14.5 -94.5q0 -22 -2.5 -47t-7.5 -54 h-243q2 -62 26 -95t77 -33q32 0 58.5 10t40.5 21zM347 412q-38 0 -57 -30.5t-22 -85.5h138q3 57 -12 86.5t-47 29.5z" horiz-adv-x="543" unicode="ҽ"/><glyph d="M300 296q4 -91 38 -142.5t108 -51.5q36 0 67 13t60 35l32 -109q-58 -40 -130 -51l-11 -165h-82l-15 166q-90 17 -139 94t-54 211h-25q-42 0 -71 11.5t-46 31t-24.5 45.5t-7.5 56q1 24 7 46t15 36h103q-10 -16 -14 -33.5t-4 -32.5q0 -9 2.5 -18.5t9.5 -17t20 -11.5t35 -2 q3 70 19.5 127t46 97t71.5 61.5t98 21.5q114 0 168.5 -74.5t54.5 -218.5q0 -58 -9 -125h-323zM509 405q1 11 1.5 20.5t0.5 20.5q0 31 -5.5 60t-17.5 51t-30.5 35t-45.5 13q-56 0 -83 -54t-30 -146h210z" horiz-adv-x="661" unicode="Ҿ"/><glyph d="M503 37q-17 -15 -44 -27t-59 -17l-11 -168h-82l-16 168q-69 17 -103.5 75t-39.5 149h-8q-66 0 -102.5 30t-34.5 97q0 29 8 48t20 35h99q-13 -12 -21.5 -33.5t-8.5 -47.5q0 -19 10.5 -33t39.5 -13q11 106 62.5 160t136.5 54q32 0 62 -9.5t53.5 -32t38 -60t14.5 -94.5 q0 -22 -2.5 -47t-7.5 -54h-243q2 -62 26 -95t77 -33q32 0 58.5 10t40.5 21zM347 412q-38 0 -57 -30.5t-22 -85.5h138q3 57 -12 86.5t-47 29.5z" horiz-adv-x="543" unicode="ҿ"/><glyph d="M56 0zM56 700h126v-700h-126v700z" horiz-adv-x="238" unicode="Ӏ"/><glyph d="M340 77q0 53 -6.5 94.5t-22 70t-42.5 43.5t-68 15h-30v-300h-126v700h126v-311l25 12l147 299h142l-154 -280l-51 -40h39q39 -12 67 -33t45.5 -54.5t26 -82t8.5 -115.5v-27q0 -141 -48 -207.5t-133 -66.5q-12 0 -25 1t-27 4v107q60 -5 83.5 35.5t23.5 135.5z" horiz-adv-x="512" unicode="Ӄ"/><glyph d="M274 32q0 85 -20.5 126t-64.5 46h-27v-204h-119v500h119v-217l24 12l84 205h128l-92 -199l-40 -32l33 -3q30 -10 48.5 -32t28.5 -51.5t13.5 -65t3.5 -72.5v-17q0 -122 -38.5 -178.5t-111.5 -56.5q-29 0 -58 7v105q45 -8 67 23t22 104z" horiz-adv-x="418" unicode="ӄ"/><glyph d="M345 584h-106q-7 -190 -19 -317.5t-46 -194.5q-12 -24 -27.5 -39.5t-31 -24t-31.5 -12t-29 -3.5q-21 0 -37 3.5t-30 10.5l14 114q18 -7 36 -0.5t30 32.5q12 22 21 64.5t15.5 109.5t10 159t5.5 214h351v-591h81v-31l-80 -208h-88l37 130h-76v584z" horiz-adv-x="547" unicode="Ӆ"/><glyph d="M271 391h-72q-4 -87 -11 -160t-22 -125.5t-40.5 -82t-66.5 -29.5q-25 0 -43 3.5t-31 11.5l14 104q24 -8 40.5 1t27.5 49.5t17.5 120.5t9.5 216h296v-391h78v-31l-80 -208h-88l37 130h-66v391z" horiz-adv-x="466" unicode="ӆ"/><glyph d="M488 0v-30q0 -177 -134 -177q-25 0 -55 6v106q21 -2 33.5 3.5t19 18t8.5 31t2 42.5v296h-191v-296h-126v700h126v-288h191v288h126v-700z" horiz-adv-x="533" unicode="Ӈ"/><glyph d="M282 199h-120v-199h-119v500h119v-192h120v192h119v-531q0 -84 -31 -129.5t-100 -45.5q-13 0 -27.5 1.5t-30.5 5.5v103q43 -4 56.5 20.5t13.5 75.5v199z" horiz-adv-x="444" unicode="ӈ"/><glyph d="M362 296h-191v-296h-126v700h126v-288h191v288h126v-591h84v-31l-80 -208h-88l37 130h-79v296z" horiz-adv-x="567" unicode="Ӊ"/><glyph d="M282 199h-120v-199h-119v500h119v-192h120v192h119v-391h83v-31l-80 -208h-88l37 130h-71v199z" horiz-adv-x="482" unicode="ӊ"/><glyph d="M160 700v-230q0 -62 18 -88.5t59 -26.5q29 0 54.5 9t40.5 26v310h126v-700h-97l-12 -125h-89v241h72v166q-20 -14 -55.5 -26.5t-83.5 -12.5q-33 0 -62 9.5t-50.5 31t-34 57t-12.5 88.5v271h126z" horiz-adv-x="503" unicode="Ӌ"/><glyph d="M258 208q-13 -11 -37.5 -21.5t-67.5 -10.5q-60 0 -94.5 37.5t-34.5 127.5v159h119v-110q0 -57 10 -82.5t42 -25.5q21 0 37 5.5t26 13.5v199h119v-500h-100l-12 -114h-88v208h81v114z" horiz-adv-x="420" unicode="ӌ"/><glyph d="M493 361l14 134h-5l-37 -120l-114 -246h-42l-121 247l-37 121h-6l19 -135v-362h-119v700h121l146 -303l24 -87h4l23 89l137 301h119v-591h92v-31l-80 -208h-88l37 130h-87v361z" horiz-adv-x="705" unicode="Ӎ"/><glyph d="M399 230l7 103h-5l-30 -93l-73 -150h-45l-80 150l-31 93h-6l13 -103v-230h-106v500h125l91 -184l20 -67h4l21 69l84 182h124v-391h83v-31l-80 -208h-88l37 130h-65v230z" horiz-adv-x="593" unicode="ӎ"/><glyph d="M49 0zM49 700h119v-700h-119v700z" horiz-adv-x="217" unicode="ӏ"/><glyph d="M0 0zM328 158h-165l-41 -158h-125l203 705h99l204 -705h-132zM190 262h116l-40 163l-16 110h-4l-17 -111zM197 874q6 -61 56 -61t56 60l102 -15q-8 -65 -49 -94t-110 -29q-35 0 -64 6t-51 20t-36 37t-18 58z" horiz-adv-x="501" unicode="Ӑ"/><glyph d="M17 0zM44 470q30 18 75 29t102 11q85 0 118.5 -44t33.5 -125q0 -47 -2.5 -92.5t-3.5 -89t1.5 -84t13.5 -76.5h-97l-19 61h-4q-16 -29 -45 -48t-73 -19q-59 0 -93 39.5t-34 105.5q0 90 64 128t173 32q5 58 -7.5 84t-53.5 26q-30 0 -62 -7t-57 -20zM187 95q27 0 44 13.5 t25 29.5v83q-23 3 -44 1t-37 -9t-25.5 -20.5t-9.5 -34.5q0 -31 12.5 -47t34.5 -16zM163 704q3 -38 16 -55t33 -17q21 0 33.5 16.5t17.5 54.5l90 -22q-11 -68 -50.5 -99.5t-93.5 -31.5q-26 0 -51 7t-45 22.5t-33.5 40.5t-17.5 62z" horiz-adv-x="413" unicode="ӑ"/><glyph d="M0 0zM328 158h-165l-41 -158h-125l203 705h99l204 -705h-132zM190 262h116l-40 163l-16 110h-4l-17 -111zM91 798q0 26 15.5 42t53.5 16q35 0 50.5 -16t15.5 -42t-15.5 -41.5t-50.5 -15.5q-38 0 -53.5 15.5t-15.5 41.5zM273 798q0 26 15.5 42t51.5 16q37 0 52.5 -16 t15.5 -42t-15.5 -41.5t-52.5 -15.5q-36 0 -51.5 15.5t-15.5 41.5z" horiz-adv-x="501" unicode="Ӓ"/><glyph d="M17 0zM44 470q30 18 75 29t102 11q85 0 118.5 -44t33.5 -125q0 -47 -2.5 -92.5t-3.5 -89t1.5 -84t13.5 -76.5h-97l-19 61h-4q-16 -29 -45 -48t-73 -19q-59 0 -93 39.5t-34 105.5q0 90 64 128t173 32q5 58 -7.5 84t-53.5 26q-30 0 -62 -7t-57 -20zM187 95q27 0 44 13.5 t25 29.5v83q-23 3 -44 1t-37 -9t-25.5 -20.5t-9.5 -34.5q0 -31 12.5 -47t34.5 -16zM52 632q0 32 17.5 50t46.5 18q28 0 45 -18t17 -50q0 -30 -17 -47.5t-45 -17.5q-29 0 -46.5 17.5t-17.5 47.5zM238 632q0 32 17 50t46 18t46 -18t17 -50q0 -30 -17 -47.5t-46 -17.5t-46 17.5 t-17 47.5z" horiz-adv-x="413" unicode="ӓ"/><glyph d="M326 522l-26 -97l-65 -148h96v245h-5zM331 173h-144l-79 -173h-132l350 700h355v-116h-224v-172h203v-116h-203v-180h228v-116h-354v173z" horiz-adv-x="717" unicode="Ӕ"/><glyph d="M257 223q-23 2 -44 0.5t-37.5 -9t-26 -21t-9.5 -35.5q0 -28 12 -44t35 -16q28 0 45 13.5t25 31.5v80zM287 68q-21 -34 -53.5 -55t-87.5 -21q-60 0 -94.5 41t-34.5 106q0 46 16.5 77.5t47 51t74.5 27.5t98 5q1 9 1 16.5v15.5q0 39 -13 56.5t-47 17.5q-31 0 -63 -9t-57 -23 l-31 90q32 21 78 33.5t96 12.5q42 0 68.5 -13t43.5 -41q20 29 52 43.5t72 14.5q32 0 62.5 -9.5t54 -32.5t37.5 -61t14 -95q0 -22 -2.5 -47t-7.5 -53h-241q2 -66 25 -96.5t75 -30.5q31 0 57.5 9.5t40.5 20.5l39 -83q-25 -20 -67 -34.5t-93 -14.5q-109 0 -155 81h-5zM510 295 q3 54 -12 85.5t-48 31.5q-38 0 -56 -30t-21 -87h137z" horiz-adv-x="653" unicode="ӕ"/><glyph d="M45 0zM45 700h350v-116h-224v-172h203v-116h-203v-180h228v-116h-354v700zM170 874q6 -61 56 -61t56 60l102 -15q-8 -65 -49 -94t-110 -29q-35 0 -64 6t-51 20t-36 37t-18 58z" horiz-adv-x="430" unicode="Ӗ"/><glyph d="M25 0zM381 37q-25 -22 -68 -36t-90 -14q-52 0 -89.5 18t-61.5 52t-35.5 82.5t-11.5 110.5q0 135 53.5 199.5t148.5 64.5q32 0 62 -9.5t53.5 -32t38 -60t14.5 -94.5q0 -22 -2.5 -47t-7.5 -54h-243q2 -62 26 -95t77 -33q32 0 58.5 10t40.5 21zM225 412q-38 0 -57 -30.5 t-22 -85.5h138q3 57 -12 86.5t-47 29.5zM171 704q3 -38 16 -55t33 -17q21 0 33.5 16.5t17.5 54.5l90 -22q-11 -68 -50.5 -99.5t-93.5 -31.5q-26 0 -51 7t-45 22.5t-33.5 40.5t-17.5 62z" horiz-adv-x="428" unicode="ӗ"/><glyph d="M160 301q-2 -12 -2 -24.5v-23.5q0 -33 5.5 -61.5t17.5 -50t30 -34t44 -12.5q55 0 79.5 50.5t24.5 155.5h-199zM359 407q-2 44 -10 79.5t-23.5 60t-40.5 38t-62 13.5q-42 0 -74.5 -14.5t-52.5 -27.5l-28 110q14 9 33.5 17.5t43 15.5t48.5 11t51 4q61 0 107 -20.5t77 -65 t47 -113.5t16 -165q0 -85 -13 -152.5t-42 -114.5t-74.5 -72t-111.5 -25q-58 0 -99.5 21t-68.5 59.5t-40 93t-13 122.5q0 59 9 125h321z" horiz-adv-x="521" unicode="Ә"/><glyph d="M39 465q26 21 69.5 34.5t92.5 13.5q100 0 147 -69.5t47 -193.5q0 -133 -52.5 -198t-142.5 -65q-33 0 -64.5 10.5t-56 34.5t-39 63t-14.5 97q0 22 2.5 47t7.5 53h240q-4 63 -26 91t-74 28q-32 0 -57 -11t-39 -22zM200 89q37 0 57 33t19 91h-140q-4 -55 13 -89.5t51 -34.5z" horiz-adv-x="420" unicode="ә"/><glyph d="M29 0zM160 301q-2 -12 -2 -24.5v-23.5q0 -33 5.5 -61.5t17.5 -50t30 -34t44 -12.5q55 0 79.5 50.5t24.5 155.5h-199zM359 407q-2 44 -10 79.5t-23.5 60t-40.5 38t-62 13.5q-42 0 -74.5 -14.5t-52.5 -27.5l-28 110q14 9 33.5 17.5t43 15.5t48.5 11t51 4q61 0 107 -20.5 t77 -65t47 -113.5t16 -165q0 -85 -13 -152.5t-42 -114.5t-74.5 -72t-111.5 -25q-58 0 -99.5 21t-68.5 59.5t-40 93t-13 122.5q0 59 9 125h321zM94 798q0 26 15.5 42t53.5 16q35 0 50.5 -16t15.5 -42t-15.5 -41.5t-50.5 -15.5q-38 0 -53.5 15.5t-15.5 41.5zM276 798 q0 26 15.5 42t51.5 16q37 0 52.5 -16t15.5 -42t-15.5 -41.5t-52.5 -15.5q-36 0 -51.5 15.5t-15.5 41.5z" horiz-adv-x="521" unicode="Ӛ"/><glyph d="M26 0zM39 465q26 21 69.5 34.5t92.5 13.5q100 0 147 -69.5t47 -193.5q0 -133 -52.5 -198t-142.5 -65q-33 0 -64.5 10.5t-56 34.5t-39 63t-14.5 97q0 22 2.5 47t7.5 53h240q-4 63 -26 91t-74 28q-32 0 -57 -11t-39 -22zM200 89q37 0 57 33t19 91h-140q-4 -55 13 -89.5 t51 -34.5zM49 632q0 32 17.5 50t46.5 18q28 0 45 -18t17 -50q0 -30 -17 -47.5t-45 -17.5q-29 0 -46.5 17.5t-17.5 47.5zM235 632q0 32 17 50t46 18t46 -18t17 -50q0 -30 -17 -47.5t-46 -17.5t-46 17.5t-17 47.5z" horiz-adv-x="420" unicode="ӛ"/><glyph d="M0 0zM287 700h119v-313l29 14l105 299h141l-125 -308l-40 -33l49 -41l141 -318h-152l-117 305h-31v-305h-119v317l-28 -14l-118 -303h-146l140 308l46 38l-45 36l-130 318h146l104 -301h31v301zM191 798q0 26 15.5 42t53.5 16q35 0 50.5 -16t15.5 -42t-15.5 -41.5 t-50.5 -15.5q-38 0 -53.5 15.5t-15.5 41.5zM373 798q0 26 15.5 42t51.5 16q37 0 52.5 -16t15.5 -42t-15.5 -41.5t-52.5 -15.5q-36 0 -51.5 15.5t-15.5 41.5z" horiz-adv-x="701" unicode="Ӝ"/><glyph d="M0 0zM201 203l-73 -203h-132l100 229l29 30l-42 38l-78 203h126l67 -203h34v203h113v-213l30 14l67 199h126l-83 -203l-33 -32l42 -40l92 -225h-135l-73 207h-33v-207h-113v217zM134 632q0 32 17.5 50t46.5 18q28 0 45 -18t17 -50q0 -30 -17 -47.5t-45 -17.5 q-29 0 -46.5 17.5t-17.5 47.5zM320 632q0 32 17 50t46 18t46 -18t17 -50q0 -30 -17 -47.5t-46 -17.5t-46 17.5t-17 47.5z" horiz-adv-x="582" unicode="ӝ"/><glyph d="M12 0zM98 313v102h24q15 0 37 1t35 6q27 8 46 30t19 57q0 49 -23.5 68t-65.5 19q-34 0 -63.5 -10.5t-46.5 -21.5l-32 109q10 6 28 13t40.5 13t48 9.5t51.5 3.5q38 0 73.5 -7.5t62.5 -27t43 -53.5t16 -87q0 -51 -21.5 -95t-69.5 -65v-6q52 -14 80.5 -56t28.5 -114 q0 -57 -18.5 -98t-50 -67t-72.5 -38t-85 -12q-54 0 -99 9.5t-72 25.5l33 112q19 -11 52.5 -21t78.5 -10q41 0 71 26.5t30 83.5q0 49 -27.5 73.5t-96.5 26.5q-11 0 -15 0.5t-17 0.5h-23zM42 798q0 26 15.5 42t53.5 16q35 0 50.5 -16t15.5 -42t-15.5 -41.5t-50.5 -15.5 q-38 0 -53.5 15.5t-15.5 41.5zM224 798q0 26 15.5 42t51.5 16q37 0 52.5 -16t15.5 -42t-15.5 -41.5t-52.5 -15.5q-36 0 -51.5 15.5t-15.5 41.5z" horiz-adv-x="435" unicode="Ӟ"/><glyph d="M6 0zM85 208v89h48q27 0 44 16t17 39q0 50 -62 50q-30 0 -53 -8t-37 -17l-27 95q26 15 68 25.5t87 10.5q143 0 143 -124q0 -37 -16 -69.5t-48 -46.5v-4q42 -12 61 -42t19 -81q0 -32 -10.5 -59.5t-32.5 -47.5t-55.5 -32t-79.5 -12q-45 0 -79.5 9.5t-57.5 23.5l24 97 q19 -11 44.5 -17.5t54.5 -6.5q73 0 73 59q0 25 -18.5 39t-68.5 14h-38zM6 632q0 32 17.5 50t46.5 18q28 0 45 -18t17 -50q0 -30 -17 -47.5t-45 -17.5q-29 0 -46.5 17.5t-17.5 47.5zM192 632q0 32 17 50t46 18t46 -18t17 -50q0 -30 -17 -47.5t-46 -17.5t-46 17.5t-17 47.5z" horiz-adv-x="354" unicode="ӟ"/><glyph d="M180 102q51 0 80 30.5t29 84.5q0 56 -32.5 80t-101.5 24h-66v56l125 181l39 43l-50 -12h-165v111h358v-72l-135 -194l-40 -32v-5l40 12q34 -1 63 -13t50.5 -35.5t34 -59t12.5 -84.5q0 -109 -60 -170t-169 -61q-19 0 -41.5 2t-45 6.5t-43.5 11.5t-37 17l30 112 q24 -14 57.5 -23.5t67.5 -9.5z" horiz-adv-x="452" unicode="Ӡ"/><glyph d="M152 -105q49 0 79.5 30t30.5 82q0 115 -132 115h-50v51l96 180l46 48l-62 -7h-140v106h335v-67l-111 -188l-39 -29v-2l30 3q27 -2 53 -15t46.5 -37.5t33.5 -60t13 -81.5q0 -55 -16.5 -98.5t-46.5 -73.5t-72.5 -46t-95.5 -16q-35 0 -73.5 8t-68.5 28l40 99 q21 -13 46.5 -21t57.5 -8z" horiz-adv-x="403" unicode="ӡ"/><glyph d="M45 0zM376 373l10 99h-5l-38 -106l-199 -366h-99v700h126v-366l-11 -102h5l40 109l199 359h98v-700h-126v373zM133 856h289v-89h-289v89z" horiz-adv-x="547" unicode="Ӣ"/><glyph d="M43 0zM288 218l9 81h-3l-37 -85l-134 -214h-80v500h119v-227l-9 -78h3l36 83l135 222h80v-500h-119v218zM91 658h272v-91h-272v91z" horiz-adv-x="450" unicode="ӣ"/><glyph d="M45 0zM376 373l10 99h-5l-38 -106l-199 -366h-99v700h126v-366l-11 -102h5l40 109l199 359h98v-700h-126v373zM117 798q0 26 15.5 42t53.5 16q35 0 50.5 -16t15.5 -42t-15.5 -41.5t-50.5 -15.5q-38 0 -53.5 15.5t-15.5 41.5zM299 798q0 26 15.5 42t51.5 16q37 0 52.5 -16 t15.5 -42t-15.5 -41.5t-52.5 -15.5q-36 0 -51.5 15.5t-15.5 41.5z" horiz-adv-x="547" unicode="Ӥ"/><glyph d="M43 0zM288 218l9 81h-3l-37 -85l-134 -214h-80v500h119v-227l-9 -78h3l36 83l135 222h80v-500h-119v218zM75 632q0 32 17.5 50t46.5 18q28 0 45 -18t17 -50q0 -30 -17 -47.5t-45 -17.5q-29 0 -46.5 17.5t-17.5 47.5zM261 632q0 32 17 50t46 18t46 -18t17 -50 q0 -30 -17 -47.5t-46 -17.5t-46 17.5t-17 47.5z" horiz-adv-x="450" unicode="ӥ"/><glyph d="M29 0zM29 350q0 178 61 271t186 93q65 0 112 -25.5t77 -73t44.5 -115t14.5 -150.5q0 -178 -62.5 -271t-185.5 -93q-66 0 -112.5 25.5t-76.5 73t-44 115t-14 150.5zM161 350q0 -53 6 -98.5t20 -78.5t35.5 -52t53.5 -19q58 0 87 59t29 189q0 51 -6 96.5t-19.5 79t-35.5 53 t-55 19.5q-115 0 -115 -248zM118 798q0 26 15.5 42t53.5 16q35 0 50.5 -16t15.5 -42t-15.5 -41.5t-50.5 -15.5q-38 0 -53.5 15.5t-15.5 41.5zM300 798q0 26 15.5 42t51.5 16q37 0 52.5 -16t15.5 -42t-15.5 -41.5t-52.5 -15.5q-36 0 -51.5 15.5t-15.5 41.5z" horiz-adv-x="553" unicode="Ӧ"/><glyph d="M25 0zM25 250q0 133 52 198t145 65q100 0 149 -66t49 -197q0 -134 -52 -198.5t-146 -64.5q-197 0 -197 263zM148 250q0 -75 17 -116t57 -41q38 0 56.5 35.5t18.5 121.5q0 77 -17 117t-58 40q-35 0 -54.5 -35.5t-19.5 -121.5zM67 632q0 32 17.5 50t46.5 18q28 0 45 -18 t17 -50q0 -30 -17 -47.5t-45 -17.5q-29 0 -46.5 17.5t-17.5 47.5zM253 632q0 32 17 50t46 18t46 -18t17 -50q0 -30 -17 -47.5t-46 -17.5t-46 17.5t-17 47.5z" horiz-adv-x="445" unicode="ӧ"/><glyph d="M29 0zM29 350q0 178 61 271t186 93q65 0 112 -25.5t77 -73t44 -115t14 -150.5q0 -178 -62 -271t-185 -93q-66 0 -112.5 25.5t-76.5 73t-44 115t-14 150.5zM276 102q52 0 81.5 47t34.5 150h-231q3 -44 10.5 -80t21.5 -62t34.5 -40.5t48.5 -14.5zM391 405q-3 42 -10.5 77 t-21.5 61t-34.5 40.5t-48.5 14.5q-103 0 -115 -193h230z" horiz-adv-x="552" unicode="Ө"/><glyph d="M25 0zM25 250q0 129 51.5 196.5t145.5 67.5q50 0 87 -18.5t62 -53t37 -83t12 -109.5q0 -130 -52 -197t-146 -67q-50 0 -87 18.5t-61.5 53t-36.5 83t-12 109.5zM297 289q-5 66 -24 92.5t-50 26.5q-29 0 -50 -25.5t-25 -93.5h149zM148 208q3 -61 24 -88.5t50 -27.5t50 24.5 t25 91.5h-149z" horiz-adv-x="445" unicode="ө"/><glyph d="M29 0zM29 350q0 178 61 271t186 93q65 0 112 -25.5t77 -73t44 -115t14 -150.5q0 -178 -62 -271t-185 -93q-66 0 -112.5 25.5t-76.5 73t-44 115t-14 150.5zM276 102q52 0 81.5 47t34.5 150h-231q3 -44 10.5 -80t21.5 -62t34.5 -40.5t48.5 -14.5zM391 405q-3 42 -10.5 77 t-21.5 61t-34.5 40.5t-48.5 14.5q-103 0 -115 -193h230zM118 798q0 26 15.5 42t53.5 16q35 0 50.5 -16t15.5 -42t-15.5 -41.5t-50.5 -15.5q-38 0 -53.5 15.5t-15.5 41.5zM300 798q0 26 15.5 42t51.5 16q37 0 52.5 -16t15.5 -42t-15.5 -41.5t-52.5 -15.5q-36 0 -51.5 15.5 t-15.5 41.5z" horiz-adv-x="552" unicode="Ӫ"/><glyph d="M25 0zM25 250q0 129 51.5 196.5t145.5 67.5q50 0 87 -18.5t62 -53t37 -83t12 -109.5q0 -130 -52 -197t-146 -67q-50 0 -87 18.5t-61.5 53t-36.5 83t-12 109.5zM297 289q-5 66 -24 92.5t-50 26.5q-29 0 -50 -25.5t-25 -93.5h149zM148 208q3 -61 24 -88.5t50 -27.5t50 24.5 t25 91.5h-149zM66 632q0 32 17.5 50t46.5 18q28 0 45 -18t17 -50q0 -30 -17 -47.5t-45 -17.5q-29 0 -46.5 17.5t-17.5 47.5zM252 632q0 32 17 50t46 18t46 -18t17 -50q0 -30 -17 -47.5t-46 -17.5t-46 17.5t-17 47.5z" horiz-adv-x="445" unicode="ӫ"/><glyph d="M14 0zM105 407h211q-2 42 -10.5 77t-26 60.5t-43 39.5t-61.5 14q-43 0 -75.5 -10.5t-55.5 -24.5l-29 109q32 19 78 30.5t89 11.5q60 0 109.5 -19.5t84 -62.5t53.5 -112.5t19 -168.5q0 -106 -22 -176.5t-60.5 -112.5t-89 -59t-107.5 -17q-49 0 -90.5 10t-64.5 22l33 112 q20 -10 53 -19t74 -9q66 0 102 48.5t41 152.5h-212v104zM36 798q0 26 15.5 42t53.5 16q35 0 50.5 -16t15.5 -42t-15.5 -41.5t-50.5 -15.5q-38 0 -53.5 15.5t-15.5 41.5zM218 798q0 26 15.5 42t51.5 16q37 0 52.5 -16t15.5 -42t-15.5 -41.5t-52.5 -15.5q-36 0 -51.5 15.5 t-15.5 41.5z" horiz-adv-x="477" unicode="Ӭ"/><glyph d="M8 0zM85 298h144q-3 54 -22.5 82t-63.5 28q-31 0 -54 -6.5t-40 -17.5l-32 90q54 40 149 40q92 0 139 -65t47 -199t-51.5 -198.5t-145.5 -64.5q-37 0 -76.5 7.5t-63.5 21.5l28 99q41 -22 94 -22q49 0 69.5 27.5t22.5 87.5h-144v90zM8 632q0 32 17.5 50t46.5 18 q28 0 45 -18t17 -50q0 -30 -17 -47.5t-45 -17.5q-29 0 -46.5 17.5t-17.5 47.5zM194 632q0 32 17 50t46 18t46 -18t17 -50q0 -30 -17 -47.5t-46 -17.5t-46 17.5t-17 47.5z" horiz-adv-x="377" unicode="ӭ"/><glyph d="M0 0zM246 395l15 -93h5l13 96l79 302h130l-156 -484q-18 -57 -34 -98.5t-35 -69.5t-42.5 -41.5t-57.5 -13.5q-27 0 -46.5 5t-40.5 19l31 106q14 -8 25 -10.5t23 -3.5q37 0 51 76l-216 515h149zM105 856h289v-89h-289v89z" horiz-adv-x="475" unicode="Ӯ"/><glyph d="M0 0zM203 219l13 -78h5l9 79l58 280h122l-125 -451q-17 -59 -32 -106t-32 -80t-38.5 -50.5t-51.5 -17.5q-21 0 -40.5 3.5t-33.5 11.5l20 102q13 -5 26.5 -4.5t25 10t20.5 29.5t15 53l-174 500h143zM68 658h272v-91h-272v91z" horiz-adv-x="400" unicode="ӯ"/><glyph d="M0 0zM246 395l15 -93h5l13 96l79 302h130l-156 -484q-18 -57 -34 -98.5t-35 -69.5t-42.5 -41.5t-57.5 -13.5q-27 0 -46.5 5t-40.5 19l31 106q14 -8 25 -10.5t23 -3.5q37 0 51 76l-216 515h149zM96 798q0 26 15.5 42t53.5 16q35 0 50.5 -16t15.5 -42t-15.5 -41.5 t-50.5 -15.5q-38 0 -53.5 15.5t-15.5 41.5zM278 798q0 26 15.5 42t51.5 16q37 0 52.5 -16t15.5 -42t-15.5 -41.5t-52.5 -15.5q-36 0 -51.5 15.5t-15.5 41.5z" horiz-adv-x="475" unicode="Ӱ"/><glyph d="M0 0zM203 219l13 -78h5l9 79l58 280h122l-125 -451q-17 -59 -32 -106t-32 -80t-38.5 -50.5t-51.5 -17.5q-21 0 -40.5 3.5t-33.5 11.5l20 102q13 -5 26.5 -4.5t25 10t20.5 29.5t15 53l-174 500h143zM53 632q0 32 17.5 50t46.5 18q28 0 45 -18t17 -50q0 -30 -17 -47.5 t-45 -17.5q-29 0 -46.5 17.5t-17.5 47.5zM239 632q0 32 17 50t46 18t46 -18t17 -50q0 -30 -17 -47.5t-46 -17.5t-46 17.5t-17 47.5z" horiz-adv-x="400" unicode="ӱ"/><glyph d="M0 0zM246 395l15 -93h5l13 96l79 302h130l-156 -484q-18 -57 -34 -98.5t-35 -69.5t-42.5 -41.5t-57.5 -13.5q-27 0 -46.5 5t-40.5 19l31 106q14 -8 25 -10.5t23 -3.5q37 0 51 76l-216 515h149zM162 850h120v-16l-82 -93h-86zM334 850h125v-16l-118 -93h-86z" horiz-adv-x="475" unicode="Ӳ"/><glyph d="M0 0zM203 219l13 -78h5l9 79l58 280h122l-125 -451q-17 -59 -32 -106t-32 -80t-38.5 -50.5t-51.5 -17.5q-21 0 -40.5 3.5t-33.5 11.5l20 102q13 -5 26.5 -4.5t25 10t20.5 29.5t15 53l-174 500h143zM129 700h108v-16l-64 -113h-73zM283 700h114v-16l-99 -113h-75z" horiz-adv-x="400" unicode="ӳ"/><glyph d="M34 0zM160 700v-230q0 -62 18 -88.5t59 -26.5q29 0 54.5 9t40.5 26v310h126v-700h-126v282q-20 -14 -55.5 -26.5t-83.5 -12.5q-33 0 -62 9.5t-50.5 31t-34 57t-12.5 88.5v271h126zM92 798q0 26 15.5 42t53.5 16q35 0 50.5 -16t15.5 -42t-15.5 -41.5t-50.5 -15.5 q-38 0 -53.5 15.5t-15.5 41.5zM274 798q0 26 15.5 42t51.5 16q37 0 52.5 -16t15.5 -42t-15.5 -41.5t-52.5 -15.5q-36 0 -51.5 15.5t-15.5 41.5z" horiz-adv-x="503" unicode="Ӵ"/><glyph d="M24 0zM143 500v-134q0 -53 9.5 -76.5t41.5 -23.5q22 0 37.5 6.5t25.5 14.5v213h119v-500h-119v194q-12 -10 -37 -22t-67 -12q-30 0 -54 7.5t-40.5 26.5t-25.5 50t-9 78v178h119zM46 632q0 32 17.5 50t46.5 18q28 0 45 -18t17 -50q0 -30 -17 -47.5t-45 -17.5 q-29 0 -46.5 17.5t-17.5 47.5zM232 632q0 32 17 50t46 18t46 -18t17 -50q0 -30 -17 -47.5t-46 -17.5t-46 17.5t-17 47.5z" horiz-adv-x="419" unicode="ӵ"/><glyph d="M388 584h-217v-468h76v-241h-89l-12 125h-101v700h343v-116z" horiz-adv-x="381" unicode="Ӷ"/><glyph d="M43 500h271v-109h-152v-282h75v-223h-88l-13 114h-93v500z" horiz-adv-x="310" unicode="ӷ"/><glyph d="M45 0zM497 700h126v-700h-126v700zM45 700h126v-251q9 2 30 5t41 3q42 0 78.5 -9.5t63.5 -34.5t43 -68.5t16 -110.5q0 -123 -56 -183.5t-180 -60.5q-12 0 -31 0.5t-41.5 2t-46 5t-43.5 8.5v694zM171 112q8 -3 20 -4.5t25 -1.5q45 0 70 27.5t25 94.5q0 34 -7 56t-19 35 t-29.5 17.5t-38.5 4.5q-10 0 -25 -3t-21 -6v-220zM173 798q0 26 15.5 42t53.5 16q35 0 50.5 -16t15.5 -42t-15.5 -41.5t-50.5 -15.5q-38 0 -53.5 15.5t-15.5 41.5zM355 798q0 26 15.5 42t51.5 16q37 0 52.5 -16t15.5 -42t-15.5 -41.5t-52.5 -15.5q-36 0 -51.5 15.5 t-15.5 41.5z" horiz-adv-x="668" unicode="Ӹ"/><glyph d="M43 0zM162 105q21 -6 43 -6q32 0 45.5 16.5t13.5 54.5q0 35 -13 52t-45 17q-23 0 -44 -6v-128zM162 322q20 4 41 5.5t38 1.5q41 0 69 -11.5t45 -32.5t24.5 -49.5t7.5 -61.5q0 -45 -10 -79t-33 -56.5t-60 -34t-92 -11.5q-48 0 -84.5 2t-64.5 5v500h119v-178zM430 500h119 v-500h-119v500zM132 632q0 32 17.5 50t46.5 18q28 0 45 -18t17 -50q0 -30 -17 -47.5t-45 -17.5q-29 0 -46.5 17.5t-17.5 47.5zM318 632q0 32 17 50t46 18t46 -18t17 -50q0 -30 -17 -47.5t-46 -17.5t-46 17.5t-17 47.5z" horiz-adv-x="591" unicode="ӹ"/><glyph d="M368 -22q0 34 -11.5 66.5t-22.5 55.5l-53 115l-23 78l-19 -78l-94 -215h-139l171 356l-154 344h151l81 -200l19 -76l18 76l85 200h136l-160 -337l102 -213q20 -39 31.5 -84.5t11.5 -88.5q0 -90 -35.5 -137t-107.5 -47q-29 0 -58 7v106q22 -2 36 3t21.5 15t10.5 24t3 30z" horiz-adv-x="525" unicode="Ӽ"/><glyph d="M377 128q17 -32 29 -74t12 -79q0 -88 -33 -134.5t-103 -46.5q-29 0 -58 7v102q43 -5 59 13.5t16 51.5q0 27 -9.5 54t-20.5 47l-27 51l-25 76l-24 -75l-59 -121h-130l129 256l-119 244h142l48 -107l21 -77l22 77l51 107h130l-120 -240z" horiz-adv-x="438" unicode="ӽ"/><glyph d="M318 313h-17.5t-14.5 -1q-70 -2 -97.5 -29.5t-27.5 -75.5q0 -52 29 -78.5t75 -26.5q39 0 72.5 11.5t51.5 21.5l34 -102q-24 -17 -71.5 -32t-104.5 -15q-102 0 -160 50.5t-58 159.5q0 73 28.5 116t79.5 57v6q-46 21 -68 65.5t-22 96.5q0 49 16.5 82.5t44 54t64 29.5 t76.5 9q26 0 50.5 -3.5t46 -9.5t38.5 -13t27 -13l-32 -105q-20 11 -49.5 19.5t-59.5 8.5q-44 0 -67 -19t-23 -63q0 -40 21 -62t48 -29q13 -5 34 -7t36 -2h22v-101h-22z" horiz-adv-x="442" unicode="Ԑ"/><glyph d="M230 210q-50 0 -68 -14.5t-18 -40.5t18 -43t53 -17q31 0 56.5 7t42.5 18l24 -97q-21 -14 -55.5 -24t-81.5 -10q-46 0 -79 11t-54.5 31.5t-32 48t-10.5 60.5q0 51 19.5 80t60.5 43v4q-33 14 -49 46t-16 67q0 64 39 96.5t105 32.5q52 0 90 -9.5t64 -24.5l-26 -96 q-17 9 -40 16.5t-52 7.5q-60 0 -60 -53q0 -23 17 -38t44 -15h48v-87h-39z" horiz-adv-x="355" unicode="ԑ"/><glyph d="M478 -30q0 -177 -134 -177q-25 0 -55 6v106q21 -2 33.5 3t19 17t8.5 30.5t2 44.5v584h-108q-3 -95 -7.5 -174t-11.5 -142.5t-18.5 -112.5t-28.5 -83q-12 -24 -26.5 -39.5t-30.5 -24t-31.5 -12t-28.5 -3.5q-21 0 -40 4t-33 11l18 113q17 -6 35 -1.5t34 33.5q12 22 21 64.5 t15.5 109.5t10 159t5.5 214h351v-730z" horiz-adv-x="523" unicode="Ԓ"/><glyph d="M271 391h-72q-4 -87 -11 -160t-22 -125.5t-40.5 -82t-66.5 -29.5q-25 0 -43 3.5t-31 11.5l14 104q24 -8 40.5 1t27.5 49.5t17.5 120.5t9.5 216h296v-500v-31q0 -84 -31 -129.5t-100 -45.5q-13 0 -27.5 1.5t-30.5 5.5v103q43 -4 56 21q13 22 14 75v391z" horiz-adv-x="433" unicode="ԓ"/><glyph d="M205 315l10 -126h4l11 128l94 383h88l91 -385l11 -126h4l11 128l62 383h128l-157 -705h-89l-98 386l-13 109h-5l-12 -110l-98 -385h-93l-156 705h139z" horiz-adv-x="717" unicode="Ԝ"/><glyph d="M352 500l70 -256l12 -83h4l10 84l47 255h108l-123 -505h-94l-75 279l-8 64h-6l-7 -66l-72 -277h-97l-128 505h129l54 -251l9 -89h4l13 90l61 250h89z" horiz-adv-x="596" unicode="ԝ"/><glyph d="M353 584h-182v-584h-126v700h434v-584h73v-241h-89l-12 125h-98v584z" horiz-adv-x="566" unicode="Ԥ"/><glyph d="M278 391h-116v-391h-119v500h354v-391h67v-223h-88l-13 114h-85v391z" horiz-adv-x="475" unicode="ԥ"/><glyph d="M344 227q0 60 -17 89.5t-60 29.5q-29 0 -54.5 -9t-41.5 -25v-312h-126v700h126v-282q21 14 57 27t86 13q35 0 64 -10t49.5 -33t31.5 -59.5t11 -89.5v-150h73v-241h-89l-12 125h-98v227z" horiz-adv-x="554" unicode="Ԧ"/><glyph d="M43 0zM291 302q0 54 -12.5 78t-45.5 24q-24 0 -44 -17t-27 -43v-344h-119v700h119v-245h3q20 26 48.5 42t71.5 16q31 0 54 -9t39 -30t24 -56.5t8 -89.5v-219h64v-223h-88l-13 114h-82v302z" horiz-adv-x="486" unicode="ԧ"/><glyph d="M45 0zM198 300h-27v-300h-126v700h126v-311l25 12l147 299h142l-160 -295l-47 -37l48 -38l185 -330h-154zM260 870h143v-30l-132 -88h-93z" horiz-adv-x="519" unicode="Ḱ"/><glyph d="M43 0zM190 207h-28v-207h-119v700h119v-413l24 14l83 199h129l-92 -198l-43 -34l47 -34l102 -234h-134zM252 720h119v-30l-94 -124h-67z" horiz-adv-x="412" unicode="ḱ"/><glyph d="M45 0zM493 361l14 134h-5l-37 -120l-114 -246h-42l-121 247l-37 121h-6l19 -135v-362h-119v700h121l146 -303l24 -87h4l23 89l137 301h119v-700h-126v361zM347 870h143v-30l-132 -88h-93z" horiz-adv-x="664" unicode="Ḿ"/><glyph d="M43 0zM274 0v291q0 63 -10 87.5t-39 24.5q-24 0 -39.5 -15.5t-23.5 -37.5v-350h-119v500h92l15 -60h3q19 31 47.5 51.5t75.5 20.5q39 0 63.5 -17t38.5 -60q19 36 50 56.5t73 20.5q33 0 56.5 -8.5t38 -29.5t21.5 -57.5t7 -92.5v-324h-119v304q0 51 -9 75t-40 24 q-25 0 -40.5 -14.5t-22.5 -39.5v-349h-119zM329 720h119v-30l-94 -124h-67z" horiz-adv-x="663" unicode="ḿ"/><glyph d="M45 0zM45 693q36 8 79 12.5t86 4.5q46 0 90.5 -8.5t79.5 -33.5t57 -70.5t22 -118.5q0 -66 -18.5 -112t-49.5 -75t-71.5 -42t-83.5 -13h-13t-19 0.5t-19.5 1.5t-13.5 2v-241h-126v693zM171 354q6 -2 22.5 -3.5t22.5 -1.5q22 0 42 6t35.5 20.5t24.5 40t9 64.5q0 33 -8.5 56 t-23 36.5t-33.5 19.5t-40 6q-31 0 -51 -5v-239zM238 870h143v-30l-132 -88h-93z" horiz-adv-x="477" unicode="Ṕ"/><glyph d="M43 0zM43 500h89l12 -57h3q23 36 51.5 52.5t70.5 16.5q76 0 114.5 -57.5t38.5 -191.5t-48 -205.5t-139 -71.5q-24 0 -41 4t-32 13v-203h-119v700zM162 112q10 -10 22.5 -15t32.5 -5q40 0 61 39.5t21 134.5q0 71 -16 105.5t-53 34.5q-50 0 -68 -59v-235zM212 720h119v-30 l-94 -124h-67z" horiz-adv-x="447" unicode="ṕ"/><glyph d="M346 579q-15 14 -39 21.5t-52 7.5q-27 0 -43.5 -10t-25.5 -29.5t-12 -47t-3 -62.5v-459h-126v496q0 110 50 163.5t160 53.5q84 0 140.5 -25t101.5 -64l-106 -187l-30 -29v-5l30 7q64 -5 103 -53t39 -140q0 -108 -51 -169.5t-152 -61.5q-12 0 -30 2t-35.5 6t-33 9 t-22.5 10l23 107q16 -9 41 -14t44 -5q41 0 62.5 29.5t21.5 81.5q0 57 -29 84t-92 27h-38v77z" horiz-adv-x="564" unicode="ẞ"/><glyph horiz-adv-x="508"/><glyph horiz-adv-x="1016"/><glyph horiz-adv-x="508"/><glyph horiz-adv-x="1016"/><glyph horiz-adv-x="338"/><glyph horiz-adv-x="254"/><glyph horiz-adv-x="169"/><glyph horiz-adv-x="169"/><glyph horiz-adv-x="127"/><glyph horiz-adv-x="203"/><glyph horiz-adv-x="56"/><glyph d="M45 344h208v-114h-208v114z" horiz-adv-x="298" unicode="‐"/><glyph d="M45 230zM45 344h208v-114h-208v114z" horiz-adv-x="298" unicode="‑"/><glyph d="M45 344h208v-114h-208v114z" horiz-adv-x="298" unicode="‒"/><glyph d="M87 343h368v-109h-368v109z" horiz-adv-x="543" unicode="–"/><glyph d="M88 343h499v-109h-499v109z" horiz-adv-x="676" unicode="—"/><glyph d="M159 618q0 -29 -17.5 -46.5t-43.5 -17.5q-32 0 -50.5 23.5t-18.5 61.5q0 39 11 67t27 47t32.5 30t28.5 16l32 -51q-17 -9 -30.5 -27t-15.5 -39q17 -2 31 -18.5t14 -45.5z" horiz-adv-x="190" unicode="‘"/><glyph d="M29 644q0 29 17.5 47t43.5 18q32 0 50.5 -22.5t18.5 -62.5q0 -39 -11 -66t-26.5 -45.5t-32.5 -29.5t-29 -16l-30 50q17 8 30 24t15 39q-17 1 -31.5 16.5t-14.5 47.5z" horiz-adv-x="188" unicode="’"/><glyph d="M29 0zM29 62q0 29 17.5 47t43.5 18q32 0 50.5 -22.5t18.5 -62.5q0 -39 -11 -66t-26.5 -45.5t-32.5 -29.5t-29 -16l-30 50q17 8 30 24t15 39q-17 1 -31.5 16.5t-14.5 47.5z" horiz-adv-x="188" unicode="‚"/><glyph d="M29 554zM312 618q0 -29 -17.5 -46.5t-43.5 -17.5q-32 0 -50.5 23.5t-18.5 61.5q0 39 11 67t27 47t32.5 30t28.5 16l32 -51q-17 -9 -30.5 -27t-15.5 -39q17 -2 31 -18.5t14 -45.5zM159 618q0 -29 -17.5 -46.5t-43.5 -17.5q-32 0 -50.5 23.5t-18.5 61.5q0 39 11 67t27 47 t32.5 30t28.5 16l32 -51q-17 -9 -30.5 -27t-15.5 -39q17 -2 31 -18.5t14 -45.5z" horiz-adv-x="343" unicode="“"/><glyph d="M29 467zM182 644q0 29 17.5 47t43.5 18q32 0 50.5 -22.5t18.5 -62.5q0 -39 -11 -66t-26.5 -45.5t-32.5 -29.5t-29 -16l-30 50q17 8 30 24t15 39q-17 1 -31.5 16.5t-14.5 47.5zM29 644q0 29 17.5 47t43.5 18q32 0 50.5 -22.5t18.5 -62.5q0 -39 -11 -66t-26.5 -45.5 t-32.5 -29.5t-29 -16l-30 50q17 8 30 24t15 39q-17 1 -31.5 16.5t-14.5 47.5z" horiz-adv-x="341" unicode="”"/><glyph d="M29 0zM182 62q0 29 17.5 47t43.5 18q32 0 50.5 -22.5t18.5 -62.5q0 -39 -11 -66t-26.5 -45.5t-32.5 -29.5t-29 -16l-30 50q17 8 30 24t15 39q-17 1 -31.5 16.5t-14.5 47.5zM29 62q0 29 17.5 47t43.5 18q32 0 50.5 -22.5t18.5 -62.5q0 -39 -11 -66t-26.5 -45.5 t-32.5 -29.5t-29 -16l-30 50q17 8 30 24t15 39q-17 1 -31.5 16.5t-14.5 47.5z" horiz-adv-x="341" unicode="„"/><glyph d="M33 509h92l44 -15l-14 53v153h114v-153l-14 -53l44 15h92v-104h-93l-43 15l14 -49v-371l-14 -200h-86l-14 201v370l14 49l-44 -15h-92v104z" horiz-adv-x="424" unicode="†"/><glyph d="M155 375l14 45l-44 -15h-92v104h92l44 -15l-14 50v156h114v-156l-14 -50l44 15h92v-104h-93l-43 15l14 -45v-92l-14 -45l43 15h93v-104h-92l-44 15l14 -50v-114l-15 -200h-84l-15 201v113l14 50l-44 -15h-92v104h92l44 -15l-14 45v92z" horiz-adv-x="424" unicode="‡"/><glyph d="M57 311q0 34 9.5 62.5t26.5 48.5t40.5 31t51.5 11q57 0 93.5 -39.5t36.5 -113.5q0 -73 -36.5 -112.5t-93.5 -39.5q-56 0 -92 39.5t-36 112.5z" horiz-adv-x="372" unicode="•"/><glyph d="M538 65q0 37 19.5 56t51.5 19q35 0 54 -19t19 -56q0 -36 -19.5 -56t-53.5 -20q-33 0 -52 20t-19 56zM292 65q0 37 19.5 56t51.5 19q35 0 54 -19t19 -56q0 -36 -19.5 -56t-53.5 -20q-33 0 -52 20t-19 56zM45 65q0 37 19.5 56t51.5 19q35 0 54 -19t19 -56q0 -36 -19.5 -56 t-53.5 -20q-33 0 -52 20t-19 56z" horiz-adv-x="721" unicode="…"/><glyph horiz-adv-x="203"/><glyph d="M41 0zM41 542q0 46 11 78t31 52.5t47.5 30t60.5 9.5t60.5 -8.5t47.5 -28.5t31.5 -52.5t11.5 -80.5t-11.5 -80.5t-31.5 -52.5t-47.5 -28.5t-60.5 -8.5t-60.5 8.5t-47.5 28.5t-31 52.5t-11 80.5zM147 542q0 -48 10.5 -67.5t33.5 -19.5q12 0 20.5 3.5t14 13.5t8 27t2.5 43 q0 51 -11 69t-34 18t-33.5 -18t-10.5 -69zM387 171q0 46 11 78t31 52.5t47.5 30t60.5 9.5t60.5 -8.5t47.5 -28.5t31.5 -52.5t11.5 -80.5t-11.5 -80.5t-31.5 -52.5t-47.5 -28.5t-60.5 -8.5t-60.5 8.5t-47.5 28.5t-31 52.5t-11 80.5zM493 171q0 -48 10.5 -67.5t33.5 -19.5 q12 0 20.5 3.5t14 13.5t8 27t2.5 43q0 51 -11 69t-34 18t-33.5 -18t-10.5 -69zM717 171q0 46 11 78t31 52.5t47.5 30t60.5 9.5t60.5 -8.5t47.5 -28.5t31.5 -52.5t11.5 -80.5t-11.5 -80.5t-31.5 -52.5t-47.5 -28.5t-60.5 -8.5t-60.5 8.5t-47.5 28.5t-31 52.5t-11 80.5z M823 171q0 -48 10.5 -67.5t33.5 -19.5q12 0 20.5 3.5t14 13.5t8 27t2.5 43q0 51 -11 69t-34 18t-33.5 -18t-10.5 -69zM575 714l70 -58l-494 -670l-71 59z" horiz-adv-x="1054" unicode="‰"/><glyph d="M22 259l131 230l73 -47l-73 -141l-39 -41l39 -36l80 -135l-75 -51z" horiz-adv-x="256" unicode="‹"/><glyph d="M235 268l-131 -230l-74 48l73 140l40 41l-40 36l-80 136l76 50z" horiz-adv-x="257" unicode="›"/><glyph d="M209 715l81 -39l-342 -690l-83 41z" horiz-adv-x="154" unicode="⁄"/><glyph horiz-adv-x="254"/><glyph d="M66 -5h78v168l9 46l-26 -32l-46 -31l-44 69l131 112h82v-332h70v-95h-254v95z" horiz-adv-x="357" unicode="₁"/><glyph d="M301 204q0 -30 -7.5 -56.5t-19.5 -50t-28 -44.5t-33 -40l-39 -25v-4l49 11h89v-95h-265v67q23 18 49.5 43.5t49 54t37 58t14.5 57.5q0 51 -46 51q-22 0 -41 -6.5t-33 -15.5l-30 83q29 20 63 27.5t63 7.5q60 0 94 -31.5t34 -91.5z" horiz-adv-x="357" unicode="₂"/><glyph d="M146 -16q36 0 50.5 15t14.5 39q0 23 -15.5 36.5t-55.5 13.5h-39v38l60 81l38 28l-50 -6h-93v91h240v-60l-70 -94l-30 -19v-4l27 3q42 -2 66.5 -31.5t24.5 -83.5q0 -36 -12.5 -62t-33.5 -43t-48 -25t-57 -8q-33 0 -62 6.5t-50 17.5l21 86q37 -19 74 -19z" horiz-adv-x="357" unicode="₃"/><glyph d="M347 -20h-61v-80h-95v80h-171v64l177 281h89v-259h61v-86zM191 150l7 55h-5l-18 -51l-38 -65l-31 -30l43 7h42v84z" horiz-adv-x="357" unicode="₄"/><glyph d="M465 24q-26 -19 -66.5 -28t-77.5 -9q-55 0 -100.5 21t-78.5 65.5t-52 112.5q-6 23 -10 48h-77l29 91h40v25v33h-69l29 91h50q4 23 11 44q21 70 56.5 113.5t81 63t95.5 19.5q42 0 74.5 -7t55.5 -16l-32 -100q-35 16 -95 16q-66 0 -105 -61q-18 -28 -28 -72h208l-23 -91 h-196v-33v-25h179l-23 -91h-146q9 -44 27 -75q37 -65 116 -65q63 0 103 26z" unicode="€"/><glyph d="M421 321v-91h-203q-12 -16 -21 -39t-9 -44q0 -26 17.5 -42.5t59.5 -16.5q43 0 68 8t43 19l27 -92q-20 -14 -58.5 -25t-107.5 -11q-78 0 -121 35.5t-43 105.5q0 34 11 62t18 40h-61v91h380zM41 379v91h204q12 16 21 38.5t9 45.5q0 28 -15 43.5t-48 15.5q-29 0 -52.5 -7 t-43.5 -19l-35 92q15 8 29 14.5t32 11t41 7t56 2.5q73 0 112 -33t39 -101q0 -32 -11.5 -61.5t-23.5 -48.5h66v-91h-380z" unicode="₴"/><glyph d="M20 216h67v57h-67v90h67v330q35 8 72.5 12.5t80.5 4.5q45 0 85 -9t70 -33t48 -66t18 -108q0 -61 -17.5 -103t-46.5 -68.5t-66.5 -38t-78.5 -11.5h-51v-57h131v-91h-131v-125h-114v125h-67v91zM253 604q-17 0 -30.5 -1t-21.5 -4v-234h39q21 -1 39.5 5t32 20.5t21.5 38.5 t8 59q0 62 -25 89t-63 27z" unicode="₶"/><glyph d="M20 0zM20 216h67v57h-67v90h67v330q35 8 72.5 12.5t80.5 4.5q45 0 85 -9t70 -33t48 -66t18 -108q0 -61 -17.5 -103t-46.5 -68.5t-66.5 -38t-78.5 -11.5h-51v-57h131v-91h-131v-125h-114v125h-67v91zM253 604q-17 0 -30.5 -1t-21.5 -4v-234h39q21 -1 39.5 5t32 20.5 t21.5 38.5t8 59q0 62 -25 89t-63 27z" unicode="₷"/><glyph d="M20 0zM20 216h67v57h-67v90h67v330q35 8 72.5 12.5t80.5 4.5q45 0 85 -9t70 -33t48 -66t18 -108q0 -61 -17.5 -103t-46.5 -68.5t-66.5 -38t-78.5 -11.5h-51v-57h131v-91h-131v-125h-114v125h-67v91zM253 604q-17 0 -30.5 -1t-21.5 -4v-234h39q21 -1 39.5 5t32 20.5 t21.5 38.5t8 59q0 62 -25 89t-63 27z" unicode="₹"/><glyph d="M20 0zM20 216h67v57h-67v90h67v330q35 8 72.5 12.5t80.5 4.5q45 0 85 -9t70 -33t48 -66t18 -108q0 -61 -17.5 -103t-46.5 -68.5t-66.5 -38t-78.5 -11.5h-51v-57h131v-91h-131v-125h-114v125h-67v91zM253 604q-17 0 -30.5 -1t-21.5 -4v-234h39q21 -1 39.5 5t32 20.5 t21.5 38.5t8 59q0 62 -25 89t-63 27z" unicode="₺"/><glyph d="M20 0zM20 216h67v57h-67v90h67v330q35 8 72.5 12.5t80.5 4.5q45 0 85 -9t70 -33t48 -66t18 -108q0 -61 -17.5 -103t-46.5 -68.5t-66.5 -38t-78.5 -11.5h-51v-57h131v-91h-131v-125h-114v125h-67v91zM253 604q-17 0 -30.5 -1t-21.5 -4v-234h39q21 -1 39.5 5t32 20.5 t21.5 38.5t8 59q0 62 -25 89t-63 27z" unicode="₻"/><glyph d="M20 0zM20 216h67v57h-67v90h67v330q35 8 72.5 12.5t80.5 4.5q45 0 85 -9t70 -33t48 -66t18 -108q0 -61 -17.5 -103t-46.5 -68.5t-66.5 -38t-78.5 -11.5h-51v-57h131v-91h-131v-125h-114v125h-67v91zM253 604q-17 0 -30.5 -1t-21.5 -4v-234h39q21 -1 39.5 5t32 20.5 t21.5 38.5t8 59q0 62 -25 89t-63 27z" unicode="₼"/><glyph d="M20 0zM20 216h67v57h-67v90h67v330q35 8 72.5 12.5t80.5 4.5q45 0 85 -9t70 -33t48 -66t18 -108q0 -61 -17.5 -103t-46.5 -68.5t-66.5 -38t-78.5 -11.5h-51v-57h131v-91h-131v-125h-114v125h-67v91zM253 604q-17 0 -30.5 -1t-21.5 -4v-234h39q21 -1 39.5 5t32 20.5 t21.5 38.5t8 59q0 62 -25 89t-63 27z" unicode="₽"/><glyph d="M20 0zM20 216h67v57h-67v90h67v330q35 8 72.5 12.5t80.5 4.5q45 0 85 -9t70 -33t48 -66t18 -108q0 -61 -17.5 -103t-46.5 -68.5t-66.5 -38t-78.5 -11.5h-51v-57h131v-91h-131v-125h-114v125h-67v91zM253 604q-17 0 -30.5 -1t-21.5 -4v-234h39q21 -1 39.5 5t32 20.5 t21.5 38.5t8 59q0 62 -25 89t-63 27z" unicode="₾"/><glyph d="M20 0zM20 216h67v57h-67v90h67v330q35 8 72.5 12.5t80.5 4.5q45 0 85 -9t70 -33t48 -66t18 -108q0 -61 -17.5 -103t-46.5 -68.5t-66.5 -38t-78.5 -11.5h-51v-57h131v-91h-131v-125h-114v125h-67v91zM253 604q-17 0 -30.5 -1t-21.5 -4v-234h39q21 -1 39.5 5t32 20.5 t21.5 38.5t8 59q0 62 -25 89t-63 27z" unicode="₿"/><glyph d="M20 0zM20 216h67v57h-67v90h67v330q35 8 72.5 12.5t80.5 4.5q45 0 85 -9t70 -33t48 -66t18 -108q0 -61 -17.5 -103t-46.5 -68.5t-66.5 -38t-78.5 -11.5h-51v-57h131v-91h-131v-125h-114v125h-67v91zM253 604q-17 0 -30.5 -1t-21.5 -4v-234h39q21 -1 39.5 5t32 20.5 t21.5 38.5t8 59q0 62 -25 89t-63 27z" unicode="⃀"/><glyph d="M20 0zM20 216h67v57h-67v90h67v330q35 8 72.5 12.5t80.5 4.5q45 0 85 -9t70 -33t48 -66t18 -108q0 -61 -17.5 -103t-46.5 -68.5t-66.5 -38t-78.5 -11.5h-51v-57h131v-91h-131v-125h-114v125h-67v91zM253 604q-17 0 -30.5 -1t-21.5 -4v-234h39q21 -1 39.5 5t32 20.5 t21.5 38.5t8 59q0 62 -25 89t-63 27z" unicode="⃁"/><glyph d="M20 0zM20 216h67v57h-67v90h67v330q35 8 72.5 12.5t80.5 4.5q45 0 85 -9t70 -33t48 -66t18 -108q0 -61 -17.5 -103t-46.5 -68.5t-66.5 -38t-78.5 -11.5h-51v-57h131v-91h-131v-125h-114v125h-67v91zM253 604q-17 0 -30.5 -1t-21.5 -4v-234h39q21 -1 39.5 5t32 20.5 t21.5 38.5t8 59q0 62 -25 89t-63 27z" unicode="⃂"/><glyph d="M20 0zM20 216h67v57h-67v90h67v330q35 8 72.5 12.5t80.5 4.5q45 0 85 -9t70 -33t48 -66t18 -108q0 -61 -17.5 -103t-46.5 -68.5t-66.5 -38t-78.5 -11.5h-51v-57h131v-91h-131v-125h-114v125h-67v91zM253 604q-17 0 -30.5 -1t-21.5 -4v-234h39q21 -1 39.5 5t32 20.5 t21.5 38.5t8 59q0 62 -25 89t-63 27z" unicode="⃃"/><glyph d="M20 0zM20 216h67v57h-67v90h67v330q35 8 72.5 12.5t80.5 4.5q45 0 85 -9t70 -33t48 -66t18 -108q0 -61 -17.5 -103t-46.5 -68.5t-66.5 -38t-78.5 -11.5h-51v-57h131v-91h-131v-125h-114v125h-67v91zM253 604q-17 0 -30.5 -1t-21.5 -4v-234h39q21 -1 39.5 5t32 20.5 t21.5 38.5t8 59q0 62 -25 89t-63 27z" unicode="⃄"/><glyph d="M20 0zM20 216h67v57h-67v90h67v330q35 8 72.5 12.5t80.5 4.5q45 0 85 -9t70 -33t48 -66t18 -108q0 -61 -17.5 -103t-46.5 -68.5t-66.5 -38t-78.5 -11.5h-51v-57h131v-91h-131v-125h-114v125h-67v91zM253 604q-17 0 -30.5 -1t-21.5 -4v-234h39q21 -1 39.5 5t32 20.5 t21.5 38.5t8 59q0 62 -25 89t-63 27z" unicode="⃅"/><glyph d="M20 0zM20 216h67v57h-67v90h67v330q35 8 72.5 12.5t80.5 4.5q45 0 85 -9t70 -33t48 -66t18 -108q0 -61 -17.5 -103t-46.5 -68.5t-66.5 -38t-78.5 -11.5h-51v-57h131v-91h-131v-125h-114v125h-67v91zM253 604q-17 0 -30.5 -1t-21.5 -4v-234h39q21 -1 39.5 5t32 20.5 t21.5 38.5t8 59q0 62 -25 89t-63 27z" unicode="⃆"/><glyph d="M20 0zM20 216h67v57h-67v90h67v330q35 8 72.5 12.5t80.5 4.5q45 0 85 -9t70 -33t48 -66t18 -108q0 -61 -17.5 -103t-46.5 -68.5t-66.5 -38t-78.5 -11.5h-51v-57h131v-91h-131v-125h-114v125h-67v91zM253 604q-17 0 -30.5 -1t-21.5 -4v-234h39q21 -1 39.5 5t32 20.5 t21.5 38.5t8 59q0 62 -25 89t-63 27z" unicode="⃇"/><glyph d="M20 0zM20 216h67v57h-67v90h67v330q35 8 72.5 12.5t80.5 4.5q45 0 85 -9t70 -33t48 -66t18 -108q0 -61 -17.5 -103t-46.5 -68.5t-66.5 -38t-78.5 -11.5h-51v-57h131v-91h-131v-125h-114v125h-67v91zM253 604q-17 0 -30.5 -1t-21.5 -4v-234h39q21 -1 39.5 5t32 20.5 t21.5 38.5t8 59q0 62 -25 89t-63 27z" unicode="⃈"/><glyph d="M20 0zM20 216h67v57h-67v90h67v330q35 8 72.5 12.5t80.5 4.5q45 0 85 -9t70 -33t48 -66t18 -108q0 -61 -17.5 -103t-46.5 -68.5t-66.5 -38t-78.5 -11.5h-51v-57h131v-91h-131v-125h-114v125h-67v91zM253 604q-17 0 -30.5 -1t-21.5 -4v-234h39q21 -1 39.5 5t32 20.5 t21.5 38.5t8 59q0 62 -25 89t-63 27z" unicode="⃉"/><glyph d="M20 0zM20 216h67v57h-67v90h67v330q35 8 72.5 12.5t80.5 4.5q45 0 85 -9t70 -33t48 -66t18 -108q0 -61 -17.5 -103t-46.5 -68.5t-66.5 -38t-78.5 -11.5h-51v-57h131v-91h-131v-125h-114v125h-67v91zM253 604q-17 0 -30.5 -1t-21.5 -4v-234h39q21 -1 39.5 5t32 20.5 t21.5 38.5t8 59q0 62 -25 89t-63 27z" unicode="⃊"/><glyph d="M20 0zM20 216h67v57h-67v90h67v330q35 8 72.5 12.5t80.5 4.5q45 0 85 -9t70 -33t48 -66t18 -108q0 -61 -17.5 -103t-46.5 -68.5t-66.5 -38t-78.5 -11.5h-51v-57h131v-91h-131v-125h-114v125h-67v91zM253 604q-17 0 -30.5 -1t-21.5 -4v-234h39q21 -1 39.5 5t32 20.5 t21.5 38.5t8 59q0 62 -25 89t-63 27z" unicode="⃋"/><glyph d="M20 0zM20 216h67v57h-67v90h67v330q35 8 72.5 12.5t80.5 4.5q45 0 85 -9t70 -33t48 -66t18 -108q0 -61 -17.5 -103t-46.5 -68.5t-66.5 -38t-78.5 -11.5h-51v-57h131v-91h-131v-125h-114v125h-67v91zM253 604q-17 0 -30.5 -1t-21.5 -4v-234h39q21 -1 39.5 5t32 20.5 t21.5 38.5t8 59q0 62 -25 89t-63 27z" unicode="⃌"/><glyph d="M20 0zM20 216h67v57h-67v90h67v330q35 8 72.5 12.5t80.5 4.5q45 0 85 -9t70 -33t48 -66t18 -108q0 -61 -17.5 -103t-46.5 -68.5t-66.5 -38t-78.5 -11.5h-51v-57h131v-91h-131v-125h-114v125h-67v91zM253 604q-17 0 -30.5 -1t-21.5 -4v-234h39q21 -1 39.5 5t32 20.5 t21.5 38.5t8 59q0 62 -25 89t-63 27z" unicode="⃍"/><glyph d="M20 0zM20 216h67v57h-67v90h67v330q35 8 72.5 12.5t80.5 4.5q45 0 85 -9t70 -33t48 -66t18 -108q0 -61 -17.5 -103t-46.5 -68.5t-66.5 -38t-78.5 -11.5h-51v-57h131v-91h-131v-125h-114v125h-67v91zM253 604q-17 0 -30.5 -1t-21.5 -4v-234h39q21 -1 39.5 5t32 20.5 t21.5 38.5t8 59q0 62 -25 89t-63 27z" unicode="⃎"/><glyph d="M20 0zM20 216h67v57h-67v90h67v330q35 8 72.5 12.5t80.5 4.5q45 0 85 -9t70 -33t48 -66t18 -108q0 -61 -17.5 -103t-46.5 -68.5t-66.5 -38t-78.5 -11.5h-51v-57h131v-91h-131v-125h-114v125h-67v91zM253 604q-17 0 -30.5 -1t-21.5 -4v-234h39q21 -1 39.5 5t32 20.5 t21.5 38.5t8 59q0 62 -25 89t-63 27z" unicode="⃏"/><glyph d="M406 30q-22 -14 -57.5 -28t-70.5 -14q-63 0 -91.5 30.5t-28.5 95.5v104l-50 -44l-35 44l85 74v254q0 44 10 75.5t27.5 51.5t41 29.5t50.5 9.5q48 0 79 -29.5t31 -89.5q0 -74 -40 -157t-131 -171v-140q0 -44 17 -60.5t41 -16.5q25 0 55 10.5t50 21.5zM333 588q0 34 -14 49 t-32 15q-12 0 -23 -3.5t-19.5 -14t-13.5 -29t-5 -48.5v-212q56 65 81.5 125.5t25.5 117.5z" horiz-adv-x="500" unicode="ℓ"/><glyph d="M539 323h271v-106h-271v106zM198 345l-45 132h-5l16 -130v-347h-119v705h98l189 -358l42 -124h6l-16 122v355h119v-705h-98zM523 542q0 46 11 78t31 52.5t47.5 30t60.5 9.5t60.5 -8.5t47.5 -28.5t31.5 -52.5t11.5 -80.5t-11.5 -80.5t-31.5 -52.5t-47.5 -28.5t-60.5 -8.5 t-60.5 8.5t-47.5 28.5t-31 52.5t-11 80.5zM628 542q0 -48 11 -67.5t34 -19.5q12 0 20.5 3.5t14 13.5t8 27t2.5 43q0 51 -11 69t-34 18t-34 -18t-11 -69z" horiz-adv-x="857" unicode="№"/><glyph d="M330 594h-93v-254h-119v254h-93v106h305v-106zM670 484l15 103h-5l-29 -85l-51 -117h-75l-52 114l-32 88h-5l21 -101v-146h-100v360h120l72 -143l18 -63h1l19 65l66 141h119v-360h-102v144z" horiz-adv-x="801" unicode="™"/><glyph d="M157 259v-181q62 -59 145 -59q124 0 193 120l35 -21q-43 -66 -99 -100.5t-129 -34.5q-59 0 -107 21.5t-81.5 58.5t-51.5 87.5t-18 108.5q0 59 18.5 109.5t52.5 87.5t81.5 58t105.5 21q62 0 109.5 -22t80.5 -59.5t50 -87.5t19 -107h-404zM448 295v145q-63 60 -147 60 q-86 0 -144 -60v-145h291z" horiz-adv-x="600" unicode="℮"/><glyph d="M226 503q33 0 50 -6.5t30 -17.5h5q-5 43 -23.5 71t-46 43t-60 20t-63.5 2l20 99q63 3 116.5 -9.5t93.5 -48t62.5 -98t22.5 -159.5q0 -109 -17 -187t-48.5 -128t-75 -73.5t-95.5 -23.5q-88 0 -135 55.5t-47 155.5q0 60 12.5 115t38.5 97t66 67.5t94 25.5zM237 397 q-42 0 -70.5 -49t-28.5 -146q0 -50 17 -79.5t51 -29.5q30 0 50 23t32 61t17 87.5t5 102.5q-14 15 -30.5 22.5t-42.5 7.5z" horiz-adv-x="451" unicode="∂"/><glyph d="M365 587h-198v-787h-123v900h444v-900h-123v787z" horiz-adv-x="532" unicode="∏"/><glyph d="M163 -48l-36 -39h296v-113h-403v113l149 301l32 34l-36 37l-145 302v113h403v-113h-284l39 -41l136 -290z" horiz-adv-x="444" unicode="∑"/><glyph d="M38 393h368v-106h-368v106z" horiz-adv-x="444" unicode="−"/><glyph d="M9 0zM353 715l81 -39l-342 -690l-83 41z" horiz-adv-x="444" unicode="∕"/><glyph d="M159 475l61 -170l18 -131h4l13 133l98 393h110l-190 -705h-64l-124 374h-88v106h162z" horiz-adv-x="444" unicode="√"/><glyph d="M347 264q-30 -57 -72 -85t-94 -28q-31 0 -59 13.5t-49 38.5t-33.5 61.5t-12.5 83.5q0 49 12.5 87t34 64t51.5 39.5t65 13.5q62 0 103.5 -29.5t72.5 -74.5q37 55 79 79.5t93 24.5q32 0 59 -13t47 -38t31.5 -61.5t11.5 -83.5q0 -100 -48 -152.5t-123 -52.5q-60 0 -100 32 t-69 81zM515 255q29 0 45 28t16 70q0 18 -3 35t-10.5 30.5t-19.5 21.5t-30 8q-25 0 -50.5 -22t-48.5 -60q9 -21 20 -41t24 -35.5t27.5 -25t29.5 -9.5zM200 448q-29 0 -45.5 -29.5t-16.5 -69.5q0 -39 18.5 -66.5t47.5 -27.5q26 0 52 26t44 59q-17 45 -42 76.5t-58 31.5z" horiz-adv-x="714" unicode="∞"/><glyph d="M211 -34q0 -96 -35.5 -135t-100.5 -39q-38 0 -74.5 6.5t-56.5 15.5l26 98q34 -14 67 -14q32 0 43.5 23t11.5 78v539q0 96 31.5 136t102.5 40q32 0 67.5 -6.5t57.5 -15.5l-19 -98q-18 8 -34.5 11t-37.5 3q-28 0 -38.5 -20.5t-10.5 -74.5v-547z" horiz-adv-x="307" unicode="∫"/><glyph d="M23 172zM23 473q39 38 71 52.5t59 14.5q24 0 45 -8t40 -18t37.5 -18t38.5 -8q15 0 30.5 6.5t32.5 21.5l44 -103q-30 -27 -55 -37.5t-47 -10.5q-23 0 -43.5 8.5t-40 19t-39 19.5t-40.5 9q-20 0 -42.5 -10.5t-49.5 -37.5zM23 280q39 38 71 52.5t59 14.5q24 0 45 -8t40 -18 t37.5 -18t38.5 -8q15 0 30.5 6.5t32.5 21.5l44 -103q-30 -27 -55 -37.5t-47 -10.5q-23 0 -43.5 8.5t-40 19t-39 19.5t-40.5 9q-20 0 -42.5 -10.5t-49.5 -37.5z" horiz-adv-x="444" unicode="≈"/><glyph d="M30 489h187l42 114h103l-42 -114h78v-106h-117l-32 -86h149v-106h-188l-49 -134h-102l49 134h-78v106h117l31 86h-148v106z" horiz-adv-x="428" unicode="≠"/><glyph d="M412 80l-60 -85l-308 207l60 85zM37 413v70l311 222l60 -81l-186 -139l-75 -35l74 -31l191 -137l-60 -81z" horiz-adv-x="444" unicode="≤"/><glyph d="M406 205l-307 -210l-60 84l306 211zM407 493v-70l-311 -222l-60 81l186 139l75 35l-74 31l-191 137l60 81z" horiz-adv-x="444" unicode="≥"/><glyph d="M256 -5h-72l-161 347l161 363h72l165 -358zM249 203l62 131l-71 156l-21 85h-4l-22 -86l-60 -134l71 -154l21 -86h4z" horiz-adv-x="444" unicode="◊"/><glyph d="M362 296h-191v-296h-126v700h126v-288h191v288h126v-584h73v-241h-89l-12 125h-98v296z" horiz-adv-x="575" unicode="Ⱨ"/><glyph d="M291 302q0 54 -12.5 78t-45.5 24q-24 0 -44 -17t-27 -43v-344h-119v700h119v-245h3q20 26 48.5 42t71.5 16q31 0 54 -9t39 -30t24 -56.5t8 -89.5v-219h64v-223h-88l-13 114h-82v302z" horiz-adv-x="486" unicode="ⱨ"/><glyph d="M0 500h500v-500h-500v500z" horiz-adv-x="500" unicode=""/><glyph d="M-197 752zM-340 870h143v-30l-132 -88h-93z" horiz-adv-x="2" unicode=""/><glyph d="M106 875q17 -26 49 -40.5t70 -14.5q40 0 68.5 15t45.5 40l44 -31q-11 -30 -28 -51.5t-38.5 -35.5t-45 -20.5t-47.5 -6.5q-22 0 -45.5 6t-46 19t-41.5 34t-31 51z" horiz-adv-x="443" unicode=""/><glyph d="M60 0zM171 -43q34 -4 54 -21.5t20 -53.5q0 -29 -16.5 -48.5t-42.5 -30.5t-59 -13t-67 6l7 56q36 -6 52.5 -1t16.5 22q0 28 -70 32l49 95h76z" horiz-adv-x="305" unicode=""/><glyph d="M169 870h87l104 -93v-39h-85l-47 41l-17 34l-18 -33l-50 -42h-83v40z" horiz-adv-x="420" unicode=""/><glyph d="M61 -42zM61 -106q0 29 18 46.5t44 17.5q31 0 50.5 -22t19.5 -67q0 -33 -10 -58t-24.5 -42t-30 -27.5t-27.5 -14.5l-33 46q13 8 25 23.5t14 37.5q-15 1 -30.5 15t-15.5 45z" horiz-adv-x="253" unicode=""/><glyph d="M29 467zM29 644q0 29 17.5 47t43.5 18q32 0 50.5 -22.5t18.5 -62.5q0 -39 -11 -66t-26.5 -45.5t-32.5 -29.5t-29 -16l-30 50q17 8 30 24t15 39q-17 1 -31.5 16.5t-14.5 47.5z" horiz-adv-x="188" unicode=""/><glyph d="M60 799q0 25 19.5 43t57.5 18q39 0 59 -18t20 -43q0 -26 -20 -44t-59 -18q-38 0 -57.5 18t-19.5 44z" horiz-adv-x="276" unicode=""/><glyph d="M60 772q0 18 5 34.5t18 29t34 19.5t54 7q61 0 86.5 -24t25.5 -66q0 -18 -5.5 -34t-18.5 -27.5t-34.5 -18.5t-53.5 -7q-62 0 -86.5 24.5t-24.5 62.5zM135 772q0 -31 36 -31q21 0 29 7.5t8 23.5q0 17 -8.5 25.5t-28.5 8.5q-36 0 -36 -34z" horiz-adv-x="343" unicode=""/><glyph d="M60 796q29 37 56 50.5t53 13.5q19 0 38 -5.5t37 -11.5l34.5 -11.5t32.5 -5.5q14 0 27 5.5t25 19.5l27 -63q-26 -29 -49.5 -39.5t-46.5 -10.5q-19 0 -37.5 5.5t-36 11.5t-34.5 11.5t-34 5.5t-33 -7t-33 -27z" horiz-adv-x="450" unicode=""/><glyph d="M60 0zM238 10q-62 -22 -62 -79q0 -25 17.5 -37.5t49.5 2.5l18 -58q-6 -6 -16 -12t-23 -11t-28.5 -8.5t-30.5 -3.5q-51 0 -77 25t-26 65q0 42 25 71t64 46h89z" horiz-adv-x="321" unicode=""/><glyph d="M45 0zM445 538q0 -26 -5.5 -51.5t-17.5 -48t-31.5 -39.5t-46.5 -26v-6q24 -6 45.5 -18t37.5 -32.5t25.5 -50t9.5 -69.5q0 -54 -18.5 -93.5t-50 -64.5t-73.5 -37t-89 -12h-36t-47.5 1.5t-52.5 4.5t-50 9v690q33 6 81.5 10.5t96.5 4.5q44 0 84.5 -7t71 -26t48.5 -52.5 t18 -86.5zM234 99q42 0 69 27t27 79q0 33 -9 52.5t-24 30t-34.5 13.5t-40.5 3h-51v-199q8 -3 27.5 -4.5t35.5 -1.5zM200 403q11 0 25.5 1.5t23.5 3.5q29 11 49.5 36t20.5 65q0 26 -7 44t-19 28.5t-28.5 15t-35.5 4.5q-41 0 -58 -4v-194h29zM233 870h143v-30l-132 -88h-93z" horiz-adv-x="490" unicode=""/><glyph d="M43 0zM43 700h119v-232h3q36 44 103 44q71 0 110.5 -59t39.5 -190q0 -142 -56 -208.5t-153 -66.5q-53 0 -97.5 10t-68.5 22v680zM162 108q21 -11 55 -11q38 0 58 36.5t20 122.5q0 76 -16 111.5t-50 35.5q-50 0 -67 -52v-243zM259 720h119v-30l-94 -124h-67z" horiz-adv-x="443" unicode=""/><glyph d="M45 0zM45 700h350v-116h-224v-182h206v-116h-206v-286h-126v700zM229 870h143v-30l-132 -88h-93z" horiz-adv-x="419" unicode=""/><glyph d="M8 0zM8 500h54v28q0 95 35.5 137.5t101.5 42.5t110 -18l-22 -101q-18 7 -32 8.5t-29 1.5q-29 0 -37 -22.5t-8 -76.5h85v-106h-85v-394h-119v394h-54v106zM211 870h143v-30l-132 -88h-93z" horiz-adv-x="267" unicode=""/><glyph d="M-12 606h60v94h126v-94h183v-91h-183v-97q21 14 57 27t86 13q35 0 64 -10t49.5 -33t31.5 -59.5t11 -89.5v-266h-126v227q0 60 -17 89.5t-60 29.5q-29 0 -54.5 -9t-41.5 -25v-312h-126v515h-60v91z" horiz-adv-x="507" unicode=""/><glyph d="M0 0zM-9 641h59v59h119v-59h133v-79h-133v-107h3q20 26 48.5 42t71.5 16q31 0 54 -9t39 -30t24 -56.5t8 -89.5v-328h-119v302q0 54 -12.5 78t-45.5 24q-24 0 -44 -17t-27 -43v-344h-119v562h-59v79z" horiz-adv-x="456" unicode=""/><glyph d="M160 700v-230q0 -62 18 -88.5t59 -26.5q29 0 54.5 9t40.5 26v310h126v-729q0 -91 -35.5 -134.5t-103.5 -43.5q-25 0 -55 6v106q43 -5 55.5 21.5t12.5 74.5v281q-20 -14 -55.5 -26.5t-83.5 -12.5q-33 0 -62 9.5t-50.5 31t-34 57t-12.5 88.5v271h126z" horiz-adv-x="504" unicode=""/><glyph d="M143 500v-134q0 -53 9.5 -76.5t41.5 -23.5q22 0 37.5 6.5t25.5 14.5v213h119v-531q0 -84 -31 -129.5t-100 -45.5q-13 0 -27.5 1.5t-30.5 5.5v103q43 -4 56.5 20.5t13.5 75.5v194q-12 -10 -37 -22t-67 -12q-30 0 -54 7.5t-40.5 26.5t-25.5 50t-9 78v178h119z" horiz-adv-x="419" unicode=""/><glyph d="M0 0zM246 395l15 -93h5l13 96l79 302h130l-156 -484q-18 -57 -34 -98.5t-35 -69.5t-42.5 -41.5t-57.5 -13.5q-27 0 -46.5 5t-40.5 19l31 106q14 -8 25 -10.5t23 -3.5q37 0 51 76l-216 515h149zM245 870h143v-30l-132 -88h-93z" horiz-adv-x="475" unicode=""/><glyph d="M0 0zM203 219l13 -78h5l9 79l58 280h122l-125 -451q-17 -59 -32 -106t-32 -80t-38.5 -50.5t-51.5 -17.5q-21 0 -40.5 3.5t-33.5 11.5l20 102q13 -5 26.5 -4.5t25 10t20.5 29.5t15 53l-174 500h143zM205 720h119v-30l-94 -124h-67z" horiz-adv-x="400" unicode=""/><glyph d="M14 0zM105 407h211q-2 42 -10.5 77t-26 60.5t-43 39.5t-61.5 14q-43 0 -75.5 -10.5t-55.5 -24.5l-29 109q32 19 78 30.5t89 11.5q60 0 109.5 -19.5t84 -62.5t53.5 -112.5t19 -168.5q0 -106 -22 -176.5t-60.5 -112.5t-89 -59t-107.5 -17q-49 0 -90.5 10t-64.5 22l33 112 q20 -10 53 -19t74 -9q66 0 102 48.5t41 152.5h-212v104zM116 799q0 25 19.5 43t57.5 18q39 0 59 -18t20 -43q0 -26 -20 -44t-59 -18q-38 0 -57.5 18t-19.5 44z" horiz-adv-x="477" unicode=""/><glyph d="M15 0zM85 298h144q-3 54 -22.5 82t-63.5 28q-31 0 -54 -6.5t-40 -17.5l-32 90q54 40 149 40q92 0 139 -65t47 -199t-51.5 -198.5t-145.5 -64.5q-37 0 -76.5 7.5t-63.5 21.5l28 99q41 -22 94 -22q49 0 69.5 27.5t22.5 87.5h-144v90zM83 641q0 30 19 49.5t54 19.5t56 -19 t21 -50t-21 -49t-56 -18t-54 18.5t-19 48.5z" horiz-adv-x="377" unicode=""/><glyph d="M12 0zM98 313v102h24q15 0 37 1t35 6q27 8 46 30t19 57q0 49 -23.5 68t-65.5 19q-34 0 -63.5 -10.5t-46.5 -21.5l-32 109q10 6 28 13t40.5 13t48 9.5t51.5 3.5q38 0 73.5 -7.5t62.5 -27t43 -53.5t16 -87q0 -51 -21.5 -95t-69.5 -65v-6q52 -14 80.5 -56t28.5 -114 q0 -49 -14 -86t-38 -62.5t-56 -41t-68 -21.5l-11 -165h-82l-15 164q-35 5 -64 13t-49 19l33 112q19 -11 52.5 -21t78.5 -10q41 0 71 26.5t30 83.5q0 49 -27.5 73.5t-96.5 26.5q-11 0 -15 0.5t-17 0.5h-23z" horiz-adv-x="435" unicode=""/><glyph d="M14 0zM85 208v89h48q27 0 44 16t17 39q0 50 -62 50q-30 0 -53 -8t-37 -17l-27 95q26 15 68 25.5t87 10.5q143 0 143 -124q0 -37 -16 -69.5t-48 -46.5v-4q42 -12 61 -42t19 -81t-27.5 -90.5t-87.5 -53.5l-12 -172h-82l-16 168q-29 4 -51 11.5t-39 18.5l24 97 q19 -11 44.5 -17.5t54.5 -6.5q73 0 73 59q0 25 -18.5 39t-68.5 14h-38z" horiz-adv-x="354" unicode=""/><glyph d="M29 0zM442 43q-22 -18 -55 -27.5t-68 -12.5l-14 -31q34 -4 54 -21.5t20 -53.5q0 -23 -10.5 -40t-28.5 -28.5t-42 -17.5t-50 -6q-27 0 -54 6l7 48q42 -4 55.5 5.5t13.5 23.5q0 28 -70 32l43 84q-46 6 -85 29t-67.5 66t-45 109t-16.5 158q0 106 22.5 176t59 111.5 t83.5 58.5t95 17q49 0 85.5 -8t59.5 -18l-25 -111q-19 10 -44.5 15.5t-60.5 5.5q-69 0 -106 -60t-37 -188q0 -55 8.5 -100.5t27 -78.5t47 -51t68.5 -18q35 0 60 9.5t45 22.5z" horiz-adv-x="457" unicode=""/><glyph d="M25 0zM338 27q-18 -15 -41 -23.5t-49 -13.5l-15 -33q34 -4 54 -21.5t20 -53.5q0 -23 -10.5 -40t-28.5 -28.5t-42 -17.5t-50 -6q-27 0 -54 6l7 48q42 -4 55.5 5.5t13.5 23.5q0 28 -70 32l43 85q-80 13 -113 82t-33 178q0 131 47 197t138 66q45 0 73.5 -8t50.5 -20l-28 -99 q-18 9 -34.5 13.5t-39.5 4.5q-42 0 -63 -36.5t-21 -117.5q0 -68 21.5 -111t68.5 -43q25 0 42.5 6.5t32.5 16.5z" horiz-adv-x="350" unicode=""/><glyph d="M0 0zM328 158h-165l-41 -158h-125l203 705h99l204 -705h-132zM190 262h116l-40 163l-16 110h-4l-17 -111zM108 856h289v-89h-289v89z" horiz-adv-x="501" unicode=""/><glyph d="M17 0zM44 470q30 18 75 29t102 11q85 0 118.5 -44t33.5 -125q0 -47 -2.5 -92.5t-3.5 -89t1.5 -84t13.5 -76.5h-97l-19 61h-4q-16 -29 -45 -48t-73 -19q-59 0 -93 39.5t-34 105.5q0 90 64 128t173 32q5 58 -7.5 84t-53.5 26q-30 0 -62 -7t-57 -20zM187 95q27 0 44 13.5 t25 29.5v83q-23 3 -44 1t-37 -9t-25.5 -20.5t-9.5 -34.5q0 -31 12.5 -47t34.5 -16zM72 658h272v-91h-272v91z" horiz-adv-x="413" unicode=""/><glyph d="M45 0zM45 700h350v-116h-224v-172h203v-116h-203v-180h228v-116h-354v700zM76 856h289v-89h-289v89z" horiz-adv-x="430" unicode=""/><glyph d="M25 0zM381 37q-25 -22 -68 -36t-90 -14q-52 0 -89.5 18t-61.5 52t-35.5 82.5t-11.5 110.5q0 135 53.5 199.5t148.5 64.5q32 0 62 -9.5t53.5 -32t38 -60t14.5 -94.5q0 -22 -2.5 -47t-7.5 -54h-243q2 -62 26 -95t77 -33q32 0 58.5 10t40.5 21zM225 412q-38 0 -57 -30.5 t-22 -85.5h138q3 57 -12 86.5t-47 29.5zM80 658h272v-91h-272v91z" horiz-adv-x="428" unicode=""/><glyph d="M45 0zM45 700h350v-116h-224v-172h203v-116h-203v-180h228v-116h-354v700zM59 798q0 26 15.5 42t53.5 16q35 0 50.5 -16t15.5 -42t-15.5 -41.5t-50.5 -15.5q-38 0 -53.5 15.5t-15.5 41.5zM241 798q0 26 15.5 42t51.5 16q37 0 52.5 -16t15.5 -42t-15.5 -41.5t-52.5 -15.5 q-36 0 -51.5 15.5t-15.5 41.5zM72 992h289v-89h-289v89z" horiz-adv-x="430" unicode=""/><glyph d="M25 0zM381 37q-25 -22 -68 -36t-90 -14q-52 0 -89.5 18t-61.5 52t-35.5 82.5t-11.5 110.5q0 135 53.5 199.5t148.5 64.5q32 0 62 -9.5t53.5 -32t38 -60t14.5 -94.5q0 -22 -2.5 -47t-7.5 -54h-243q2 -62 26 -95t77 -33q32 0 58.5 10t40.5 21zM225 412q-38 0 -57 -30.5 t-22 -85.5h138q3 57 -12 86.5t-47 29.5zM62 617q0 32 17.5 50t46.5 18q28 0 45 -18t17 -50q0 -30 -17 -47.5t-45 -17.5q-29 0 -46.5 17.5t-17.5 47.5zM248 617q0 32 17 50t46 18t46 -18t17 -50q0 -30 -17 -47.5t-46 -17.5t-46 17.5t-17 47.5zM73 839h289v-89h-289v89z" horiz-adv-x="428" unicode=""/><glyph d="M45 0zM45 700h350v-116h-224v-172h203v-116h-203v-180h228v-116h-354v700zM60 798q0 26 15.5 42t53.5 16q35 0 50.5 -16t15.5 -42t-15.5 -41.5t-50.5 -15.5q-38 0 -53.5 15.5t-15.5 41.5zM242 798q0 26 15.5 42t51.5 16q37 0 52.5 -16t15.5 -42t-15.5 -41.5t-52.5 -15.5 q-36 0 -51.5 15.5t-15.5 41.5zM169 1016q6 -61 56 -61t56 60l102 -15q-8 -65 -49 -94t-110 -29q-35 0 -64 6t-51 20t-36 37t-18 58z" horiz-adv-x="430" unicode=""/><glyph d="M25 0zM381 37q-25 -22 -68 -36t-90 -14q-52 0 -89.5 18t-61.5 52t-35.5 82.5t-11.5 110.5q0 135 53.5 199.5t148.5 64.5q32 0 62 -9.5t53.5 -32t38 -60t14.5 -94.5q0 -22 -2.5 -47t-7.5 -54h-243q2 -62 26 -95t77 -33q32 0 58.5 10t40.5 21zM225 412q-38 0 -57 -30.5 t-22 -85.5h138q3 57 -12 86.5t-47 29.5zM62 617q0 32 17.5 50t46.5 18q28 0 45 -18t17 -50q0 -30 -17 -47.5t-45 -17.5q-29 0 -46.5 17.5t-17.5 47.5zM248 617q0 32 17 50t46 18t46 -18t17 -50q0 -30 -17 -47.5t-46 -17.5t-46 17.5t-17 47.5zM169 857q6 -61 56 -61t56 60 l102 -15q-8 -65 -49 -94t-110 -29q-35 0 -64 6t-51 20t-36 37t-18 58z" horiz-adv-x="428" unicode=""/><glyph d="M12 0zM98 313v102h24q15 0 37 1t35 6q27 8 46 30t19 57q0 49 -23.5 68t-65.5 19q-34 0 -63.5 -10.5t-46.5 -21.5l-32 109q10 6 28 13t40.5 13t48 9.5t51.5 3.5q38 0 73.5 -7.5t62.5 -27t43 -53.5t16 -87q0 -51 -21.5 -95t-69.5 -65v-6q52 -14 80.5 -56t28.5 -114 q0 -57 -18.5 -98t-50 -67t-72.5 -38t-85 -12q-54 0 -99 9.5t-72 25.5l33 112q19 -11 52.5 -21t78.5 -10q41 0 71 26.5t30 83.5q0 49 -27.5 73.5t-96.5 26.5q-11 0 -15 0.5t-17 0.5h-23zM246 737h-87l-104 94v39h91l42 -45l17 -30l17 29l45 46h88v-40z" horiz-adv-x="435" unicode=""/><glyph d="M14 0zM85 208v89h48q27 0 44 16t17 39q0 50 -62 50q-30 0 -53 -8t-37 -17l-27 95q26 15 68 25.5t87 10.5q143 0 143 -124q0 -37 -16 -69.5t-48 -46.5v-4q42 -12 61 -42t19 -81q0 -32 -10.5 -59.5t-32.5 -47.5t-55.5 -32t-79.5 -12q-45 0 -79.5 9.5t-57.5 23.5l24 97 q19 -11 44.5 -17.5t54.5 -6.5q73 0 73 59q0 25 -18.5 39t-68.5 14h-38zM220 550h-88l-95 182h98l32 -66l13 -49l13 49l37 66h91z" horiz-adv-x="354" unicode=""/><glyph d="M29 0zM29 350q0 178 61 271t186 93q65 0 112 -25.5t77 -73t44.5 -115t14.5 -150.5q0 -178 -62.5 -271t-185.5 -93q-66 0 -112.5 25.5t-76.5 73t-44 115t-14 150.5zM161 350q0 -53 6 -98.5t20 -78.5t35.5 -52t53.5 -19q58 0 87 59t29 189q0 51 -6 96.5t-19.5 79t-35.5 53 t-55 19.5q-115 0 -115 -248zM134 856h289v-89h-289v89z" horiz-adv-x="553" unicode=""/><glyph d="M25 0zM25 250q0 133 52 198t145 65q100 0 149 -66t49 -197q0 -134 -52 -198.5t-146 -64.5q-197 0 -197 263zM148 250q0 -75 17 -116t57 -41q38 0 56.5 35.5t18.5 121.5q0 77 -17 117t-58 40q-35 0 -54.5 -35.5t-19.5 -121.5zM87 658h272v-91h-272v91z" horiz-adv-x="445" unicode=""/><glyph d="M29 0zM29 350q0 178 61 271t186 93q65 0 112 -25.5t77 -73t44.5 -115t14.5 -150.5q0 -178 -62.5 -271t-185.5 -93q-66 0 -112.5 25.5t-76.5 73t-44 115t-14 150.5zM161 350q0 -53 6 -98.5t20 -78.5t35.5 -52t53.5 -19q58 0 87 59t29 189q0 51 -6 96.5t-19.5 79t-35.5 53 t-55 19.5q-115 0 -115 -248zM225 874q6 -61 56 -61t56 60l102 -15q-8 -65 -49 -94t-110 -29q-35 0 -64 6t-51 20t-36 37t-18 58z" horiz-adv-x="553" unicode=""/><glyph d="M25 0zM25 250q0 133 52 198t145 65q100 0 149 -66t49 -197q0 -134 -52 -198.5t-146 -64.5q-197 0 -197 263zM148 250q0 -75 17 -116t57 -41q38 0 56.5 35.5t18.5 121.5q0 77 -17 117t-58 40q-35 0 -54.5 -35.5t-19.5 -121.5zM177 704q3 -38 16 -55t33 -17q21 0 33.5 16.5 t17.5 54.5l90 -22q-11 -68 -50.5 -99.5t-93.5 -31.5q-26 0 -51 7t-45 22.5t-33.5 40.5t-17.5 62z" horiz-adv-x="445" unicode=""/><glyph d="M29 0zM29 350q0 178 61 271t186 93q65 0 112 -25.5t77 -73t44 -115t14 -150.5q0 -178 -62 -271t-185 -93q-66 0 -112.5 25.5t-76.5 73t-44 115t-14 150.5zM276 102q52 0 81.5 47t34.5 150h-231q3 -44 10.5 -80t21.5 -62t34.5 -40.5t48.5 -14.5zM391 405q-3 42 -10.5 77 t-21.5 61t-34.5 40.5t-48.5 14.5q-103 0 -115 -193h230zM226 874q6 -61 56 -61t56 60l102 -15q-8 -65 -49 -94t-110 -29q-35 0 -64 6t-51 20t-36 37t-18 58z" horiz-adv-x="552" unicode=""/><glyph d="M25 0zM25 250q0 129 51.5 196.5t145.5 67.5q50 0 87 -18.5t62 -53t37 -83t12 -109.5q0 -130 -52 -197t-146 -67q-50 0 -87 18.5t-61.5 53t-36.5 83t-12 109.5zM297 289q-5 66 -24 92.5t-50 26.5q-29 0 -50 -25.5t-25 -93.5h149zM148 208q3 -61 24 -88.5t50 -27.5t50 24.5 t25 91.5h-149zM177 704q3 -38 16 -55t33 -17q21 0 33.5 16.5t17.5 54.5l90 -22q-11 -68 -50.5 -99.5t-93.5 -31.5q-26 0 -51 7t-45 22.5t-33.5 40.5t-17.5 62z" horiz-adv-x="445" unicode=""/><glyph d="M29 0zM29 350q0 178 61 271t186 93q65 0 112 -25.5t77 -73t44 -115t14 -150.5q0 -178 -62 -271t-185 -93q-66 0 -112.5 25.5t-76.5 73t-44 115t-14 150.5zM276 102q52 0 81.5 47t34.5 150h-231q3 -44 10.5 -80t21.5 -62t34.5 -40.5t48.5 -14.5zM391 405q-3 42 -10.5 77 t-21.5 61t-34.5 40.5t-48.5 14.5q-103 0 -115 -193h230zM118 798q0 26 15.5 42t53.5 16q35 0 50.5 -16t15.5 -42t-15.5 -41.5t-50.5 -15.5q-38 0 -53.5 15.5t-15.5 41.5zM300 798q0 26 15.5 42t51.5 16q37 0 52.5 -16t15.5 -42t-15.5 -41.5t-52.5 -15.5q-36 0 -51.5 15.5 t-15.5 41.5zM226 1016q6 -61 56 -61t56 60l102 -15q-8 -65 -49 -94t-110 -29q-35 0 -64 6t-51 20t-36 37t-18 58z" horiz-adv-x="552" unicode=""/><glyph d="M25 0zM25 250q0 129 51.5 196.5t145.5 67.5q50 0 87 -18.5t62 -53t37 -83t12 -109.5q0 -130 -52 -197t-146 -67q-50 0 -87 18.5t-61.5 53t-36.5 83t-12 109.5zM297 289q-5 66 -24 92.5t-50 26.5q-29 0 -50 -25.5t-25 -93.5h149zM148 208q3 -61 24 -88.5t50 -27.5t50 24.5 t25 91.5h-149zM66 612q0 32 17.5 50t46.5 18q28 0 45 -18t17 -50q0 -30 -17 -47.5t-45 -17.5q-29 0 -46.5 17.5t-17.5 47.5zM252 612q0 32 17 50t46 18t46 -18t17 -50q0 -30 -17 -47.5t-46 -17.5t-46 17.5t-17 47.5zM173 853q6 -61 56 -61t56 60l102 -15q-8 -65 -49 -94 t-110 -29q-35 0 -64 6t-51 20t-36 37t-18 58z" horiz-adv-x="445" unicode=""/><glyph d="M45 0zM497 700h126v-700h-126v700zM45 700h126v-251q9 2 30 5t41 3q42 0 78.5 -9.5t63.5 -34.5t43 -68.5t16 -110.5q0 -123 -56 -183.5t-180 -60.5q-12 0 -31 0.5t-41.5 2t-46 5t-43.5 8.5v694zM171 112q8 -3 20 -4.5t25 -1.5q45 0 70 27.5t25 94.5q0 34 -7 56t-19 35 t-29.5 17.5t-38.5 4.5q-10 0 -25 -3t-21 -6v-220zM187 856h289v-89h-289v89z" horiz-adv-x="668" unicode=""/><glyph d="M43 0zM162 105q21 -6 43 -6q32 0 45.5 16.5t13.5 54.5q0 35 -13 52t-45 17q-23 0 -44 -6v-128zM162 322q20 4 41 5.5t38 1.5q41 0 69 -11.5t45 -32.5t24.5 -49.5t7.5 -61.5q0 -45 -10 -79t-33 -56.5t-60 -34t-92 -11.5q-48 0 -84.5 2t-64.5 5v500h119v-178zM430 500h119 v-500h-119v500zM152 658h272v-91h-272v91z" horiz-adv-x="591" unicode=""/><glyph d="M14 0zM105 407h211q-2 42 -10.5 77t-26 60.5t-43 39.5t-61.5 14q-43 0 -75.5 -10.5t-55.5 -24.5l-29 109q32 19 78 30.5t89 11.5q60 0 109.5 -19.5t84 -62.5t53.5 -112.5t19 -168.5q0 -106 -22 -176.5t-60.5 -112.5t-89 -59t-107.5 -17q-49 0 -90.5 10t-64.5 22l33 112 q20 -10 53 -19t74 -9q66 0 102 48.5t41 152.5h-212v104zM53 856h289v-89h-289v89z" horiz-adv-x="477" unicode=""/><glyph d="M15 0zM85 298h144q-3 54 -22.5 82t-63.5 28q-31 0 -54 -6.5t-40 -17.5l-32 90q54 40 149 40q92 0 139 -65t47 -199t-51.5 -198.5t-145.5 -64.5q-37 0 -76.5 7.5t-63.5 21.5l28 99q41 -22 94 -22q49 0 69.5 27.5t22.5 87.5h-144v90zM33 658h272v-91h-272v91z" horiz-adv-x="377" unicode=""/><glyph d="M14 0zM105 407h211q-2 42 -10.5 77t-26 60.5t-43 39.5t-61.5 14q-43 0 -75.5 -10.5t-55.5 -24.5l-29 109q32 19 78 30.5t89 11.5q60 0 109.5 -19.5t84 -62.5t53.5 -112.5t19 -168.5q0 -106 -22 -176.5t-60.5 -112.5t-89 -59t-107.5 -17q-49 0 -90.5 10t-64.5 22l33 112 q20 -10 53 -19t74 -9q66 0 102 48.5t41 152.5h-212v104zM145 874q6 -61 56 -61t56 60l102 -15q-8 -65 -49 -94t-110 -29q-35 0 -64 6t-51 20t-36 37t-18 58z" horiz-adv-x="477" unicode=""/><glyph d="M15 0zM85 298h144q-3 54 -22.5 82t-63.5 28q-31 0 -54 -6.5t-40 -17.5l-32 90q54 40 149 40q92 0 139 -65t47 -199t-51.5 -198.5t-145.5 -64.5q-37 0 -76.5 7.5t-63.5 21.5l28 99q41 -22 94 -22q49 0 69.5 27.5t22.5 87.5h-144v90zM123 704q3 -38 16 -55t33 -17 q21 0 33.5 16.5t17.5 54.5l90 -22q-11 -68 -50.5 -99.5t-93.5 -31.5q-26 0 -51 7t-45 22.5t-33.5 40.5t-17.5 62z" horiz-adv-x="377" unicode=""/><glyph d="M29 0zM446 28q-13 -11 -31.5 -19t-40 -13t-44.5 -7.5t-44 -2.5q-54 0 -100.5 18.5t-81.5 61.5t-55 113t-20 172q0 106 22.5 176t59 111.5t83.5 58.5t95 17q49 0 87.5 -8t61.5 -18l-25 -111q-19 10 -46.5 15.5t-62.5 5.5q-60 0 -96.5 -45t-45.5 -141h223v-104h-224 q3 -46 14 -84t29.5 -65t45.5 -42t63 -15q35 0 61.5 9.5t46.5 22.5zM123 798q0 26 15.5 42t53.5 16q35 0 50.5 -16t15.5 -42t-15.5 -41.5t-50.5 -15.5q-38 0 -53.5 15.5t-15.5 41.5zM305 798q0 26 15.5 42t51.5 16q37 0 52.5 -16t15.5 -42t-15.5 -41.5t-52.5 -15.5 q-36 0 -51.5 15.5t-15.5 41.5z" horiz-adv-x="475" unicode=""/><glyph d="M27 0zM356 25q-23 -18 -61 -27.5t-74 -9.5q-50 0 -86.5 18.5t-60.5 53t-35.5 83t-11.5 107.5q0 127 53.5 194.5t145.5 67.5q45 0 74.5 -7t51.5 -19l-29 -101q-19 10 -38 14t-41 4q-35 0 -60 -25.5t-33 -81.5h151v-86h-152q6 -51 30.5 -82t69.5 -31q25 0 45 6t36 16z M57 632q0 32 17.5 50t46.5 18q28 0 45 -18t17 -50q0 -30 -17 -47.5t-45 -17.5q-29 0 -46.5 17.5t-17.5 47.5zM243 632q0 32 17 50t46 18t46 -18t17 -50q0 -30 -17 -47.5t-46 -17.5t-46 17.5t-17 47.5z" horiz-adv-x="371" unicode=""/><glyph d="M5 0zM441 0h-126v279l-54 -19l-111 -260h-145l114 238l50 40q-53 15 -88 65.5t-35 141.5q0 64 18 107t51 69t79 37.5t101 11.5q13 0 32.5 -1t39.5 -3t39.5 -5.5t34.5 -7.5v-693zM315 589q-9 3 -18 4t-22 1q-20 0 -38 -5.5t-31 -19t-20.5 -35.5t-7.5 -55q0 -63 27.5 -90.5 t71.5 -27.5h38v228zM126 856h289v-89h-289v89z" horiz-adv-x="486" unicode=""/><glyph d="M7 0zM262 189l-45 -12l-71 -177h-139l76 161l39 32q-40 10 -65 48t-25 96q0 91 50 134t159 42q42 0 78.5 -4t61.5 -10v-499h-119v189zM262 256v144q-15 7 -37 7q-70 0 -70 -77q0 -74 79 -76zM80 658h272v-91h-272v91z" horiz-adv-x="421" unicode=""/><glyph d="M5 0zM441 0h-126v279l-54 -19l-111 -260h-145l114 238l50 40q-53 15 -88 65.5t-35 141.5q0 64 18 107t51 69t79 37.5t101 11.5q13 0 32.5 -1t39.5 -3t39.5 -5.5t34.5 -7.5v-693zM315 589q-9 3 -18 4t-22 1q-20 0 -38 -5.5t-31 -19t-20.5 -35.5t-7.5 -55q0 -63 27.5 -90.5 t71.5 -27.5h38v228zM216 874q6 -61 56 -61t56 60l102 -15q-8 -65 -49 -94t-110 -29q-35 0 -64 6t-51 20t-36 37t-18 58z" horiz-adv-x="486" unicode=""/><glyph d="M7 0zM262 189l-45 -12l-71 -177h-139l76 161l39 32q-40 10 -65 48t-25 96q0 91 50 134t159 42q42 0 78.5 -4t61.5 -10v-499h-119v189zM262 256v144q-15 7 -37 7q-70 0 -70 -77q0 -74 79 -76zM178 704q3 -38 16 -55t33 -17q21 0 33.5 16.5t17.5 54.5l90 -22 q-11 -68 -50.5 -99.5t-93.5 -31.5q-26 0 -51 7t-45 22.5t-33.5 40.5t-17.5 62z" horiz-adv-x="421" unicode=""/><glyph d="M45 0zM171 412h71q8 143 64.5 222.5t169.5 79.5q65 0 110.5 -26t74 -74t41 -115t12.5 -149q0 -175 -58 -269.5t-181 -94.5q-57 0 -99 21.5t-70.5 62t-44 98t-19.5 128.5h-71v-296h-126v700h126v-288zM368 350q0 -54 5 -99.5t17.5 -78.5t33 -51.5t51.5 -18.5 q58 0 82.5 58.5t24.5 189.5q0 52 -4.5 97.5t-16.5 79t-32.5 52.5t-53.5 19q-57 0 -82 -60.5t-25 -187.5zM244 856h289v-89h-289v89z" horiz-adv-x="743" unicode=""/><glyph d="M43 0zM400 -12q-93 0 -133.5 56t-47.5 160h-57v-204h-119v500h119v-190h58q9 100 51.5 151t130.5 51q96 0 140 -68.5t44 -193.5q0 -262 -186 -262zM332 250q0 -77 15 -116.5t53 -39.5q16 0 28 7t20 25t11.5 48t3.5 76q0 82 -14 119t-51 37q-34 0 -50 -34.5t-16 -121.5z M160 658h272v-91h-272v91z" horiz-adv-x="611" unicode=""/><glyph d="M45 0zM171 412h71q8 143 64.5 222.5t169.5 79.5q65 0 110.5 -26t74 -74t41 -115t12.5 -149q0 -175 -58 -269.5t-181 -94.5q-57 0 -99 21.5t-70.5 62t-44 98t-19.5 128.5h-71v-296h-126v700h126v-288zM368 350q0 -54 5 -99.5t17.5 -78.5t33 -51.5t51.5 -18.5 q58 0 82.5 58.5t24.5 189.5q0 52 -4.5 97.5t-16.5 79t-32.5 52.5t-53.5 19q-57 0 -82 -60.5t-25 -187.5zM316 874q6 -61 56 -61t56 60l102 -15q-8 -65 -49 -94t-110 -29q-35 0 -64 6t-51 20t-36 37t-18 58z" horiz-adv-x="743" unicode=""/><glyph d="M43 0zM400 -12q-93 0 -133.5 56t-47.5 160h-57v-204h-119v500h119v-190h58q9 100 51.5 151t130.5 51q96 0 140 -68.5t44 -193.5q0 -262 -186 -262zM332 250q0 -77 15 -116.5t53 -39.5q16 0 28 7t20 25t11.5 48t3.5 76q0 82 -14 119t-51 37q-34 0 -50 -34.5t-16 -121.5z M257 704q3 -38 16 -55t33 -17q21 0 33.5 16.5t17.5 54.5l90 -22q-11 -68 -50.5 -99.5t-93.5 -31.5q-26 0 -51 7t-45 22.5t-33.5 40.5t-17.5 62z" horiz-adv-x="611" unicode=""/><glyph d="M345 584h-106q-7 -190 -19 -317.5t-46 -194.5q-12 -24 -27.5 -39.5t-31 -24t-31.5 -12t-29 -3.5q-21 0 -37 3.5t-30 10.5l14 114q18 -7 36 -0.5t30 32.5q12 22 21 64.5t15.5 109.5t10 159t5.5 214h351v-584h74v-241h-89l-12 125h-99v584z" horiz-adv-x="558" unicode=""/><glyph d="M271 391h-72q-4 -87 -11 -160t-22 -125.5t-40.5 -82t-66.5 -29.5q-25 0 -43 3.5t-31 11.5l14 104q24 -8 40.5 1t27.5 49.5t17.5 120.5t9.5 216h296v-391h71v-223h-88l-13 114h-89v391z" horiz-adv-x="472" unicode=""/><glyph d="M171 700v-366l-11 -102h5l40 109l199 359h98v-730q0 -83 -29.5 -130.5t-103.5 -47.5q-29 0 -61 7v106q21 -2 34.5 3.5t21 18t10 31t2.5 42.5v373l10 99h-5l-38 -106l-199 -366h-99v700h126zM230 874q6 -61 56 -61t56 60l102 -15q-8 -65 -49 -94t-110 -29q-35 0 -64 6 t-51 20t-36 37t-18 58z" horiz-adv-x="547" unicode=""/><glyph d="M187 704q3 -38 16 -55t33 -17q21 0 33.5 16.5t17.5 54.5l90 -22q-11 -68 -50.5 -99.5t-93.5 -31.5q-26 0 -51 7t-45 22.5t-33.5 40.5t-17.5 62zM288 218l9 81h-3l-37 -85l-134 -214h-80v500h119v-227l-9 -78h3l36 83l135 222h80v-531q0 -84 -31 -129.5t-100 -45.5 q-13 0 -27.5 1.5t-30.5 5.5v103q43 -4 56.5 20.5t13.5 85.5v208z" horiz-adv-x="450" unicode=""/><glyph d="M29 0zM29 350q0 178 61 271t186 93q65 0 112 -25.5t77 -73t44.5 -115t14.5 -150.5q0 -178 -62.5 -271t-185.5 -93q-66 0 -112.5 25.5t-76.5 73t-44 115t-14 150.5zM161 350q0 -53 6 -98.5t20 -78.5t35.5 -52t53.5 -19q58 0 87 59t29 189q0 51 -6 96.5t-19.5 79t-35.5 53 t-55 19.5q-115 0 -115 -248zM199 799q0 25 19.5 43t57.5 18q39 0 59 -18t20 -43q0 -26 -20 -44t-59 -18q-38 0 -57.5 18t-19.5 44z" horiz-adv-x="553" unicode=""/><glyph d="M25 0zM25 250q0 133 52 198t145 65q100 0 149 -66t49 -197q0 -134 -52 -198.5t-146 -64.5q-197 0 -197 263zM148 250q0 -75 17 -116t57 -41q38 0 56.5 35.5t18.5 121.5q0 77 -17 117t-58 40q-35 0 -54.5 -35.5t-19.5 -121.5zM148 641q0 30 19 49.5t54 19.5t56 -19t21 -50 t-21 -49t-56 -18t-54 18.5t-19 48.5z" horiz-adv-x="445" unicode=""/><glyph d="M45 0zM497 700h126v-700h-126v700zM45 700h126v-251q9 2 30 5t41 3q42 0 78.5 -9.5t63.5 -34.5t43 -68.5t16 -110.5q0 -123 -56 -183.5t-180 -60.5q-12 0 -31 0.5t-41.5 2t-46 5t-43.5 8.5v694zM171 112q8 -3 20 -4.5t25 -1.5q45 0 70 27.5t25 94.5q0 34 -7 56t-19 35 t-29.5 17.5t-38.5 4.5q-10 0 -25 -3t-21 -6v-220zM285 874q6 -61 56 -61t56 60l102 -15q-8 -65 -49 -94t-110 -29q-35 0 -64 6t-51 20t-36 37t-18 58z" horiz-adv-x="668" unicode=""/><glyph d="M43 0zM162 105q21 -6 43 -6q32 0 45.5 16.5t13.5 54.5q0 35 -13 52t-45 17q-23 0 -44 -6v-128zM162 322q20 4 41 5.5t38 1.5q41 0 69 -11.5t45 -32.5t24.5 -49.5t7.5 -61.5q0 -45 -10 -79t-33 -56.5t-60 -34t-92 -11.5q-48 0 -84.5 2t-64.5 5v500h119v-178zM430 500h119 v-500h-119v500zM250 704q3 -38 16 -55t33 -17q21 0 33.5 16.5t17.5 54.5l90 -22q-11 -68 -50.5 -99.5t-93.5 -31.5q-26 0 -51 7t-45 22.5t-33.5 40.5t-17.5 62z" horiz-adv-x="591" unicode=""/><glyph d="M29 0zM318 313h-17.5t-14.5 -1q-70 -2 -97.5 -29.5t-27.5 -75.5q0 -52 29 -78.5t75 -26.5q39 0 72.5 11.5t51.5 21.5l34 -102q-24 -17 -71.5 -32t-104.5 -15q-102 0 -160 50.5t-58 159.5q0 73 28.5 116t79.5 57v6q-46 21 -68 65.5t-22 96.5q0 49 16.5 82.5t44 54t64 29.5 t76.5 9q26 0 50.5 -3.5t46 -9.5t38.5 -13t27 -13l-32 -105q-20 11 -49.5 19.5t-59.5 8.5q-44 0 -67 -19t-23 -63q0 -40 21 -62t48 -29q13 -5 34 -7t36 -2h22v-101h-22zM81 798q0 26 15.5 42t53.5 16q35 0 50.5 -16t15.5 -42t-15.5 -41.5t-50.5 -15.5q-38 0 -53.5 15.5 t-15.5 41.5zM263 798q0 26 15.5 42t51.5 16q37 0 52.5 -16t15.5 -42t-15.5 -41.5t-52.5 -15.5q-36 0 -51.5 15.5t-15.5 41.5z" horiz-adv-x="442" unicode=""/><glyph d="M25 0zM230 210q-50 0 -68 -14.5t-18 -40.5t18 -43t53 -17q31 0 56.5 7t42.5 18l24 -97q-21 -14 -55.5 -24t-81.5 -10q-46 0 -79 11t-54.5 31.5t-32 48t-10.5 60.5q0 51 19.5 80t60.5 43v4q-33 14 -49 46t-16 67q0 64 39 96.5t105 32.5q52 0 90 -9.5t64 -24.5l-26 -96 q-17 9 -40 16.5t-52 7.5q-60 0 -60 -53q0 -23 17 -38t44 -15h48v-87h-39zM39 632q0 32 17.5 50t46.5 18q28 0 45 -18t17 -50q0 -30 -17 -47.5t-45 -17.5q-29 0 -46.5 17.5t-17.5 47.5zM225 632q0 32 17 50t46 18t46 -18t17 -50q0 -30 -17 -47.5t-46 -17.5t-46 17.5t-17 47.5 z" horiz-adv-x="355" unicode=""/><glyph d="M42 0zM56 700h126v-700h-126v700zM42 799q0 25 19.5 43t57.5 18q39 0 59 -18t20 -43q0 -26 -20 -44t-59 -18q-38 0 -57.5 18t-19.5 44z" horiz-adv-x="238" unicode=""/><glyph d="M53 0zM53 500h119v-500h-119v500z" horiz-adv-x="225" unicode=""/><glyph d="M45 0zM45 700h350v-116h-224v-182h206v-116h-206v-286h-126v700z" horiz-adv-x="419" unicode=""/><glyph d="M314 391h-152v-116h138v-98h-138v-177h-119v500h271v-109z" horiz-adv-x="334" unicode=""/><glyph d="M29 0zM442 28q-18 -15 -45.5 -24.5t-57.5 -13.5l-11 -165h-82l-15 166q-44 8 -81 32t-64 67.5t-42 107.5t-15 153q0 106 22.5 176t59 111.5t83.5 58.5t95 17q49 0 85.5 -8t59.5 -18l-25 -111q-19 10 -44.5 15.5t-60.5 5.5q-69 0 -106 -60t-37 -188q0 -55 8.5 -100.5 t27 -78.5t47 -51t68.5 -18q35 0 60 9.5t45 22.5z" horiz-adv-x="457" unicode=""/><glyph d="M25 0zM338 28q-30 -24 -73 -33l-11 -169h-82l-16 168q-71 18 -101 85.5t-30 171.5q0 131 47 197t138 66q45 0 73.5 -8t50.5 -20l-28 -99q-18 9 -34.5 13.5t-39.5 4.5q-42 0 -63 -36.5t-21 -117.5q0 -68 21.5 -111t68.5 -43q25 0 42.5 6.5t32.5 16.5z" horiz-adv-x="350" unicode=""/><glyph d="M45 0zM45 700q18 3 40.5 4.5t46 3t45.5 2t39 0.5q83 0 138.5 -25.5t89 -72t47.5 -111.5t14 -145q0 -73 -13.5 -139.5t-47.5 -117t-92 -80.5t-146 -30q-13 0 -35 1t-46 2.5t-46 3t-34 3.5v701zM229 594q-16 0 -32.5 -0.5t-25.5 -2.5v-482q3 -1 10.5 -1.5t16 -1t16 -1 t10.5 -0.5q45 0 74 21t45.5 56t23 80.5t6.5 95.5q0 46 -5.5 89t-21 75.5t-44 52t-73.5 19.5zM247 870h143v-30l-132 -88h-93z" horiz-adv-x="535" unicode=""/><glyph d="M25 0zM402 176q0 -42 1 -84t8 -93h-84l-16 58h-4q-34 -70 -119 -70q-76 0 -119.5 60t-43.5 195q0 132 47 200.5t140 68.5q24 0 40 -3t31 -10v202h119v-524zM216 96q27 0 43 13.5t24 39.5v236q-10 9 -22.5 13t-32.5 4q-40 0 -60 -36t-20 -128q0 -69 16.5 -105.5 t51.5 -36.5zM464 701h119v-30l-94 -124h-67z" horiz-adv-x="445" unicode=""/><glyph d="M45 0zM362 296h-191v-296h-126v700h126v-288h191v288h126v-700h-126v296zM287 870h143v-30l-132 -88h-93z" horiz-adv-x="533" unicode=""/><glyph d="M43 0zM291 0v302q0 54 -12.5 78t-45.5 24q-24 0 -44 -17t-27 -43v-344h-119v700h119v-245h3q20 26 48.5 42t71.5 16q31 0 54 -9t39 -30t24 -56.5t8 -89.5v-328h-119zM266 720h119v-30l-94 -124h-67z" horiz-adv-x="449" unicode=""/><glyph d="M45 0zM417 0h-372v700h126v-584h246v-116zM256 701h119v-30l-94 -124h-67z" horiz-adv-x="424" unicode=""/><glyph d="M45 0zM164 162q0 -35 7 -50t23 -15q9 0 18.5 2t21.5 7l11 -96q-12 -8 -41 -15t-59 -7q-50 0 -75 25t-25 85v602h119v-538zM230 701h119v-30l-94 -124h-67z" horiz-adv-x="243" unicode=""/><glyph d="M8 0zM465 584h-165v-584h-126v584h-166v116h457v-116zM264 870h143v-30l-132 -88h-93z" horiz-adv-x="473" unicode=""/><glyph d="M4 0zM4 500h55v94l119 37v-131h97v-106h-97v-218q0 -43 8.5 -61t30.5 -18q15 0 27 3t26 9l15 -95q-22 -11 -51 -18.5t-61 -7.5q-57 0 -85.5 33t-28.5 111v262h-55v106zM257 701h119v-30l-94 -124h-67z" horiz-adv-x="291" unicode=""/><glyph d="M0 0zM243 289l14 -120h4l16 121l102 410h133l-212 -705h-96l-214 705h149zM277 870h143v-30l-132 -88h-93z" horiz-adv-x="503" unicode=""/><glyph d="M0 0zM195 239l12 -79h4l11 80l62 260h128l-168 -505h-80l-177 505h139zM196 720h119v-30l-94 -124h-67z" horiz-adv-x="399" unicode=""/><glyph d="M12 0zM98 313v102h24q15 0 37 1t35 6q27 8 46 30t19 57q0 49 -23.5 68t-65.5 19q-34 0 -63.5 -10.5t-46.5 -21.5l-32 109q10 6 28 13t40.5 13t48 9.5t51.5 3.5q38 0 73.5 -7.5t62.5 -27t43 -53.5t16 -87q0 -51 -21.5 -95t-69.5 -65v-6q52 -14 80.5 -56t28.5 -114 q0 -57 -18.5 -98t-50 -67t-72.5 -38t-85 -12q-54 0 -99 9.5t-72 25.5l33 112q19 -11 52.5 -21t78.5 -10q41 0 71 26.5t30 83.5q0 49 -27.5 73.5t-96.5 26.5q-11 0 -15 0.5t-17 0.5h-23z" horiz-adv-x="435" unicode=""/><glyph d="M81 137v87h45q14 0 27 8.5t23.5 22t17 31t6.5 36.5q0 82 -77 82q-29 0 -48 -7t-34 -17l-24 94q27 17 65.5 26t80.5 9q79 0 118 -42t39 -109q0 -25 -6.5 -49t-17.5 -45t-25.5 -37.5t-31.5 -25.5v-4q21 -6 40.5 -19.5t33.5 -35.5t22.5 -52.5t8.5 -71.5q0 -60 -16.5 -103 t-45 -71t-65.5 -41.5t-79 -13.5q-39 0 -73.5 9.5t-56.5 23.5l33 96q19 -11 40 -17.5t41 -6.5q19 0 37.5 6t32.5 20t23 37.5t9 58.5q0 60 -30 90.5t-81 30.5h-32z" horiz-adv-x="364" unicode=""/><glyph d="M12 0zM98 313v102h24q15 0 37 1t35 6q27 8 46 30t19 57q0 49 -23.5 68t-65.5 19q-34 0 -63.5 -10.5t-46.5 -21.5l-32 109q10 6 28 13t40.5 13t48 9.5t51.5 3.5q38 0 73.5 -7.5t62.5 -27t43 -53.5t16 -87q0 -51 -21.5 -95t-69.5 -65v-6q52 -14 80.5 -56t28.5 -114 q0 -57 -18.5 -98t-50 -67t-72.5 -38t-85 -12q-54 0 -99 9.5t-72 25.5l33 112q19 -11 52.5 -21t78.5 -10q41 0 71 26.5t30 83.5q0 49 -27.5 73.5t-96.5 26.5q-11 0 -15 0.5t-17 0.5h-23zM244 737h-87l-104 94v39h91l42 -45l17 -30l17 29l45 46h88v-40z" horiz-adv-x="435" unicode=""/><glyph d="M8 0zM81 137v87h45q14 0 27 8.5t23.5 22t17 31t6.5 36.5q0 82 -77 82q-29 0 -48 -7t-34 -17l-24 94q27 17 65.5 26t80.5 9q79 0 118 -42t39 -109q0 -25 -6.5 -49t-17.5 -45t-25.5 -37.5t-31.5 -25.5v-4q21 -6 40.5 -19.5t33.5 -35.5t22.5 -52.5t8.5 -71.5 q0 -60 -16.5 -103t-45 -71t-65.5 -41.5t-79 -13.5q-39 0 -73.5 9.5t-56.5 23.5l33 96q19 -11 40 -17.5t41 -6.5q19 0 37.5 6t32.5 20t23 37.5t9 58.5q0 60 -30 90.5t-81 30.5h-32zM204 550h-88l-95 182h98l32 -66l13 -49l13 49l37 66h91z" horiz-adv-x="364" unicode=""/><glyph d="M29 380zM159 444q0 -29 -17.5 -46.5t-43.5 -17.5q-32 0 -50.5 23.5t-18.5 61.5q0 39 11 67t27 47t32.5 30t28.5 16l32 -51q-17 -9 -30.5 -27t-15.5 -39q17 -2 31 -18.5t14 -45.5z" horiz-adv-x="190" unicode=""/><glyph d="M29 293zM29 470q0 29 17.5 47t43.5 18q32 0 50.5 -22.5t18.5 -62.5q0 -39 -11 -66t-26.5 -45.5t-32.5 -29.5t-29 -16l-30 50q17 8 30 24t15 39q-17 1 -31.5 16.5t-14.5 47.5z" horiz-adv-x="188" unicode=""/><glyph d="M29 380zM159 444q0 -29 -17.5 -46.5t-43.5 -17.5q-32 0 -50.5 23.5t-18.5 61.5q0 39 11 67t27 47t32.5 30t28.5 16l32 -51q-17 -9 -30.5 -27t-15.5 -39q17 -2 31 -18.5t14 -45.5zM312 444q0 -29 -17.5 -46.5t-43.5 -17.5q-32 0 -50.5 23.5t-18.5 61.5q0 39 11 67t27 47 t32.5 30t28.5 16l32 -51q-17 -9 -30.5 -27t-15.5 -39q17 -2 31 -18.5t14 -45.5z" horiz-adv-x="343" unicode=""/><glyph d="M29 293zM29 470q0 29 17.5 47t43.5 18q32 0 50.5 -22.5t18.5 -62.5q0 -39 -11 -66t-26.5 -45.5t-32.5 -29.5t-29 -16l-30 50q17 8 30 24t15 39q-17 1 -31.5 16.5t-14.5 47.5zM182 470q0 29 17.5 47t43.5 18q32 0 50.5 -22.5t18.5 -62.5q0 -39 -11 -66t-26.5 -45.5 t-32.5 -29.5t-29 -16l-30 50q17 8 30 24t15 39q-17 1 -31.5 16.5t-14.5 47.5z" horiz-adv-x="341" unicode=""/><glyph d="M73 310zM73 526h103l-31 -216h-72v216z" horiz-adv-x="217" unicode=""/><glyph d="M73 310zM73 526h103l-31 -216h-72v216zM207 526h103l-31 -216h-72v216z" horiz-adv-x="351" unicode=""/><glyph d="M148 544l9 46l-26 -33l-45 -31l-45 70l131 111h81v-427h-105v264z" horiz-adv-x="357" unicode=""/><glyph d="M61 -106q0 29 18 46.5t44 17.5q31 0 50.5 -22t19.5 -67q0 -33 -10 -58t-24.5 -42t-30 -27.5t-27.5 -14.5l-33 46q13 8 25 23.5t14 37.5q-15 1 -30.5 15t-15.5 45z" horiz-adv-x="253" unicode=""/><glyph d="M142 870h143v-30l-132 -88h-93z" horiz-adv-x="345" unicode=""/><glyph d="M251 737h-87l-104 94v39h91l42 -45l17 -30l17 29l45 46h88v-40z" horiz-adv-x="420" unicode=""/><glyph d="M60 798q0 26 15.5 42t53.5 16q35 0 50.5 -16t15.5 -42t-15.5 -41.5t-50.5 -15.5q-38 0 -53.5 15.5t-15.5 41.5zM242 798q0 26 15.5 42t51.5 16q37 0 52.5 -16t15.5 -42t-15.5 -41.5t-52.5 -15.5q-36 0 -51.5 15.5t-15.5 41.5z" horiz-adv-x="437" unicode=""/><glyph d="M284 752h-94l-130 88v30h142z" horiz-adv-x="344" unicode=""/><glyph d="M108 850h120v-16l-82 -93h-86zM280 850h125v-16l-118 -93h-86z" horiz-adv-x="465" unicode=""/><glyph d="M60 856h289v-89h-289v89z" horiz-adv-x="409" unicode=""/><glyph d="M174 874q6 -61 56 -61t56 60l102 -15q-8 -65 -49 -94t-110 -29q-35 0 -64 6t-51 20t-36 37t-18 58z" horiz-adv-x="448" unicode=""/><glyph d="M161 704q3 -38 16 -55t33 -17q21 0 33.5 16.5t17.5 54.5l90 -22q-11 -68 -50.5 -99.5t-93.5 -31.5q-26 0 -51 7t-45 22.5t-33.5 40.5t-17.5 62z" horiz-adv-x="411" unicode=""/><glyph d="M300 700q-2 -29 -10.5 -60.5t-20.5 -59.5t-25.5 -50t-23.5 -32l-53 26q14 36 21.5 83t7.5 93h104z" horiz-adv-x="155"/><glyph d="M49 700h119v-700h-119v700z" horiz-adv-x="217"/><glyph d="M286 714l70 -58l-494 -670l-71 59z" horiz-adv-x="151"/><glyph d="M0 0z" horiz-adv-x="151"/></font>
</defs>
</svg>
